<?xml version="1.0"?>
<svg version="1.1" xmlns="http://www.w3.org/2000/svg" width="3255" height="3185">
<path d="M0 0 C3.34326602 0.00564828 6.68652696 0.00846387 10.0297966 0.0110817 C43.01933555 0.04861452 75.83903097 0.51391335 108.72733688 3.31805801 C110.88602489 3.49680998 113.0447164 3.67551976 115.2034111 3.85419083 C214.45350108 12.18864417 312.62646156 30.56913854 407.72733688 60.31805801 C409.05807236 60.73347855 409.05807236 60.73347855 410.41569138 61.15729141 C470.82055932 80.04929287 529.53684708 103.22195033 586.72733688 130.31805801 C587.89587204 130.87074356 589.0644072 131.42342911 590.26835251 131.9928627 C616.4066503 144.38959781 642.144491 157.46630999 667.2268486 171.89227676 C670.28034727 173.63338516 673.35948344 175.32424828 676.44340134 177.01068497 C688.7518786 183.75160495 700.74882136 191.01082988 712.72733688 198.31805801 C714.1770488 199.20122696 714.1770488 199.20122696 715.65604782 200.1022377 C728.53556634 207.97673907 741.17015595 216.19263177 753.72733688 224.56805801 C754.40804245 225.02205978 755.08874802 225.47606155 755.79008102 225.94382095 C768.83077204 234.65214759 781.85973433 243.40195582 794.53983688 252.63055801 C795.27355515 253.16269913 796.00727341 253.69484024 796.76322556 254.24310684 C799.08714788 255.9312878 801.40788505 257.62374083 803.72733688 259.31805801 C804.53171188 259.90554825 805.33608688 260.49303848 806.16483688 261.09833145 C816.11880459 268.37874534 826.00446053 275.73126813 835.72733688 283.31805801 C836.27132126 283.74119278 836.81530563 284.16432755 837.37577438 284.60028458 C846.32251335 291.56286772 855.14384887 298.67367247 863.92313766 305.84589005 C865.51006734 307.14077312 867.10082425 308.4309628 868.69218063 309.72040176 C875.54207468 315.28279737 882.2413917 321.00951296 888.92460251 326.76971817 C890.70219601 328.29646492 892.48685703 329.81447509 894.27421188 331.32977676 C901.28650827 337.28396164 908.12122791 343.38791244 914.85233688 349.65790176 C917.07262645 351.71227295 919.30950995 353.72142451 921.60233688 355.69305801 C930.33623446 363.25624166 938.76628847 371.23419146 946.85648727 379.47967911 C948.56005203 381.15367658 950.30827585 382.6937161 952.13358688 384.23212051 C957.69319515 389.06725813 962.85699488 394.29820583 968.05472946 399.5150795 C969.78628388 401.25199401 971.52312047 402.98349691 973.26054001 404.71454239 C978.42936882 409.8805936 983.50353165 415.05730107 988.24857712 420.62103653 C990.60532351 423.32563356 993.16025876 425.81514622 995.72733688 428.31805801 C999.5700432 432.1140391 1003.26157331 435.9547456 1006.76249313 440.07196426 C1009.46664559 443.16319222 1012.29087654 446.13710671 1015.10233688 449.13055801 C1019.78414187 454.1303248 1024.20259145 459.25784486 1028.48514938 464.60712051 C1030.966415 467.60711762 1033.57621877 470.46936088 1036.22733688 473.31805801 C1040.48269627 477.89730651 1044.50056844 482.6109239 1048.42264938 487.48212051 C1050.48547844 490.02044915 1052.58605086 492.51664789 1054.71097946 495.00262833 C1060.40075366 501.65983386 1065.85959443 508.47065882 1071.22782516 515.3888588 C1072.81483416 517.43062778 1074.40923543 519.46646926 1076.00468063 521.50165176 C1099.50926584 551.53046309 1121.77502531 582.45574255 1142.72733688 614.31805801 C1143.43986618 615.40135391 1143.43986618 615.40135391 1144.16679001 616.50653458 C1157.23905198 636.4346807 1169.76056988 656.70799579 1181.72733688 677.31805801 C1182.2282988 678.17963516 1182.72926071 679.04121231 1183.24540329 679.92889786 C1198.68120761 706.53871858 1213.06481022 733.75887393 1226.85233688 761.25555801 C1227.52799194 762.60294052 1227.52799194 762.60294052 1228.2172966 763.97754288 C1236.99574286 781.52903387 1245.10080112 799.32302007 1252.87107468 817.3399086 C1254.19712358 820.40336607 1255.54348031 823.45775162 1256.88749313 826.51337051 C1293.25420414 909.65589021 1320.26685634 997.45478663 1363.57304001 1274.84070206 C1363.72522588 1277.28416419 1363.88414077 1279.72712127 1364.04374313 1282.1701088 C1367.50203048 1336.21723225 1367.36203148 1391.28701782 1363.72733688 1445.31805801 C1363.66417282 1446.28443192 1363.60100876 1447.25080582 1363.53593063 1448.24646378 C1356.68686609 1552.88984611 1338.50963761 1656.56402901 1298.72733688 1785.31805801 C1298.44781174 1786.16994705 1298.16828659 1787.02183609 1297.88029099 1787.89953995 C1285.24186754 1826.37278038 1271.16846012 1864.29783343 1254.72733688 1901.31805801 C1254.2284697 1902.45033829 1253.72960251 1903.58261856 1253.21561813 1904.74921036 C1249.44645923 1913.29983691 1245.61479462 1921.82070413 1241.72733688 1930.31805801 C1241.4284758 1930.97141129 1241.12961472 1931.62476456 1240.82169724 1932.29791641 C1226.90116602 1962.68188686 1212.041019 1992.61886508 1195.30741501 2021.5607338 C1192.98529161 2025.6129683 1190.72373756 2029.69826932 1188.45658493 2033.78143692 C1178.62299925 2051.47626352 1168.19966377 2068.74985881 1157.31766891 2085.81708145 C1155.64306444 2088.45058594 1153.97939528 2091.09078028 1152.31718063 2093.73212051 C1144.71728899 2105.7844953 1136.86941259 2117.62582606 1128.72733688 2129.31805801 C1128.16014938 2130.13516251 1127.59296188 2130.952267 1127.00858688 2131.79413223 C1113.68506659 2150.98015016 1099.95702129 2169.79379418 1085.72733688 2188.31805801 C1084.77656154 2189.56005072 1083.82601092 2190.80221552 1082.87577438 2192.04462051 C1080.50303063 2195.14359269 1078.1177848 2198.23271245 1075.72733688 2201.31805801 C1075.29646774 2201.87509415 1074.8655986 2202.43213028 1074.42167282 2203.0060463 C1068.56318791 2210.56816683 1062.55256571 2217.96570695 1056.34061813 2225.23993301 C1053.94851419 2228.04513121 1051.61277837 2230.89268959 1049.28983688 2233.75555801 C1041.68938525 2243.08276699 1033.82281607 2252.18049209 1025.73905563 2261.09149551 C1023.87999019 2263.14910192 1022.04805331 2265.22652565 1020.22733688 2267.31805801 C1010.61511462 2278.33801992 1000.86841432 2289.37016377 990.4113121 2299.60164261 C988.70661496 2301.33917913 987.12655369 2303.14130907 985.54545212 2304.991642 C981.69006043 2309.42087885 977.606737 2313.58305654 973.44999313 2317.72821426 C972.67981354 2318.49935059 971.90963394 2319.27048691 971.11611557 2320.064991 C969.49792315 2321.68385954 967.87848476 2323.30148352 966.25785446 2324.91791153 C963.79666456 2327.37374519 961.3408588 2329.83487166 958.88554001 2332.29657364 C957.30317822 2333.87827455 955.72050621 2335.45966518 954.13749313 2337.04071426 C953.05118355 2338.1300602 953.05118355 2338.1300602 951.94292831 2339.24141312 C947.89658826 2343.26946813 943.75727336 2347.12582668 939.4227562 2350.84282303 C937.24937468 2352.73394721 935.23280552 2354.75088265 933.22733688 2356.81805801 C929.9387916 2360.14575264 926.56352064 2363.27142243 923.01249313 2366.31415176 C920.66255604 2368.37486583 918.37700563 2370.49279988 916.09305954 2372.62591934 C910.68808367 2377.67313204 905.17672894 2382.47463309 899.40702438 2387.10712051 C896.59480374 2389.42740752 893.90936426 2391.84876936 891.22733688 2394.31805801 C886.81093544 2398.37789447 882.26570167 2402.21129623 877.59843063 2405.97821426 C875.04958373 2408.0554378 872.53987363 2410.16796892 870.04056931 2412.30389786 C863.38198315 2417.99354424 856.57093112 2423.45384318 849.65214157 2428.82294083 C847.62449751 2430.39793984 845.60141455 2431.97866668 843.57889938 2433.56024551 C838.9719687 2437.15947464 834.35096418 2440.74031694 829.72733688 2444.31805801 C828.8871904 2444.97000137 828.04704391 2445.62194473 827.18143845 2446.29364395 C817.14185865 2454.07290559 807.02005345 2461.62813179 796.48514938 2468.72528458 C790.93241361 2472.46846522 785.49877437 2476.33975625 780.14774704 2480.36615372 C775.533956 2483.81237596 770.76019269 2486.99484145 765.95951462 2490.17425919 C762.74630284 2492.30547851 759.54790081 2494.45736112 756.35233688 2496.61493301 C743.73244651 2505.10936225 731.01486427 2513.30710673 717.8987236 2521.02264786 C714.5925695 2522.99503977 711.35066489 2525.06489829 708.10233688 2527.13055801 C678.94219924 2545.52743789 648.2633779 2561.7658051 617.54581833 2577.39093399 C615.73431632 2578.31449966 613.92529632 2579.24275401 612.11698532 2580.1725502 C593.68388302 2589.64427284 574.95915738 2598.29598836 555.96654892 2606.58588028 C551.70674825 2608.44581221 547.45928995 2610.32976912 543.22343063 2612.24383926 C462.58685862 2648.57270907 376.34148723 2674.89321238 -12.27266312 2723.31805801 C-12.99208084 2723.30945755 -13.71149857 2723.30085709 -14.45271683 2723.291996 C-112.07850423 2722.0531992 -209.64162671 2710.35928682 -332.27266312 2681.31805801 C-333.0830806 2681.11029739 -333.89349808 2680.90253677 -334.72847366 2680.68848038 C-411.83710741 2660.86983929 -486.80731018 2634.26630369 -559.27266312 2601.31805801 C-560.41928421 2600.7969545 -561.5659053 2600.27585098 -562.74727249 2599.73895645 C-591.17899831 2586.76198286 -619.40953418 2573.08683605 -646.66475296 2557.77801895 C-649.49092701 2556.19586947 -652.32836145 2554.63518414 -655.16719437 2553.07587051 C-668.9020483 2545.49977891 -682.35039105 2537.52111616 -695.71797562 2529.32196426 C-699.56814641 2526.96098965 -703.42726388 2524.62295749 -707.32735062 2522.34540176 C-721.70852487 2513.93535834 -735.48451811 2504.63488013 -749.29870987 2495.33433914 C-753.29836494 2492.64158831 -757.30607626 2489.96148499 -761.32147598 2487.29227066 C-767.10186698 2483.44954742 -772.86333435 2479.58784485 -778.52266312 2475.56805801 C-779.21319778 2475.07910049 -779.90373245 2474.59014297 -780.61519241 2474.08636856 C-789.2518287 2467.94546827 -797.76889908 2461.64106583 -806.27266312 2455.31805801 C-806.86450394 2454.87832657 -807.45634476 2454.43859512 -808.06612015 2453.98553848 C-827.29531687 2439.68124627 -846.17989201 2424.92252036 -864.44136429 2409.39960098 C-867.81116407 2406.53938068 -871.21297322 2403.72546259 -874.64766312 2400.94305801 C-884.67631646 2392.76562411 -894.38464749 2384.22836213 -903.85469437 2375.41205215 C-906.5806675 2372.87458614 -909.32434997 2370.37171448 -912.14766312 2367.94305801 C-918.0035913 2362.8695503 -923.60542252 2357.51350399 -929.25166702 2352.20965958 C-931.16127151 2350.42231776 -933.08047519 2348.64602539 -935.00313187 2346.87274551 C-944.68388093 2337.90470476 -954.05886446 2328.63926044 -963.39766312 2319.31805801 C-964.03262711 2318.68568222 -964.66759109 2318.05330643 -965.32179642 2317.40176773 C-977.45151383 2305.31108984 -977.45151383 2305.31108984 -982.88936234 2298.91962051 C-984.89739338 2296.59475577 -987.07268813 2294.46013892 -989.27266312 2292.31805801 C-992.77516622 2288.85236801 -996.09354576 2285.3211501 -999.29610062 2281.57977676 C-1001.89652054 2278.60419745 -1004.58427886 2275.71406496 -1007.27266312 2272.81805801 C-1011.68786032 2268.0519127 -1016.04189064 2263.24957955 -1020.27266312 2258.31805801 C-1020.897939 2257.59030167 -1020.897939 2257.59030167 -1021.53584671 2256.84784317 C-1024.05851085 2253.9113113 -1026.57737969 2250.97158434 -1029.09297562 2248.02899551 C-1031.1623701 2245.60984422 -1033.24043619 2243.19867068 -1035.32735062 2240.79462051 C-1040.71511852 2234.57568181 -1045.94752582 2228.27710647 -1050.98994827 2221.77460098 C-1054.63695129 2217.08448504 -1058.41007657 2212.50957901 -1062.21016312 2207.94305801 C-1068.27519561 2200.62854504 -1074.02440405 2193.12539837 -1079.66719437 2185.4826088 C-1081.39949809 2183.14705453 -1083.14683151 2180.82334663 -1084.89766312 2178.50165176 C-1132.10660081 2115.89730422 -1173.57736355 2049.12325181 -1209.27266312 1979.31805801 C-1209.62755814 1978.62500565 -1209.98245316 1977.93195328 -1210.34810257 1977.21789932 C-1222.4535699 1953.55985241 -1233.87270481 1929.70774349 -1244.4092598 1905.31048965 C-1245.73981576 1902.24003378 -1247.08944904 1899.17808874 -1248.43672562 1896.11493301 C-1274.55488026 1836.39439945 -1295.44398707 1774.25038035 -1312.27266312 1711.31805801 C-1312.51416092 1710.41500931 -1312.75565872 1709.5119606 -1313.00447464 1708.58154678 C-1335.70582434 1623.35242428 -1349.25254851 1535.91492528 -1354.96016312 1447.94305801 C-1355.02119217 1447.00810501 -1355.08222122 1446.07315201 -1355.14509964 1445.1098671 C-1356.90460561 1417.74912542 -1357.48154464 1390.4143011 -1357.46016312 1363.00555801 C-1357.45989624 1362.23390808 -1357.45962936 1361.46225815 -1357.4593544 1360.66722488 C-1357.44761819 1333.51016038 -1357.01022328 1306.42757805 -1355.27266312 1279.31805801 C-1355.17791702 1277.83248398 -1355.17791702 1277.83248398 -1355.08125687 1276.31689835 C-1348.80995448 1179.348038 -1332.70522295 1083.39478241 -1241.27266312 810.31805801 C-1240.96669205 809.62148087 -1240.66072098 808.92490372 -1240.34547806 808.20721817 C-1231.76433083 788.71299681 -1222.5341195 769.5619755 -1213.02266312 750.50555801 C-1212.52686752 749.51029099 -1212.03107193 748.51502396 -1211.52025223 747.48959732 C-1204.41694789 733.25544905 -1196.97964839 719.23398127 -1189.27266312 705.31805801 C-1188.56864705 704.04246589 -1187.86469954 702.76683592 -1187.16084671 701.49115372 C-1180.8024921 690.0043452 -1174.38259474 678.56282742 -1167.5231514 667.36688614 C-1166.06402242 664.97621641 -1164.6195223 662.57696031 -1163.17500687 660.17743301 C-1129.57912673 604.48548501 -1091.88873216 551.48522879 -1050.74483109 501.12225723 C-1049.44994801 499.53532756 -1048.15975833 497.94457065 -1046.87031937 496.35321426 C-1041.30792376 489.50332022 -1035.58120817 482.80400319 -1029.82100296 476.12079239 C-1028.29425621 474.34319889 -1026.77624604 472.55853787 -1025.26094437 470.77118301 C-1019.82007543 464.36342336 -1014.29090098 458.06724071 -1008.54414749 451.93109512 C-1005.93476473 449.14183425 -1003.38379003 446.31446135 -1000.87813187 443.43133926 C-997.30601117 439.32967205 -993.6237049 435.3423763 -989.89766312 431.38055801 C-989.24281937 430.68253067 -988.58797562 429.98450333 -987.91328812 429.26532364 C-983.82589209 424.9234751 -979.68579474 420.65075191 -975.39766312 416.50555801 C-973.57456314 414.62883745 -971.87799253 412.71223389 -970.17500687 410.72821426 C-965.63283398 405.5010241 -960.74027115 400.63974874 -955.83516312 395.75555801 C-954.93217484 394.84870255 -954.02918655 393.94184708 -953.09883499 393.00751114 C-948.55796747 388.47321982 -943.95838459 384.09435451 -939.08882523 379.9159584 C-936.17693871 377.35401496 -933.48208731 374.59060874 -930.77266312 371.81805801 C-926.80106201 367.80164095 -922.80303986 363.91391937 -918.49531937 360.25555801 C-915.35268535 357.51610903 -912.31915875 354.66355433 -909.27266312 351.81805801 C-904.34663496 347.22700235 -899.38988886 342.69633419 -894.27266312 338.31805801 C-893.23871633 337.43014502 -892.20487179 336.54211296 -891.17110062 335.65399551 C-888.78115657 333.60219055 -886.38894829 331.55306266 -883.99531937 329.50555801 C-881.54102607 327.40573801 -879.09061932 325.30153164 -876.64375687 323.19305801 C-869.60224107 317.12942358 -862.49016635 311.17214914 -855.27266312 305.31805801 C-854.04691258 304.31084168 -852.8216862 303.30298725 -851.59688187 302.29462051 C-844.32762247 296.32549545 -836.97407463 290.51625322 -829.41890335 284.91302872 C-824.26492237 281.08534303 -819.19929907 277.15452816 -814.14766312 273.19305801 C-807.24460714 267.79521819 -800.23876543 262.59697967 -793.06074905 257.57196426 C-791.18149221 256.25412386 -789.30857013 254.92765345 -787.43672562 253.59930801 C-783.86256895 251.06442674 -780.28033576 248.54123705 -776.6950264 246.02215958 C-775.02008683 244.84386103 -773.34668143 243.66337974 -771.67451859 242.48114395 C-757.75438703 232.64428433 -743.60524807 223.25409332 -729.1896553 214.15936661 C-726.4554326 212.43342858 -723.72640738 210.69962459 -720.99922562 208.96258926 C-711.51210115 202.92831609 -701.96078497 197.0239325 -692.27266312 191.31805801 C-691.42139847 190.81580704 -690.57013382 190.31355606 -689.69307327 189.79608536 C-667.13881764 176.50833726 -644.36757133 163.74822468 -621.08711624 151.77606583 C-617.82629316 150.08681917 -614.58880337 148.35686172 -611.3524971 146.62128067 C-535.15646533 105.90352524 -452.32033837 74.70830546 -109.58516312 4.13055801 C-108.18225021 4.01220093 -108.18225021 4.01220093 -106.75099564 3.89145279 C-99.59604618 3.29529913 -92.43712979 2.78541489 -85.27266312 2.31805801 C-84.61664486 2.27480267 -83.9606266 2.23154732 -83.284729 2.1869812 C-55.52297275 0.36991773 -27.81610795 -0.04776332 0 0 Z M-73.27266312 161.31805801 C-74.18143204 161.38122208 -75.09020096 161.44438614 -76.02650833 161.50946426 C-173.07086535 168.26714526 -268.41766864 186.42955395 -494.39491653 267.45080948 C-496.36636888 268.36133658 -498.3392495 269.26872255 -500.3122139 270.17596817 C-528.0864587 282.96671747 -555.27184223 296.65062521 -581.78535843 311.90106583 C-584.78284862 313.60870551 -587.80811109 315.26106577 -590.8380928 316.91009903 C-610.15800633 327.45247706 -628.93382337 339.15909492 -647.27266312 351.31805801 C-648.26588577 351.97386856 -649.25910843 352.62967911 -650.28242874 353.3053627 C-692.46117228 381.17213117 -733.19418486 411.06479273 -771.63985062 443.92352676 C-773.35860015 445.391454 -775.08115308 446.85484043 -776.80391312 448.31805801 C-783.25012838 453.80486915 -789.59610982 459.37324678 -795.83516312 465.09540176 C-797.91539037 466.99227565 -800.01823209 468.85198744 -802.14766312 470.69305801 C-810.14087824 477.65011562 -817.91721997 484.85781348 -825.34126663 492.41913223 C-827.05820743 494.10720777 -828.81415066 495.65977053 -830.65547562 497.20868301 C-836.37510831 502.18178922 -841.6801509 507.57627247 -847.02730179 512.94232559 C-848.83128397 514.75166734 -850.64054976 516.55560121 -852.45039749 518.35907364 C-857.7733448 523.67927334 -863.02204974 528.99934115 -867.90523148 534.73236465 C-869.75315582 536.87524425 -871.74255772 538.84855278 -873.77266312 540.81805801 C-877.10035775 544.1066033 -880.22602753 547.48187425 -883.26875687 551.03290176 C-885.32954709 553.3829257 -887.44755814 555.66856017 -889.58076859 557.9525795 C-894.64843505 563.37951494 -899.47577636 568.91238459 -904.12813187 574.70477676 C-906.27141267 577.31653425 -908.49646642 579.82171103 -910.77266312 582.31805801 C-914.56307812 586.48686212 -918.16045733 590.772908 -921.70235062 595.15399551 C-923.62446772 597.53090612 -925.5723158 599.88481744 -927.53047562 602.23212051 C-933.79866864 609.75814199 -939.90703148 617.35491161 -945.73286819 625.22919083 C-948.91902765 629.53216473 -952.17432894 633.77089777 -955.48360062 637.97992325 C-962.1913224 646.51194764 -968.56773445 655.21417481 -974.7497139 664.13299942 C-976.28369251 666.33388248 -977.83601453 668.52066108 -979.39375687 670.70477676 C-1026.30403841 736.69055028 -1066.22589639 808.0239026 -1098.39174271 882.29059219 C-1099.22910324 884.2178036 -1100.07264588 886.14213218 -1100.91963577 888.06512833 C-1114.20682754 918.23266793 -1125.64259859 949.12460512 -1136.27266312 980.31805801 C-1136.50449295 980.99809891 -1136.73632278 981.6781398 -1136.97517776 982.37878799 C-1165.52536746 1066.36188157 -1183.65969631 1154.12816202 -1198.27266312 1374.31805801 C-1198.26406265 1374.96488541 -1198.25546219 1375.6117128 -1198.2466011 1376.27814102 C-1196.98491017 1468.66894898 -1185.29562667 1560.67971214 -1156.27266312 1676.31805801 C-1155.99706558 1677.34337631 -1155.99706558 1677.34337631 -1155.71590042 1678.38940811 C-1136.00311571 1751.60490739 -1108.6638706 1822.39892755 -1075.21529007 1890.40027237 C-1074.24354694 1892.37729521 -1073.27455398 1894.35564981 -1072.30586624 1896.3341713 C-1064.29599055 1912.67633736 -1056.00676057 1928.75047517 -1046.88350296 1944.50653458 C-1045.19903281 1947.44657069 -1043.55355961 1950.40568372 -1041.91719437 1953.37274551 C-1026.02234112 1982.18273179 -1008.60787837 2010.35066734 -989.69600296 2037.28680801 C-988.11591898 2039.54174776 -986.5475654 2041.80461087 -984.97969437 2044.06805801 C-966.11254117 2071.24712867 -946.38311024 2098.07036661 -924.88594437 2123.23993301 C-922.49384042 2126.04513121 -920.1581046 2128.89268959 -917.83516312 2131.75555801 C-909.99549034 2141.37315658 -901.88165072 2150.73666582 -893.49531937 2159.88055801 C-891.59844548 2161.96078527 -889.73873369 2164.06362699 -887.89766312 2166.19305801 C-883.39178332 2171.36958038 -878.71295206 2176.38635498 -874.04201126 2181.41327286 C-872.89604536 2182.64695818 -871.75077705 2183.881292 -870.60634232 2185.11639786 C-861.56017321 2194.87229707 -852.33078026 2204.41932717 -842.90864944 2213.81244278 C-840.80809208 2215.90755893 -838.71304438 2218.00808111 -836.61836624 2220.10907364 C-835.25475501 2221.47202514 -833.89083419 2222.83466699 -832.52656937 2224.19696426 C-831.91495453 2224.81060333 -831.30333969 2225.4242424 -830.67319107 2226.05647659 C-826.90565012 2229.80394485 -823.01572149 2233.35765063 -818.98736954 2236.82353592 C-816.98592877 2238.56797299 -815.11643431 2240.40843785 -813.27266312 2242.31805801 C-810.14420348 2245.488958 -806.90410959 2248.44375762 -803.52656937 2251.34540176 C-801.31282026 2253.28291182 -799.15024064 2255.26950192 -796.99385452 2257.27045059 C-791.78729113 2262.09990696 -786.45530899 2266.68246062 -780.92110062 2271.13837051 C-778.29991193 2273.295632 -775.78112031 2275.53116802 -773.27266312 2277.81805801 C-768.09762135 2282.52264144 -762.7119875 2286.92423191 -757.27266312 2291.31805801 C-756.00644809 2292.35249245 -754.74085969 2293.38769424 -753.47578812 2294.42352676 C-745.81348647 2300.69015181 -738.09371263 2306.85327799 -730.2106514 2312.84100723 C-727.93260283 2314.57723724 -725.66331149 2316.32464656 -723.39375687 2318.07196426 C-713.19699002 2325.90587077 -702.90162949 2333.5368687 -692.34199905 2340.87372208 C-690.20926997 2342.36230458 -688.08733621 2343.86519853 -685.96797562 2345.37274551 C-676.84563284 2351.86045435 -667.63285367 2358.17884148 -658.27266312 2364.31805801 C-657.52677933 2364.80886856 -656.78089554 2365.29967911 -656.01240921 2365.8053627 C-598.93955438 2403.32407333 -538.95558124 2436.22166409 -476.31251907 2463.4293251 C-474.40222545 2464.26160976 -472.49470742 2465.09981514 -470.58858109 2465.94159317 C-387.79981007 2502.49538789 -300.27939898 2528.08041396 -79.83516312 2561.06805801 C-79.0059938 2561.12731461 -78.17682449 2561.1865712 -77.32252884 2561.24762344 C-71.64147025 2561.64644904 -65.95839798 2561.99340979 -60.27266312 2562.31805801 C-59.4698793 2562.36644821 -58.66709549 2562.41483841 -57.83998489 2562.46469498 C-39.31364257 2563.55411716 -20.76972793 2563.505505 -2.2184639 2563.50336075 C1.38347593 2563.50328014 4.98528678 2563.51013242 8.58720016 2563.52386856 C41.72133234 2563.64803414 74.71197785 2562.46774879 107.72733688 2559.56805801 C108.68128342 2559.48568893 109.63522995 2559.40331985 110.61808395 2559.31845474 C205.83677865 2551.01851775 299.91547422 2531.12883933 396.68082809 2498.02258682 C398.68098444 2497.33401525 400.68284465 2496.65065894 402.6853447 2495.96893692 C424.36825397 2488.57629168 445.59643729 2480.15805004 466.72733688 2471.31805801 C467.73890854 2470.89493332 467.73890854 2470.89493332 468.77091599 2470.46326065 C508.31925576 2453.8861049 547.35438544 2435.3635811 584.72733688 2414.31805801 C585.78275681 2413.72589493 586.83817673 2413.13373184 587.92557907 2412.52362442 C612.69371052 2398.59735161 637.03781018 2384.01907766 660.72733688 2368.31805801 C662.19986376 2367.34911137 663.67251869 2366.38035931 665.14530563 2365.41180801 C699.30391508 2342.87099838 732.98412155 2318.83345273 764.12040329 2292.22650528 C767.23408803 2289.56775127 770.38519945 2286.97535926 773.60233688 2284.44305801 C783.24646706 2276.79372349 792.4307905 2268.54785744 801.54764938 2260.28290176 C803.52573208 2258.49979138 805.52589488 2256.74791033 807.53983688 2255.00555801 C812.73692377 2250.47237045 817.77986256 2245.77259707 822.83120346 2241.07875443 C824.05098258 2239.94610169 825.27166408 2238.81441956 826.49346542 2237.68394852 C836.85984207 2228.08799434 846.95595416 2218.2468465 856.93070602 2208.24505997 C859.31553944 2205.85479694 861.70576794 2203.47002044 864.09647751 2201.08563614 C865.6417206 2199.53973319 867.18665398 2197.99352059 868.73124313 2196.44696426 C869.43237732 2195.74785431 870.13351151 2195.04874435 870.85589218 2194.32844925 C874.79658054 2190.36918155 878.5545189 2186.30587235 882.20425034 2182.07695389 C883.97340716 2180.03389032 885.8024039 2178.05751162 887.66483688 2176.09930801 C888.33257126 2175.39419083 889.00030563 2174.68907364 889.68827438 2173.96258926 C891.04764938 2172.53290176 892.40702438 2171.10321426 893.76639938 2169.67352676 C898.20556256 2164.98583901 902.51498073 2160.21039619 906.72733688 2155.31805801 C907.21508591 2154.75248184 907.70283493 2154.18690567 908.20536423 2153.60419083 C909.6113979 2151.9695853 911.01386071 2150.33199962 912.41483688 2148.69305801 C915.52757329 2145.05176232 918.64169144 2141.41217083 921.78202438 2137.79462051 C927.19084731 2131.55151382 932.44869798 2125.22901485 937.51493454 2118.70428848 C940.46314453 2114.91042711 943.46713003 2111.16973588 946.51444626 2107.4550209 C952.95092972 2099.60841437 959.13042008 2091.60712143 965.15751266 2083.44256973 C966.79895682 2081.22113162 968.4483436 2079.00573837 970.09843063 2076.79071426 C1013.68098477 2018.15225742 1051.19148136 1955.67749936 1083.73652267 1890.30679703 C1084.6796372 1888.41379971 1085.62547604 1886.52218689 1086.57181931 1884.63080215 C1104.466831 1848.79935094 1119.90689789 1811.90021937 1133.72733688 1774.31805801 C1134.02126328 1773.51877884 1134.31518967 1772.71949966 1134.61802292 1771.89599991 C1165.70593546 1687.10050125 1186.46031344 1598.88990624 1197.72733688 1509.31805801 C1197.82681625 1508.52739944 1197.92629562 1507.73674088 1198.02878952 1506.92212296 C1209.6781226 1413.6665436 1209.85046401 1318.73622853 1106.62144089 881.33484268 C1105.74435401 879.35644267 1104.87412118 877.37517717 1104.00614548 875.39276505 C1096.04930834 857.24091833 1087.43565971 839.43358018 1078.60233688 821.69305801 C1078.10903885 820.69851608 1077.61574081 819.70397415 1077.10749435 818.67929459 C1070.21171849 804.8023227 1062.86314692 791.25045993 1055.14759445 777.81302261 C1053.3787301 774.70566094 1051.65395323 771.57563367 1049.94135666 768.43698502 C1014.44099007 703.43803723 970.21028521 642.21570432 922.12186813 585.95087051 C920.6539409 584.23212098 919.19055447 582.50956805 917.72733688 580.78680801 C912.24052574 574.34059276 906.67214812 567.99461131 900.94999313 561.75555801 C899.05311925 559.67533076 897.19340746 557.57248904 895.35233688 555.44305801 C890.82316213 550.24133758 886.12620023 545.1947558 881.42704391 540.14715958 C879.73950667 538.33115426 878.0596127 536.5082847 876.37968063 534.68524551 C867.53917322 525.14524278 858.41405004 515.8977931 849.22733688 506.69305801 C848.61906052 506.08219345 848.01078415 505.47132889 847.38407516 504.84195328 C841.50798751 498.94613989 835.65593231 493.08933803 829.31522751 487.68768692 C827.17176669 485.83885309 825.19756744 483.84891105 823.22733688 481.81805801 C819.9174699 478.46872073 816.51986739 475.31879845 812.94608688 472.25555801 C810.74333733 470.33203024 808.59419988 468.35700687 806.45072556 466.3678627 C801.24366513 461.53740576 795.91078849 456.95430415 790.37577438 452.49774551 C787.7545857 450.34048403 785.23579408 448.10494801 782.72733688 445.81805801 C777.55534607 441.11179149 772.16386284 436.71322126 766.72733688 432.31805801 C764.95605116 430.86027419 763.18522054 429.40193721 761.41483688 427.94305801 C754.92813161 422.63743137 748.33838668 417.46724619 741.72733688 412.31805801 C740.18626266 411.1153627 740.18626266 411.1153627 738.61405563 409.88837051 C729.88531655 403.12276589 721.00493244 396.5678317 712.09012985 390.04999161 C709.94368904 388.47664472 707.8052874 386.89308018 705.66874313 385.30633926 C690.98646825 374.4755327 675.69782156 364.51028817 660.4712944 354.46832657 C658.96209981 353.47290147 657.45376929 352.47616657 655.9455986 351.47919083 C586.29005228 305.51211092 510.85958718 267.64946205 313.72733688 199.31805801 C312.88872116 199.09331802 312.05010544 198.86857803 311.18607712 198.63702774 C236.04045996 178.54210877 159.25272502 166.80785051 81.72733688 161.31805801 C80.87168137 161.25640457 80.01602585 161.19475113 79.13444138 161.1312294 C28.6977238 157.53038115 -22.84398249 157.71592386 -73.27266312 161.31805801 Z " fill="#FFFFFF" transform="translate(1623.272663116455,230.68194198608398)"></path>
<path d="M0 0 C18.79611463 16.16218928 27.07578645 36.36370568 30.7734375 60.3984375 C30.7734375 278.1984375 30.7734375 495.9984375 30.7734375 720.3984375 C536.0034375 720.3984375 1041.2334375 720.3984375 1561.7734375 720.3984375 C1561.7734375 620.7384375 1561.7734375 521.0784375 1561.7734375 418.3984375 C1566.42708162 397.45703894 1566.42708162 397.45703894 1569.4609375 391.5234375 C1569.97466919 390.48195557 1569.97466919 390.48195557 1570.4987793 389.41943359 C1581.01223464 368.82057583 1599.13902395 353.31581465 1620.7734375 345.3984375 C1644.35552143 337.7563666 1668.44791232 340.25517828 1690.6796875 350.7734375 C1710.7111809 361.12679364 1726.06576575 379.20654111 1733.49804688 400.47167969 C1736.1705389 409.077104 1737.89673205 417.73060988 1737.901088 426.76376146 C1737.90410397 428.0081317 1737.90711994 429.25250195 1737.9102273 430.53458038 C1737.90852858 431.90505971 1737.90673786 433.27553893 1737.90486526 434.64601803 C1737.90651601 436.11600314 1737.90860279 437.58598782 1737.91108537 439.05597177 C1737.91664751 443.10491977 1737.91598043 447.15384661 1737.91430778 451.20279721 C1737.91357657 455.60432722 1737.91859987 460.00585127 1737.9228828 464.40737873 C1737.93046347 473.14160844 1737.93265589 481.87583204 1737.93321185 490.61006469 C1737.93412543 501.07030211 1737.94079279 511.53053387 1737.94755867 521.99076886 C1737.96362184 547.27385788 1737.96952233 572.5569463 1737.97430742 597.84003951 C1737.97664307 609.80004228 1737.98024569 621.76004458 1737.9840028 633.72004698 C1737.99683864 674.65822766 1738.00755776 715.59640807 1738.0110054 756.53459072 C1738.01122703 759.10466631 1738.01144882 761.67474191 1738.01167075 764.2448175 C1738.01189139 766.82111166 1738.01211188 769.39740582 1738.0123322 771.97369999 C1738.01277475 777.14221601 1738.01322187 782.31073203 1738.01367188 787.47924805 C1738.01378127 788.76074041 1738.01389066 790.04223278 1738.01400336 791.36255825 C1738.01763404 832.91550459 1738.03355432 874.46843348 1738.05686224 916.02137313 C1738.08145808 959.95070721 1738.09517813 1003.88003132 1738.09637332 1047.80937248 C1738.09654477 1052.63173012 1738.0967602 1057.45408775 1738.09700775 1062.27644539 C1738.09706352 1063.46385053 1738.09711929 1064.65125567 1738.09717675 1065.87464279 C1738.09832741 1084.98382617 1738.10935077 1104.09299164 1738.12389481 1123.20216897 C1738.13826098 1142.4097951 1738.1414961 1161.61739827 1738.13345483 1180.82502829 C1738.12899914 1192.23503714 1738.13285681 1203.6449719 1738.14869334 1215.05497101 C1738.15844808 1222.68073512 1738.15726032 1230.30644736 1738.14725711 1237.932211 C1738.14186869 1242.27449487 1738.14114331 1246.61663656 1738.15376583 1250.95890861 C1738.16517722 1254.91769533 1738.16250175 1258.87622533 1738.14909875 1262.83500353 C1738.14668478 1264.25008191 1738.14917699 1265.66518056 1738.15749523 1267.08023656 C1738.29643458 1292.40269275 1730.5355857 1315.25424589 1712.61328125 1333.6171875 C1694.42661674 1351.42861134 1673.00922608 1359.65886198 1647.61108398 1359.6472168 C1622.35863811 1359.3280887 1600.63154961 1348.06882166 1583.22265625 1330.22265625 C1481.16548243 1212.53950366 1561.7734375 1019.17067871 1561.7734375 863.3984375 C1056.5434375 863.3984375 551.3134375 863.3984375 30.7734375 863.3984375 C30.7734375 1000.3484375 30.7734375 1137.2984375 30.7734375 1278.3984375 C25.87228945 1306.17160979 16.33797916 1327.71263549 -6.93359375 1344.30078125 C-28.0482927 1357.7510699 -52.5878385 1363.19543354 -77.3515625 1357.9609375 C-91.38275927 1354.65404274 -104.56123917 1348.08852699 -115.2265625 1338.3984375 C-116.04769531 1337.76421875 -116.86882813 1337.13 -117.71484375 1336.4765625 C-133.09718976 1323.74964481 -142.69336146 1302.91919233 -145.2265625 1283.3984375 C-145.75189539 1276.46221592 -145.63207877 1269.49612818 -145.60687923 1262.5451231 C-145.61031639 1260.4396827 -145.61506564 1258.33424411 -145.6210002 1256.22880927 C-145.63349289 1250.4480863 -145.62736739 1244.66751118 -145.61816652 1238.88678758 C-145.61145331 1232.5958398 -145.62212458 1226.30491735 -145.63056237 1220.01397496 C-145.64293643 1208.98974942 -145.6442409 1197.96557421 -145.63801193 1186.94134521 C-145.63137841 1175.1158694 -145.63126646 1163.29042024 -145.63905907 1151.46494484 C-145.63954707 1150.71724397 -145.64003506 1149.96954309 -145.64053785 1149.19918461 C-145.64254609 1146.15376708 -145.64459921 1143.10834957 -145.64670959 1140.0629321 C-145.6680975 1109.16618507 -145.67016634 1078.26945776 -145.66465255 1047.37270519 C-145.66389682 1043.1050813 -145.6631692 1038.83745741 -145.66247058 1034.56983352 C-145.66233149 1033.72215658 -145.6621924 1032.87447964 -145.66204909 1032.00111553 C-145.65909572 1013.20813503 -145.66211066 994.41515691 -145.66636687 975.62217684 C-145.66694902 973.0494874 -145.66751787 970.47679794 -145.6680825 967.90410849 C-145.66959748 961.00744668 -145.67112439 954.11078487 -145.67267551 947.21412307 C-145.68343096 899.07456528 -145.68813537 850.93500968 -145.68020535 802.79545116 C-145.68005704 801.8881819 -145.67990873 800.98091264 -145.67975593 800.04615037 C-145.67809696 789.92931457 -145.67634738 779.8124788 -145.67456292 769.69564303 C-145.6744019 768.78225531 -145.67424087 767.86886759 -145.67407497 766.92780145 C-145.67276731 759.51559787 -145.67276731 759.51559787 -145.67211378 755.84637545 C-145.66172213 697.42092837 -145.66948959 638.99551141 -145.69311523 580.57006836 C-145.69905871 565.84779713 -145.7049503 551.12552588 -145.71052456 536.40325451 C-145.71086833 535.49672848 -145.7112121 534.59020245 -145.71156629 533.65620594 C-145.72209478 505.71427919 -145.72768769 477.77235495 -145.7280817 449.83042622 C-145.72809449 448.95310946 -145.72810727 448.0757927 -145.72812044 447.17189059 C-145.72834874 427.91233246 -145.72734257 408.65277455 -145.72521138 389.39321654 C-145.72445663 382.50179046 -145.72377842 375.61036437 -145.72313123 368.71893828 C-145.72296854 367.00455397 -145.72280088 365.29016965 -145.72262822 363.57578534 C-145.71990785 336.26709673 -145.72845778 308.95842642 -145.74248232 281.64974175 C-145.75689436 253.37924003 -145.75643433 225.10877308 -145.7391076 196.83827253 C-145.73730345 193.80089284 -145.73556326 190.76351311 -145.73387337 187.72613335 C-145.73345287 186.98071881 -145.73303237 186.23530427 -145.73259912 185.46730141 C-145.72630749 173.67622165 -145.73339596 161.88518978 -145.74608257 150.09411677 C-145.75828124 138.49292366 -145.75580293 126.8918214 -145.73886225 115.2906321 C-145.73021174 109.08785133 -145.72785182 102.8852456 -145.74313157 96.68247368 C-145.75691362 91.03440827 -145.75213454 85.38666772 -145.73284638 79.73862121 C-145.72912515 77.71317773 -145.73202907 75.6877078 -145.74255947 73.66228828 C-145.87175482 46.96293444 -138.99933984 25.05066026 -120.2265625 5.3984375 C-119.68644531 4.78355469 -119.14632812 4.16867187 -118.58984375 3.53515625 C-88.0546961 -29.92275113 -32.99698084 -27.18466862 0 0 Z " fill="#FFFFFF" transform="translate(817.2265625,931.6015625)"></path>
<path d="M0 0 C7.17336804 5.67668917 13.72916298 12.12540821 20.3515625 18.42578125 C23.60581059 21.5052991 26.94950431 24.46399759 30.33325195 27.39990234 C33.19083565 29.90115429 35.96833437 32.48507266 38.74609375 35.07421875 C42.2081111 38.28668565 45.67262183 41.4852854 49.24609375 44.57421875 C53.41175536 48.17504489 57.43209423 51.92812849 61.46875 55.671875 C64.35990992 58.34837804 67.26507507 60.99740599 70.24609375 63.57421875 C74.41175536 67.17504489 78.43209423 70.92812849 82.46875 74.671875 C85.35990992 77.34837804 88.26507507 79.99740599 91.24609375 82.57421875 C95.41175536 86.17504489 99.43209423 89.92812849 103.46875 93.671875 C106.35990992 96.34837804 109.26507507 98.99740599 112.24609375 101.57421875 C116.41175536 105.17504489 120.43209423 108.92812849 124.46875 112.671875 C127.35990992 115.34837804 130.26507507 117.99740599 133.24609375 120.57421875 C136.81961161 123.66319182 140.28320489 126.86264088 143.74609375 130.07421875 C147.83178106 133.86306032 151.95002744 137.59593822 156.1640625 141.2421875 C159.38101168 144.07286136 162.52580055 146.98188891 165.67944336 149.88256836 C169.69573524 153.57517986 173.73962891 157.23562167 177.80078125 160.87890625 C179.49666967 162.40141311 181.18914742 163.9277243 182.87890625 165.45703125 C183.74257812 166.23820312 184.60625 167.019375 185.49609375 167.82421875 C186.32496094 168.57574219 187.15382813 169.32726563 188.0078125 170.1015625 C190.32909824 172.1974619 190.32909824 172.1974619 193.30859375 174.38671875 C204.87729382 184.9708486 213.36551608 200.77906833 214.41015625 216.55126953 C215.23841979 235.95679417 212.30309747 253.98620389 199.21313477 269.11083984 C186.23661189 283.20840076 170.07451149 292.12412926 150.78515625 293.45703125 C128.97970514 294.32210305 111.42604615 286.36578148 95.49707031 271.75952148 C93.25836518 269.69075854 91.03264321 267.60828977 88.80664062 265.52587891 C85.00287816 261.98752289 81.1165185 258.53923076 77.24609375 255.07421875 C71.84271517 250.22950936 66.46244952 245.362128 61.12109375 240.44921875 C57.88392159 237.47203594 54.63471646 234.51469019 51.30859375 231.63671875 C47.12499518 228.01209786 43.08174765 224.24036808 39.02368164 220.47680664 C36.13245247 217.80020837 33.22719971 215.15110696 30.24609375 212.57421875 C26.08043214 208.97339261 22.06009327 205.22030901 18.0234375 201.4765625 C15.13227758 198.80005946 12.22711243 196.15103151 9.24609375 193.57421875 C5.08043214 189.97339261 1.06009327 186.22030901 -2.9765625 182.4765625 C-5.86772242 179.80005946 -8.77288757 177.15103151 -11.75390625 174.57421875 C-15.91956786 170.97339261 -19.93990673 167.22030901 -23.9765625 163.4765625 C-26.86772242 160.80005946 -29.77288757 158.15103151 -32.75390625 155.57421875 C-36.91956786 151.97339261 -40.93990673 148.22030901 -44.9765625 144.4765625 C-47.86772242 141.80005946 -50.77288757 139.15103151 -53.75390625 136.57421875 C-57.32742411 133.48524568 -60.79101739 130.28579662 -64.25390625 127.07421875 C-67.73836778 123.84292088 -71.22432133 120.62385913 -74.81640625 117.51171875 C-80.23238025 112.80716506 -85.54293191 108.00410319 -90.75390625 103.07421875 C-91.76517578 102.12289063 -91.76517578 102.12289063 -92.796875 101.15234375 C-104.57475074 88.9701931 -110.16375361 70.24047626 -109.90625 53.6171875 C-108.78725851 34.93863724 -101.95178293 19.31623549 -88.75390625 6.07421875 C-88.06554687 5.36265625 -87.3771875 4.65109375 -86.66796875 3.91796875 C-63.30055568 -18.66763496 -25.65776983 -17.94224188 0 0 Z " fill="#FFFFFF" transform="translate(1092.75390625,1273.92578125)"></path>
</svg>