<?xml version="1.0"?>
<svg version="1.1" xmlns="http://www.w3.org/2000/svg" width="3244" height="3197">
<path d="M0 0 C2.18082432 0.17337132 4.3616512 0.34671046 6.54248047 0.52001953 C113.41349679 9.14747634 218.70324656 30.45494117 457 117 C457.93117645 117.4209494 457.93117645 117.4209494 458.88116455 117.85040283 C489.23591546 131.58281901 519.41175564 146.20254461 548.44335938 162.56347656 C551.2823467 164.15864476 554.13275366 165.73222202 556.984375 167.3046875 C571.86218985 175.53457468 586.4880624 184.14237522 601 193 C602.3924292 193.84908936 602.3924292 193.84908936 603.81298828 194.71533203 C616.69000128 202.58474607 629.39738626 210.69879582 642 219 C642.68288086 219.44972168 643.36576172 219.89944336 644.06933594 220.36279297 C669.64341639 237.23964117 694.75716957 254.87236354 718.97265625 273.65234375 C721.54191122 275.64475954 724.12382768 277.61927418 726.71020508 279.58935547 C733.68116775 284.9107821 740.49029428 290.42020251 747.28125 295.96875 C750.23111391 298.37849799 753.20180078 300.75970581 756.1875 303.125 C765.82577798 310.81631365 775.1233017 318.93869672 784.47265625 326.9765625 C786.78365445 328.96178964 789.10400342 330.93506807 791.43359375 332.8984375 C799.28786537 339.53723352 806.83102552 346.45171908 814.30078125 353.51953125 C817.30219184 356.35610465 820.34990885 359.13207019 823.4375 361.875 C827.31377815 365.32923782 830.98813963 368.9363812 834.6015625 372.6640625 C836.57881275 374.58978831 838.58778612 376.3860877 840.67895508 378.18334961 C844.79192232 381.77179453 848.68276712 385.53770711 852.53515625 389.40234375 C853.55868446 390.42443687 853.55868446 390.42443687 854.60289001 391.46717834 C856.03344437 392.89705741 857.46275767 394.32817911 858.89086914 395.76049805 C861.05699074 397.93197711 863.22840174 400.09806325 865.40039062 402.26367188 C866.79979987 403.66374202 868.19889884 405.06412238 869.59765625 406.46484375 C870.23639175 407.10155502 870.87512726 407.7382663 871.53321838 408.39427185 C875.33905058 412.21963249 878.95699907 416.15841024 882.47264099 420.25245667 C884.53934387 422.61709577 886.75062016 424.80981437 889 427 C892.5025031 430.46569 895.82088264 433.99690792 899.0234375 437.73828125 C901.62385742 440.71386057 904.31161574 443.60399305 907 446.5 C911.41522176 451.26617182 915.76850046 456.06907905 920 461 C920.42216797 461.49048828 920.84433594 461.98097656 921.27929688 462.48632812 C930.8169419 473.5677895 940.34244306 484.66283104 949.56640625 496.0078125 C951.37996324 498.2376434 953.20059399 500.4607188 955.02734375 502.6796875 C961.54842677 510.62240981 967.84820187 518.6895415 973.97265625 526.94140625 C976.54755323 530.40783931 979.16904141 533.83591587 981.80493164 537.25610352 C989.07524186 546.69217685 996.09722 556.29245131 1003 566 C1003.40630646 566.56886932 1003.81261292 567.13773865 1004.23123169 567.72384644 C1012.65193247 579.52055451 1020.78484517 591.49553789 1028.8125 603.5625 C1029.42661743 604.48475372 1030.04073486 605.40700745 1030.67346191 606.35720825 C1040.03180149 620.42102217 1049.27817343 634.5295844 1058 649 C1058.64291992 650.06637695 1059.28583984 651.13275391 1059.94824219 652.23144531 C1106.19542154 729.19223159 1145.24053456 809.82947321 1214 1018 C1214.21958374 1018.83990479 1214.43916748 1019.67980957 1214.66540527 1020.54516602 C1235.89383012 1101.92677445 1248.27461966 1185.56124847 1253.6875 1269.4375 C1253.77890762 1270.84538284 1253.77890762 1270.84538284 1253.87216187 1272.28170776 C1255.63345829 1299.79132185 1256.20794783 1327.255249 1256.1875 1354.8125 C1256.18723312 1355.62202747 1256.18696625 1356.43155495 1256.18669128 1357.26561356 C1256.17543598 1384.55297264 1255.80151716 1411.76301455 1254 1439 C1253.93447937 1439.9965863 1253.86895874 1440.99317261 1253.80145264 1442.0199585 C1248.41159623 1523.05110079 1236.38362098 1603.11578231 1217 1682 C1216.8130658 1682.7651593 1216.62613159 1683.5303186 1216.43353271 1684.31866455 C1196.62595463 1765.38264766 1168.64793539 1844.12201947 1134 1920 C1133.40558878 1921.30565943 1132.81118752 1922.61132339 1132.21679688 1923.91699219 C1119.95566161 1950.80159642 1106.97522034 1977.4080281 1092.55712891 2003.20654297 C1090.82164366 2006.31996758 1089.10364523 2009.44271066 1087.38671875 2012.56640625 C1080.03276316 2025.91951692 1072.53660178 2039.17129966 1064.66894531 2052.22900391 C1063.55228413 2054.08302737 1062.43967775 2055.93949878 1061.33105469 2057.79833984 C1035.03349997 2101.8298866 1005.55267819 2144.56355805 974 2185 C973.36529785 2185.81597656 973.36529785 2185.81597656 972.71777344 2186.6484375 C965.75647122 2195.5935305 958.64722023 2204.41353213 951.4765625 2213.19140625 C950.16952459 2214.7923548 948.86576644 2216.39597976 947.5625 2218 C942.27280435 2224.49876894 936.88730369 2230.91179078 931.45458984 2237.29101562 C930.47460698 2238.44238858 929.49578855 2239.59475354 928.51806641 2240.74804688 C922.29837437 2248.08440569 915.9691244 2255.28759093 909.4375 2262.34765625 C907.48256122 2264.47490534 905.57117955 2266.62272252 903.6875 2268.8125 C899.24933748 2273.92534756 894.59294932 2278.83738582 889.95996094 2283.77294922 C887.50481138 2286.3905416 885.05643752 2289.01405592 882.61694336 2291.64624023 C873.72422363 2301.22111447 864.60688431 2310.54928502 855.35424805 2319.77612305 C853.03641162 2322.08852723 850.72406696 2324.40632898 848.41210938 2326.72460938 C846.91177936 2328.22427957 845.4111397 2329.72364006 843.91015625 2331.22265625 C843.23292007 2331.90191666 842.5556839 2332.58117706 841.85792542 2333.28102112 C837.93687972 2337.18310159 833.91046548 2340.90351552 829.71299744 2344.50718689 C827.534817 2346.40538956 825.51125691 2348.42685827 823.5 2350.5 C820.21145472 2353.82769463 816.83618376 2356.95336441 813.28515625 2359.99609375 C810.93521916 2362.05680781 808.64966874 2364.17474187 806.36572266 2366.30786133 C800.96074678 2371.35507403 795.44939205 2376.15657508 789.6796875 2380.7890625 C786.86746685 2383.1093495 784.18202737 2385.53071134 781.5 2388 C777.08359856 2392.05983645 772.53836478 2395.89323821 767.87109375 2399.66015625 C765.32224684 2401.73737978 762.81253675 2403.84991091 760.31323242 2405.98583984 C753.65767769 2411.67289592 746.84961198 2417.12996544 739.93359375 2422.49609375 C737.87770025 2424.09512203 735.82911162 2425.70320039 733.78125 2427.3125 C723.79250743 2435.14613715 713.6527758 2442.74706068 703.40429688 2450.23681641 C700.97629335 2452.0173852 698.55725279 2453.80949698 696.140625 2455.60546875 C695.33165771 2456.20552734 694.52269043 2456.80558594 693.68920898 2457.42382812 C692.18986095 2458.5364414 690.69179753 2459.65078986 689.19555664 2460.76757812 C676.41264209 2470.23144565 663.10888619 2478.9969258 649.875 2487.8125 C649.16244049 2488.28733826 648.44988098 2488.76217651 647.71572876 2489.25140381 C629.0969917 2501.64971876 610.26827494 2513.63390288 591 2525 C590.08557129 2525.54092285 589.17114258 2526.0818457 588.22900391 2526.63916016 C559.02623738 2543.89013844 529.28791773 2560.0449552 498.8828125 2575.0703125 C495.99061955 2576.50058405 493.11453715 2577.95998109 490.2421875 2579.4296875 C411.0912689 2619.76872037 325.73149214 2649.72956348 4.74462891 2711.77996826 C2.04888968 2711.99608061 -0.64544431 2712.22535647 -3.33984375 2712.45751953 C-35.55860087 2715.18272689 -67.80835346 2715.31781948 -100.12065887 2715.36836243 C-103.48949853 2715.37485922 -106.85828969 2715.38629906 -110.22711182 2715.39880371 C-151.89124712 2715.53273412 -193.46724883 2713.82811124 -234.9375 2709.6875 C-236.54013199 2709.53167953 -236.54013199 2709.53167953 -238.17514038 2709.37271118 C-338.96062194 2699.54497644 -438.58891977 2678.26947603 -618 2615 C-618.6650354 2614.72238831 -619.3300708 2614.44477661 -620.01525879 2614.15875244 C-631.05524389 2609.5424254 -642.04407294 2604.81224414 -653 2600 C-654.03779602 2599.54457825 -654.03779602 2599.54457825 -655.09655762 2599.07995605 C-674.94107431 2590.35495806 -694.41786518 2580.93101243 -713.8125 2571.25 C-714.85560333 2570.73028625 -715.89870667 2570.21057251 -716.97341919 2569.67510986 C-736.11754256 2560.12070794 -754.93565249 2550.01210375 -773.5 2539.375 C-774.06796295 2539.04983398 -774.6359259 2538.72466797 -775.22109985 2538.38964844 C-827.86818002 2508.21657374 -878.55603827 2474.74704247 -926.68359375 2437.77734375 C-928.67066537 2436.25269352 -930.66184082 2434.73377738 -932.65625 2433.21875 C-939.98413665 2427.63214335 -947.14635857 2421.86127325 -954.28125 2416.03125 C-957.23111391 2413.62150201 -960.20180078 2411.24029419 -963.1875 2408.875 C-972.82577798 2401.18368635 -982.1233017 2393.06130328 -991.47265625 2385.0234375 C-993.78365445 2383.03821036 -996.10400342 2381.06493193 -998.43359375 2379.1015625 C-1006.28786537 2372.46276648 -1013.83102552 2365.54828092 -1021.30078125 2358.48046875 C-1024.30219184 2355.64389535 -1027.34990885 2352.86792981 -1030.4375 2350.125 C-1034.31377815 2346.67076218 -1037.98813963 2343.0636188 -1041.6015625 2339.3359375 C-1043.58318591 2337.40595249 -1045.59721587 2335.60478252 -1047.69262695 2333.80297852 C-1051.72315104 2330.28652105 -1055.54146943 2326.6037713 -1059.31640625 2322.81640625 C-1059.97656235 2322.15720688 -1060.63671844 2321.49800751 -1061.31687927 2320.8188324 C-1062.70035506 2319.43603165 -1064.08259083 2318.05198924 -1065.46362305 2316.66674805 C-1067.55731669 2314.56769657 -1069.65629874 2312.4740406 -1071.75585938 2310.38085938 C-1073.10969571 2309.02636214 -1074.46322175 2307.67155469 -1075.81640625 2306.31640625 C-1076.43326797 2305.70156876 -1077.0501297 2305.08673126 -1077.6856842 2304.45326233 C-1081.43762033 2300.68142574 -1084.99783022 2296.79074481 -1088.46495056 2292.75523376 C-1090.53477751 2290.38851511 -1092.74801011 2288.192727 -1095 2286 C-1098.48433405 2282.55223317 -1101.78212816 2279.04086066 -1104.96484375 2275.31640625 C-1107.14812554 2272.83140413 -1109.39915383 2270.42133345 -1111.66333008 2268.01025391 C-1116.92628146 2262.40574741 -1121.94999189 2256.7163105 -1126.7578125 2250.7109375 C-1129.23908754 2247.710929 -1131.84905457 2244.84886566 -1134.5 2242 C-1138.67633878 2237.5008039 -1142.64517329 2232.88249058 -1146.49609375 2228.1015625 C-1148.99293735 2225.00874844 -1151.52191745 2221.94491771 -1154.05737305 2218.88378906 C-1160.33446119 2211.29900935 -1166.50382046 2203.64329615 -1172.54443359 2195.86914062 C-1174.1241809 2193.84053523 -1175.712145 2191.81852574 -1177.30078125 2189.796875 C-1185.75134582 2179.0203581 -1193.93898188 2168.07024801 -1202 2157 C-1202.80171631 2155.90268555 -1202.80171631 2155.90268555 -1203.61962891 2154.78320312 C-1218.36179256 2134.59491873 -1232.48709207 2114.03065248 -1246 2093 C-1246.57427734 2092.11022461 -1247.14855469 2091.22044922 -1247.74023438 2090.30371094 C-1262.41507469 2067.5551985 -1276.41838233 2044.46747966 -1289.47900391 2020.75390625 C-1290.86409088 2018.24607622 -1292.26201144 2015.74617222 -1293.66796875 2013.25 C-1299.34643198 2003.15334755 -1304.7432699 1992.92271656 -1310.0703125 1982.63671875 C-1311.85616986 1979.18990947 -1313.65778468 1975.75324424 -1315.4921875 1972.33203125 C-1356.20552902 1896.33379374 -1387.32851759 1813.77922385 -1461.1875 1433.5 C-1461.25928467 1432.25935791 -1461.33106934 1431.01871582 -1461.4050293 1429.74047852 C-1462.68953632 1405.56952976 -1463.20818391 1381.39035696 -1463.1875 1357.1875 C-1463.18723312 1356.52708961 -1463.18696625 1355.86667923 -1463.18669128 1355.18625641 C-1463.13594575 1254.26890955 -1451.98729099 1153.83975289 -1348 808 C-1347.66806641 807.24867798 -1347.33613281 806.49735596 -1346.99414062 805.7232666 C-1334.66904084 777.86675036 -1321.78824931 750.11683013 -1307.26171875 723.33203125 C-1305.82990404 720.68561211 -1304.41503877 718.0304254 -1303 715.375 C-1295.92778823 702.1522898 -1288.5254617 689.15381115 -1280.90380859 676.24121094 C-1278.87477586 672.78680742 -1276.86734985 669.32047495 -1274.86328125 665.8515625 C-1267.04389824 652.34141811 -1258.9746606 639.0886627 -1250.34375 626.07421875 C-1247.48966834 621.76989885 -1244.75566492 617.40601554 -1242.0625 613 C-1236.11769954 603.34833812 -1229.5314833 594.1304051 -1223.01074219 584.86328125 C-1221.11569734 582.16475211 -1219.23133864 579.45917983 -1217.3515625 576.75 C-1207.04268869 561.90872696 -1196.42235814 547.30740651 -1185.34765625 533.02734375 C-1183.35548984 530.45841035 -1181.38122344 527.87681616 -1179.41137695 525.29077148 C-1174.68962136 519.10529992 -1169.82330759 513.04856853 -1164.89624023 507.02563477 C-1161.28514567 502.60522112 -1157.7494322 498.13408618 -1154.25 493.625 C-1150.41564127 488.69756391 -1146.40149833 484.01505935 -1142.171875 479.41796875 C-1139.89769962 476.88610803 -1137.75823476 474.27641412 -1135.625 471.625 C-1131.46204105 466.47952452 -1127.05158742 461.61999579 -1122.5546875 456.76953125 C-1120.49886278 454.54081607 -1118.48383043 452.29232081 -1116.5 450 C-1112.24795952 445.10002954 -1107.83833924 440.34491161 -1103.44384766 435.57324219 C-1102.02322498 434.02530636 -1100.61007349 432.47090186 -1099.19921875 430.9140625 C-1094.10633916 425.30399345 -1088.91880238 419.83138714 -1083.484375 414.546875 C-1081.54747721 412.56125022 -1079.74887723 410.56156921 -1077.94921875 408.45703125 C-1073.42649326 403.24450176 -1068.54410703 398.39418638 -1063.6574707 393.52709961 C-1062.06541034 391.94040054 -1060.4787701 390.34842258 -1058.89257812 388.75585938 C-1053.97840762 383.83881156 -1049.01904736 379.0340973 -1043.73217773 374.51391602 C-1041.01845002 372.14212947 -1038.51466947 369.57913722 -1036 367 C-1032.20735303 363.16066885 -1028.36899517 359.47318208 -1024.2578125 355.97265625 C-1021.10585924 353.21878706 -1018.05868929 350.35664743 -1015 347.5 C-1010.07394922 342.90896706 -1005.11722709 338.37827733 -1000 334 C-998.96605322 333.11208701 -997.93220867 332.22405495 -996.8984375 331.3359375 C-994.50504964 329.28098118 -992.10873322 327.22949804 -989.7109375 325.1796875 C-987.2917862 323.11029302 -984.88061267 321.03222693 -982.4765625 318.9453125 C-976.14314716 313.4586627 -969.72227406 308.13783088 -963.1027832 302.99926758 C-959.39601439 300.11703083 -955.7733233 297.15802926 -952.1875 294.125 C-945.31210668 288.34966961 -938.16238218 282.94893331 -931.00732422 277.52685547 C-929.22838142 276.17371654 -927.45724432 274.81157484 -925.69140625 273.44140625 C-919.49554052 268.63467729 -913.24047671 263.91513904 -906.9375 259.25 C-906.24930176 258.73832275 -905.56110352 258.22664551 -904.85205078 257.69946289 C-889.74754317 246.56638464 -874.21205891 236.02950947 -858.59057617 225.64013672 C-855.93241393 223.87161615 -853.2776002 222.09815042 -850.62304688 220.32421875 C-834.05570757 209.27385156 -817.27593742 198.62124536 -800.125 188.5 C-799.44066895 188.09513367 -798.75633789 187.69026733 -798.05126953 187.27313232 C-769.84902013 170.58821556 -741.17104479 154.92996185 -712 140 C-710.94619141 139.45875488 -709.89238281 138.91750977 -708.80664062 138.35986328 C-667.75545117 117.32912152 -625.15887479 99.22560585 -582 83 C-580.93060181 82.59744995 -580.93060181 82.59744995 -579.83959961 82.18676758 C-485.07114378 46.57949577 -386.48284062 21.79610707 -209.82061768 0.22003174 C-207.94129626 0.07342897 -206.06218246 -0.07586021 -204.18328857 -0.22784424 C-136.69937688 -5.67782728 -67.46581612 -5.52898001 0 0 Z M-180.60400391 153.81640625 C-183.19774204 154.01515203 -185.79212713 154.20336277 -188.38671875 154.390625 C-286.50562128 161.54860693 -383.06885476 180.23478431 -636 276 C-637.26280941 276.61892115 -638.5258342 277.23740301 -639.7890625 277.85546875 C-655.61447391 285.60277865 -671.13492543 293.70837919 -686.40185547 302.51953125 C-689.6686431 304.38100467 -692.97250091 306.16778187 -696.28222656 307.95141602 C-710.16543501 315.44682667 -723.58889316 323.69938382 -737 332 C-738.43448486 332.88727783 -738.43448486 332.88727783 -739.89794922 333.79248047 C-762.77971002 348.00797671 -785.18161603 363.19974206 -807 379 C-807.74040527 379.53608887 -808.48081055 380.07217773 -809.24365234 380.62451172 C-820.30971315 388.66153293 -831.18044847 396.92861241 -841.93359375 405.37890625 C-843.87821476 406.90445959 -845.82850454 408.42236768 -847.78125 409.9375 C-854.63342456 415.26582718 -861.32149658 420.74994328 -867.921875 426.38671875 C-870.7270732 428.77882269 -873.57463157 431.11455851 -876.4375 433.4375 C-886.34402545 441.51534997 -895.96578691 449.88262189 -905.34765625 458.5625 C-907.47490534 460.51743878 -909.62272252 462.42882045 -911.8125 464.3125 C-915.81368009 467.78411213 -919.68727905 471.38926701 -923.5625 475 C-924.18809814 475.58177002 -924.81369629 476.16354004 -925.45825195 476.76293945 C-928.51772842 479.6230334 -931.52626066 482.51561865 -934.46484375 485.5 C-936.7890555 487.8445939 -939.17364657 490.04738499 -941.68359375 492.19140625 C-946.8561741 496.65869138 -951.65283301 501.50310122 -956.47290039 506.3425293 C-958.05959946 507.93458966 -959.65157742 509.5212299 -961.24414062 511.10742188 C-966.18162173 516.04201416 -971.00954728 521.02139907 -975.54858398 526.33032227 C-977.58505984 528.67304024 -979.77684056 530.83534476 -982 533 C-985.50593042 536.46908131 -988.82799263 540.00279327 -992.03125 543.75 C-994.07791693 546.08904792 -996.18437145 548.36096523 -998.30566406 550.63208008 C-1003.35706799 556.04104294 -1008.16280122 561.55610835 -1012.796875 567.33203125 C-1015.06927818 570.08389538 -1017.44694831 572.69738143 -1019.875 575.3125 C-1024.11620981 579.92080061 -1027.99478028 584.71570895 -1031.8215332 589.66503906 C-1034.96790157 593.72308578 -1038.21864945 597.666054 -1041.5625 601.5625 C-1046.40785577 607.23126066 -1050.99568518 613.07157269 -1055.49511719 619.01806641 C-1057.23057784 621.30367147 -1058.97825436 623.5796766 -1060.7265625 625.85546875 C-1113.64506543 694.8392038 -1158.75196596 769.89223711 -1297.93554688 1512.36254883 C-1287.14330425 1593.4260388 -1268.25727382 1672.69424867 -1241.67980957 1750.02050781 C-1241.03763157 1751.89042315 -1240.39907371 1753.7615806 -1239.76074219 1755.6328125 C-1219.08216848 1816.00118396 -1192.59151133 1875.43026336 -1161.56542969 1931.18554688 C-1159.92463729 1934.13549304 -1158.2943436 1937.09110858 -1156.6640625 1940.046875 C-1148.44056156 1954.90084267 -1139.86435203 1969.51978599 -1131 1984 C-1130.52481934 1984.77843262 -1130.04963867 1985.55686523 -1129.56005859 1986.35888672 C-1122.33714414 1998.1388952 -1114.65216904 2009.62166724 -1107 2021.125 C-1106.49711456 2021.88205231 -1105.99422913 2022.63910461 -1105.47610474 2023.4190979 C-1098.16688496 2034.41234916 -1090.6619249 2045.24994516 -1083 2056 C-1082.36094727 2056.90105469 -1081.72189453 2057.80210938 -1081.06347656 2058.73046875 C-1073.50843962 2069.36796077 -1065.63753788 2079.72439115 -1057.57666016 2089.98242188 C-1055.35743784 2092.82225669 -1053.18069673 2095.69297435 -1051 2098.5625 C-1042.62143146 2109.47252439 -1033.74824793 2119.99792042 -1024.83007812 2130.46875 C-1022.02096224 2133.77163958 -1019.27932404 2137.12101096 -1016.5625 2140.5 C-1012.18315122 2145.88573414 -1007.49955162 2150.94816799 -1002.765625 2156.01953125 C-1000.67089076 2158.26598689 -998.62670331 2160.54473428 -996.625 2162.875 C-991.54061153 2168.74538089 -986.16741444 2174.35651191 -980.85302734 2180.01757812 C-979.12832149 2181.86271799 -977.41555911 2183.71801347 -975.70703125 2185.578125 C-967.3709792 2194.61787766 -958.74747507 2203.35987936 -950.0625 2212.0625 C-949.47618805 2212.65140015 -948.8898761 2213.24030029 -948.28579712 2213.8470459 C-942.53768043 2219.61518386 -936.80329097 2225.32728837 -930.60327148 2230.61499023 C-928.45573074 2232.47017505 -926.47530664 2234.46391469 -924.5 2236.5 C-921.19013302 2239.84933729 -917.79253051 2242.99925956 -914.21875 2246.0625 C-912.0160873 2247.98595193 -909.86703514 2249.96089901 -907.72363281 2251.94995117 C-902.5386565 2256.75998085 -897.2271118 2261.31720269 -891.71484375 2265.75390625 C-888.89326505 2268.0883059 -886.19409288 2270.51990598 -883.5 2273 C-878.1703211 2277.8936826 -872.63303512 2282.46207844 -867 2287 C-865.73493201 2288.03294233 -864.4706572 2289.06685658 -863.20703125 2290.1015625 C-855.54232973 2296.37133287 -847.81946097 2302.53694575 -839.93359375 2308.52734375 C-837.6696694 2310.25158513 -835.41303555 2311.98517594 -833.15625 2313.71875 C-802.26282936 2337.41153467 -770.14468714 2359.56515967 -737 2380 C-735.9682666 2380.63760254 -734.9365332 2381.27520508 -733.87353516 2381.93212891 C-717.47565063 2392.04332988 -700.89871604 2401.7424187 -684 2411 C-683.02675781 2411.53544434 -682.05351563 2412.07088867 -681.05078125 2412.62255859 C-656.57992506 2426.0709113 -631.89576689 2438.90454037 -606.45654297 2450.42919922 C-603.08982669 2451.95917891 -599.73382855 2453.51076634 -596.37890625 2455.06640625 C-515.75598049 2492.16417083 -429.69038625 2519.3972348 -207.4375 2556.25 C-206.15817093 2556.36583435 -206.15817093 2556.36583435 -204.85299683 2556.48400879 C-172.14348756 2559.40141322 -139.39035232 2560.3856125 -106.56358337 2560.31805801 C-103.75605207 2560.31238596 -100.94852688 2560.30958525 -98.14099121 2560.30697632 C-68.00661091 2560.26635536 -38.03934978 2559.57023493 -8 2557 C-6.98593079 2556.91514343 -5.97186157 2556.83028687 -4.92706299 2556.74285889 C89.78580743 2548.78747279 183.23112248 2529.98449268 411 2445 C411.61472168 2444.70907471 412.22944336 2444.41814941 412.86279297 2444.1184082 C441.70705981 2430.46661801 469.92675836 2415.86668356 497.36572266 2399.55517578 C500.62247 2397.63251771 503.90474531 2395.75702059 507.18994141 2393.88354492 C525.74756502 2383.27106327 543.65040999 2371.6566603 561.4375 2359.8125 C562.18514618 2359.31529449 562.93279236 2358.81808899 563.70309448 2358.30581665 C574.59914397 2351.05111815 585.34278498 2343.60079244 596 2336 C596.92804443 2335.33943604 597.85608887 2334.67887207 598.81225586 2333.99829102 C607.73864421 2327.62524097 616.56570524 2321.14769552 625.20996094 2314.39550781 C627.27365015 2312.78666336 629.34370982 2311.1861973 631.4140625 2309.5859375 C639.70658863 2303.16876213 647.92174733 2296.68545048 656 2290 C657.77068118 2288.56231259 659.54151892 2287.12481798 661.3125 2285.6875 C667.35972775 2280.73976821 673.27926347 2275.64901791 679.19726562 2270.54833984 C680.97485913 2269.02159309 682.75952015 2267.50358292 684.546875 2265.98828125 C691.51395231 2260.07278359 698.31395612 2254.01637414 705 2247.78515625 C707.55368129 2245.40595507 710.14296862 2243.07078638 712.75 2240.75 C725.68742531 2229.13173348 738.1485967 2217.01741978 750.42431641 2204.70605469 C752.65541572 2202.46951005 754.89192947 2200.238477 757.12890625 2198.0078125 C758.57844632 2196.55761277 760.02767679 2195.10710349 761.4765625 2193.65625 C762.13081207 2193.00402466 762.78506165 2192.35179932 763.45913696 2191.67980957 C767.26459545 2187.85516781 770.88449123 2183.92325144 774.39144897 2179.82263184 C776.02673642 2177.96970525 777.7356761 2176.2297892 779.5 2174.5 C782.49234375 2171.55399785 785.25324172 2168.47016993 787.9921875 2165.2890625 C789.94362787 2163.06426861 791.94183648 2160.88829499 793.95458984 2158.71899414 C798.78304485 2153.51292706 803.3650513 2148.1818402 807.8203125 2142.6484375 C809.97757399 2140.02724881 812.21311 2137.50845719 814.5 2135 C819.20458343 2129.82495823 823.6061739 2124.43932438 828 2119 C829.03443444 2117.73378497 830.06963622 2116.46819657 831.10546875 2115.203125 C837.36869942 2107.54497371 843.52927572 2099.82966748 849.51416016 2091.95117188 C851.27818222 2089.63469729 853.05126629 2087.32527135 854.82421875 2085.015625 C861.92882574 2075.74713995 868.97807791 2066.45891684 875.67480469 2056.890625 C877.1857049 2054.73505919 878.7061979 2052.58640017 880.2265625 2050.4375 C888.69919853 2038.43231848 896.92194546 2026.27370974 905 2014 C905.46970215 2013.2884375 905.9394043 2012.576875 906.42333984 2011.84375 C925.78215122 1982.46299285 943.50309668 1952.06995423 960 1921 C960.49032715 1920.07719238 960.9806543 1919.15438477 961.48583984 1918.20361328 C965.04026115 1911.49445034 968.53693657 1904.75673789 972 1898 C972.58007812 1896.86852539 973.16015625 1895.73705078 973.7578125 1894.57128906 C1013.15907956 1817.52232853 1042.68294818 1735.71828925 1044 989 C1030.98663802 948.8697942 1016.09758054 909.56622718 999 871 C998.68780518 870.29417786 998.37561035 869.58835571 998.05395508 868.86114502 C983.97674267 837.06396464 968.9417579 805.6025692 951.44726562 775.53173828 C949.46512057 772.06432192 947.58494398 768.54573683 945.70166016 765.02392578 C938.02107858 750.67805645 929.57212737 736.82383404 921 723 C920.40993164 722.04657715 919.81986328 721.0931543 919.21191406 720.11083984 C904.99539156 697.22580726 889.80221521 674.82108674 874 653 C873.46391113 652.25959473 872.92782227 651.51918945 872.37548828 650.75634766 C864.33417222 639.68437334 856.06250525 628.80789174 847.60791016 618.04882812 C846.12269897 616.15634524 844.64401041 614.25901287 843.16796875 612.359375 C832.6361493 598.83130263 821.6657688 585.66960487 810.45898438 572.69726562 C808.98964452 570.98795326 807.53236128 569.26904801 806.078125 567.546875 C800.18762733 560.58662001 794.12427891 553.83367398 787.87084961 547.19702148 C784.9124517 544.05659378 781.99605236 540.90164442 779.1875 537.625 C776.11198966 534.04594262 772.79213278 530.75356166 769.40625 527.46875 C767.44990652 525.4615924 765.6237984 523.42605039 763.79858398 521.30297852 C760.28373659 517.27377434 756.60231714 513.45708118 752.81640625 509.68359375 C752.15720688 509.02343765 751.49800751 508.36328156 750.8188324 507.68312073 C749.43603165 506.29964494 748.05198924 504.91740917 746.66674805 503.53637695 C744.56769657 501.44268331 742.4740406 499.34370126 740.38085938 497.24414062 C739.02636214 495.89030429 737.67155469 494.53677825 736.31640625 493.18359375 C735.70156876 492.56673203 735.08673126 491.9498703 734.45326233 491.3143158 C730.66734207 487.5483703 726.76087012 483.97493517 722.71250916 480.49232483 C720.7116834 478.74875345 718.84305122 476.90887448 717 475 C713.87154036 471.82910002 710.63144648 468.8743004 707.25390625 465.97265625 C705.0402439 464.03522213 702.87774978 462.04870812 700.72143555 460.04785156 C695.5369582 455.2388218 690.22630525 450.68214813 684.71484375 446.24609375 C681.89326505 443.9116941 679.19409288 441.48009402 676.5 439 C671.1703211 434.1063174 665.63303512 429.53792156 660 425 C658.73493201 423.96705767 657.4706572 422.93314342 656.20703125 421.8984375 C648.54802831 415.63332861 640.83113445 409.47183866 632.95117188 403.48583984 C630.63469729 401.72181778 628.32527135 399.94873371 626.015625 398.17578125 C616.74289846 391.06792301 607.45022712 384.01600986 597.87744141 377.31640625 C595.76101584 375.83243139 593.65208329 374.33809622 591.54296875 372.84375 C555.67643059 347.50188184 518.55378724 323.77241084 480.03173828 302.66210938 C478.06150204 301.58195409 476.09358692 300.49755031 474.12841797 299.40820312 C442.26729827 281.75062762 409.51041098 265.29021153 376 251 C374.64654154 250.41853999 373.29319287 249.8368244 371.93994141 249.25488281 C324.84474463 229.043011 276.56581522 211.65781879 227.26654053 197.64459229 C225.03447846 197.00980549 222.80359322 196.37100217 220.57275391 195.73193359 C141.68925074 173.21921697 60.01403804 159.74605033 -21.78747559 154.15429688 C-23.92958509 154.00491059 -26.07073594 153.84573029 -28.21191406 153.68359375 C-78.45074383 149.93724639 -130.37426663 149.93015965 -180.60400391 153.81640625 Z " fill="#414B4D" transform="translate(1725,242)"></path>
<path d="M0 0 C19.71061892 16.23865669 28.55765901 36.93288904 32.37011719 61.71386719 C32.37011719 279.51386719 32.37011719 497.31386719 32.37011719 721.71386719 C537.60011719 721.71386719 1042.83011719 721.71386719 1563.37011719 721.71386719 C1563.37011719 622.05386719 1563.37011719 522.39386719 1563.37011719 419.71386719 C1568.02376131 398.77246863 1568.02376131 398.77246863 1571.05761719 392.83886719 C1571.57134888 391.79738525 1571.57134888 391.79738525 1572.09545898 390.73486328 C1582.60891433 370.13600552 1600.73570364 354.63124434 1622.37011719 346.71386719 C1645.95220112 339.07179628 1670.04459201 341.57060796 1692.27636719 352.08886719 C1711.58939954 362.07088391 1726.95774656 379.22727826 1734.37011719 399.71386719 C1737.22922745 409.0665499 1739.4930228 418.23949982 1739.49776769 428.07919115 C1739.50078366 429.32356139 1739.50379962 430.56793163 1739.50690699 431.85001007 C1739.50520827 433.2204894 1739.50341754 434.59096861 1739.50154495 435.96144772 C1739.5031957 437.43143283 1739.50528248 438.90141751 1739.50776505 440.37140146 C1739.5133272 444.42034946 1739.51266012 448.46927629 1739.51098746 452.51822689 C1739.51025626 456.91975691 1739.51527956 461.32128095 1739.51956248 465.72280842 C1739.52714316 474.45703813 1739.52933558 483.19126172 1739.52989154 491.92549438 C1739.53080511 502.3857318 1739.53747248 512.84596356 1739.54423836 523.30619854 C1739.56030153 548.58928757 1739.56620202 573.87237599 1739.57098711 599.15546919 C1739.57332276 611.11547197 1739.57692538 623.07547426 1739.58068249 635.03547666 C1739.59351832 675.97365735 1739.60423745 716.91183776 1739.60768509 757.85002041 C1739.60790672 760.420096 1739.60812851 762.99017159 1739.60835044 765.56024719 C1739.60857108 768.13654135 1739.60879156 770.71283551 1739.60901189 773.28912967 C1739.60945444 778.45764569 1739.60990156 783.62616171 1739.61035156 788.79467773 C1739.61046095 790.0761701 1739.61057034 791.35766247 1739.61068305 792.67798794 C1739.61431373 834.23093427 1739.63023401 875.78386317 1739.65354193 917.33680282 C1739.67813777 961.2661369 1739.69185782 1005.19546101 1739.69305301 1049.12480217 C1739.69322446 1053.94715981 1739.69343989 1058.76951744 1739.69368744 1063.59187508 C1739.69374321 1064.77928022 1739.69379898 1065.96668536 1739.69385643 1067.19007248 C1739.6950071 1086.29925585 1739.70603045 1105.40842133 1739.72057449 1124.51759866 C1739.73494066 1143.72522478 1739.73817579 1162.93282796 1739.73013452 1182.14045798 C1739.72567883 1193.55046682 1739.7295365 1204.96040159 1739.74537302 1216.3704007 C1739.75512777 1223.9961648 1739.75394001 1231.62187705 1739.74393679 1239.24764069 C1739.73854838 1243.58992456 1739.737823 1247.93206625 1739.75044551 1252.2743383 C1739.76185691 1256.23312501 1739.75918143 1260.19165502 1739.74577844 1264.15043322 C1739.74336446 1265.5655116 1739.74585668 1266.98061025 1739.75417492 1268.39566625 C1739.89311427 1293.71812244 1732.13226539 1316.56967558 1714.20996094 1334.93261719 C1696.02329643 1352.74404103 1674.60590577 1360.97429167 1649.20776367 1360.96264648 C1623.94910167 1360.64343983 1602.24650553 1349.3800878 1584.82324219 1331.54589844 C1482.83241981 1213.80171655 1563.37011719 1020.48876959 1563.37011719 864.71386719 C1058.14011719 864.71386719 552.91011719 864.71386719 32.37011719 864.71386719 C32.37011719 1001.66386719 32.37011719 1138.61386719 32.37011719 1279.71386719 C27.46896914 1307.48703948 17.93465885 1329.02806518 -5.33691406 1345.61621094 C-25.97916375 1358.76554437 -49.31116861 1363.99395295 -73.56738281 1359.52636719 C-95.82609783 1354.36562503 -116.84393075 1341.59744867 -129.50488281 1322.21386719 C-130.5736429 1320.39619493 -131.61561274 1318.56249824 -132.62988281 1316.71386719 C-133.42845703 1315.29654297 -133.42845703 1315.29654297 -134.24316406 1313.85058594 C-140.56483324 1302.0072603 -143.79311367 1289.51361033 -143.75868398 1276.11426562 C-143.76045899 1275.25595228 -143.762234 1274.39763893 -143.7640628 1273.51331609 C-143.76881124 1270.62384007 -143.76642772 1267.73441379 -143.76410389 1264.84493542 C-143.76605662 1262.74882103 -143.76844539 1260.65270701 -143.77123186 1258.55659357 C-143.77764488 1252.76450766 -143.77779244 1246.97243559 -143.77695445 1241.18034681 C-143.77712369 1234.89094675 -143.78302694 1228.60155169 -143.78819531 1222.31215411 C-143.79644471 1211.27824179 -143.80094703 1200.24433373 -143.8029213 1189.2104187 C-143.8050494 1177.36868931 -143.80930837 1165.52696361 -143.81616402 1153.68523598 C-143.81659463 1152.93776464 -143.81702524 1152.1902933 -143.81746891 1151.42017132 C-143.81922725 1148.37589877 -143.82099689 1145.33162623 -143.82278193 1142.28735369 C-143.8443839 1105.3745122 -143.85526111 1068.46166998 -143.86425817 1031.54882361 C-143.86719201 1019.57875645 -143.87056188 1007.60868948 -143.87422538 995.63862252 C-143.87448367 994.79420068 -143.87474196 993.94977884 -143.87500808 993.07976846 C-143.8760543 989.66353682 -143.87710273 986.24730517 -143.8781539 982.83107353 C-143.89611915 924.39366033 -143.91149807 865.95624684 -143.91891293 807.51883127 C-143.9194969 802.92839075 -143.92009417 798.33795023 -143.92069055 793.74750971 C-143.92080867 792.83691173 -143.92092679 791.92631376 -143.92104849 790.98812191 C-143.92224587 781.76248027 -143.92345463 772.53683864 -143.92468102 763.31119701 C-143.92492625 761.46142839 -143.92517011 759.61165977 -143.92541259 757.76189116 C-143.93320167 698.35896699 -143.95558333 638.95606259 -143.98808902 579.55314707 C-144.01143631 536.87245971 -144.03298721 494.19177628 -144.04009533 451.51108265 C-144.04024235 450.63322894 -144.04038937 449.75537523 -144.04054085 448.85091989 C-144.04372577 429.5791798 -144.04577659 410.30743975 -144.04676839 391.03569943 C-144.04718313 383.28135081 -144.04773803 375.52700219 -144.04833031 367.77265358 C-144.04839098 366.92399223 -144.04845164 366.07533089 -144.04851415 365.20095253 C-144.05052971 337.86971811 -144.06476497 310.53850702 -144.08527531 283.20728074 C-144.10586379 255.6742642 -144.11374645 228.14127462 -144.10419755 200.60825115 C-144.10287913 196.80147083 -144.10170108 192.99469047 -144.10060692 189.18791008 C-144.10038707 188.44169293 -144.10016722 187.69547578 -144.09994071 186.92664599 C-144.0968294 175.12268549 -144.10714119 163.31877664 -144.12308247 151.51482811 C-144.13848782 139.900743 -144.13923365 128.28674451 -144.12553423 116.67265512 C-144.1186223 110.46281693 -144.1180206 104.25315612 -144.13509432 98.04333361 C-144.15051468 92.38877322 -144.14735924 86.73453253 -144.12968404 81.07998151 C-144.12654642 79.05216446 -144.13004309 77.02432285 -144.14117579 74.99653393 C-144.27718483 48.48592778 -137.27459177 25.1240098 -118.37988281 5.83886719 C-86.11632439 -25.81693806 -35.05924344 -27.66508305 0 0 Z " fill="#414B4C" transform="translate(809.6298828125,936.2861328125)"></path>
<path d="M0 0 C7.17336804 5.67668917 13.72916298 12.12540821 20.3515625 18.42578125 C23.61945993 21.51799414 26.97553931 24.49166714 30.37329102 27.43994141 C32.99914693 29.73136097 35.559384 32.08620117 38.12109375 34.44921875 C43.46127477 39.36340242 48.84317929 44.2290245 54.24609375 49.07421875 C59.6490268 53.91942968 65.02973279 58.78630473 70.37109375 63.69921875 C73.60826591 66.67640156 76.85747104 69.63374731 80.18359375 72.51171875 C84.36641386 76.13566519 88.40881182 79.90677621 92.46630859 83.66943359 C95.98091404 86.92286662 99.54218042 90.10830637 103.1640625 93.2421875 C106.38101168 96.07286136 109.52580055 98.98188891 112.67944336 101.88256836 C117.50212278 106.31657914 122.36879102 110.70037953 127.24609375 115.07421875 C132.6490268 119.91942968 138.02973279 124.78630473 143.37109375 129.69921875 C146.60826591 132.67640156 149.85747104 135.63374731 153.18359375 138.51171875 C157.36719232 142.13633964 161.41043985 145.90806942 165.46850586 149.67163086 C168.95411547 152.89848563 172.48735691 156.05496948 176.08203125 159.16015625 C179.61436897 162.28442607 183.05804789 165.50545223 186.50390625 168.72460938 C189.06553949 171.107305 191.62070451 173.37315532 194.359375 175.55859375 C202.14277032 182.34141727 207.70583983 192.46694144 211.24609375 202.07421875 C211.56449219 202.925 211.88289063 203.77578125 212.2109375 204.65234375 C217.70551999 222.3768034 214.89197984 241.85826947 206.71069336 258.1340332 C198.3945933 273.57238372 184.01675665 284.70921969 167.5546875 290.3359375 C148.81708857 295.9093775 129.21359657 294.08422701 111.96875 284.75390625 C103.53967901 279.55376203 96.47419187 272.61596113 89.26953125 265.8828125 C86.9663975 263.73345722 84.63148675 261.6325009 82.24609375 259.57421875 C78.08043214 255.97339261 74.06009327 252.22030901 70.0234375 248.4765625 C67.13227758 245.80005946 64.22711243 243.15103151 61.24609375 240.57421875 C57.08043214 236.97339261 53.06009327 233.22030901 49.0234375 229.4765625 C46.13227758 226.80005946 43.22711243 224.15103151 40.24609375 221.57421875 C36.08043214 217.97339261 32.06009327 214.22030901 28.0234375 210.4765625 C25.13227758 207.80005946 22.22711243 205.15103151 19.24609375 202.57421875 C15.08043214 198.97339261 11.06009327 195.22030901 7.0234375 191.4765625 C4.13227758 188.80005946 1.22711243 186.15103151 -1.75390625 183.57421875 C-5.91956786 179.97339261 -9.93990673 176.22030901 -13.9765625 172.4765625 C-16.86772242 169.80005946 -19.77288757 167.15103151 -22.75390625 164.57421875 C-26.91956786 160.97339261 -30.93990673 157.22030901 -34.9765625 153.4765625 C-37.86772242 150.80005946 -40.77288757 148.15103151 -43.75390625 145.57421875 C-47.91956786 141.97339261 -51.93990673 138.22030901 -55.9765625 134.4765625 C-58.86772242 131.80005946 -61.77288757 129.15103151 -64.75390625 126.57421875 C-68.91632589 122.976195 -72.93624931 119.22857195 -76.96557617 115.4831543 C-79.94766025 112.71752232 -82.96092657 110.01443232 -86.06640625 107.38671875 C-100.21930519 94.92504673 -108.15939646 78.76487296 -109.62890625 59.94921875 C-110.58853437 41.61011276 -105.16171442 23.90438542 -92.75390625 10.07421875 C-92.12226562 9.35105469 -91.490625 8.62789062 -90.83984375 7.8828125 C-67.12340073 -17.60158354 -27.88278719 -19.49817601 0 0 Z " fill="#414B4C" transform="translate(1086.75390625,1279.92578125)"></path>
</svg>