<?xml version="1.0"?>
<svg version="1.1" xmlns="http://www.w3.org/2000/svg" width="3508" height="1234">
<path d="M0 0 C0.73216736 0.00093658 1.46433472 0.00187317 2.21868896 0.00283813 C57.55111783 0.15442769 113.06407239 11.58222219 163.29736328 35.07324219 C165.56153155 36.12877477 167.83770189 37.15093246 170.12109375 38.1640625 C196.26903416 49.9000136 221.49567091 66.05153269 243.6875 84.1875 C244.60660156 84.91710937 245.52570312 85.64671875 246.47265625 86.3984375 C252.51968934 91.24626994 258.2505666 96.37396485 263.92578125 101.64453125 C266.10290629 103.64921074 268.30462768 105.588752 270.5625 107.5 C279.57823884 115.32498088 288.02382366 124.04275363 295.6875 133.1875 C296.45707031 134.06792969 297.22664062 134.94835937 298.01953125 135.85546875 C310.36590976 150.05125791 321.65851672 165.26997542 331.6875 181.1875 C332.13625488 181.89712891 332.58500977 182.60675781 333.04736328 183.33789062 C361.26329553 228.30552229 380.16637817 278.12173788 388.5 330.5625 C388.69505127 331.78372559 388.89010254 333.00495117 389.09106445 334.26318359 C391.97453242 353.52785313 393.07335551 372.78486386 393 392.25 C392.99726578 393.77497101 392.99726578 393.77497101 392.99447632 395.33074951 C392.94312135 412.45386626 392.1665986 429.2222179 389.6875 446.1875 C389.51057617 447.39986328 389.33365234 448.61222656 389.15136719 449.86132812 C383.38528234 488.08280244 372.40013443 525.29821883 355.6875 560.1875 C355.24051758 561.13222168 354.79353516 562.07694336 354.33300781 563.05029297 C339.09652548 595.08639567 319.09186617 624.55403519 295.6875 651.1875 C294.89859375 652.08855469 294.1096875 652.98960937 293.296875 653.91796875 C287.14231354 660.77895 280.67565295 667.3309442 274.1875 673.875 C272.8883667 675.19371094 272.8883667 675.19371094 271.56298828 676.5390625 C265.58486834 682.52505876 259.29399061 687.91095649 252.6875 693.1875 C251.66013364 694.05110681 250.6367301 694.91950327 249.62109375 695.796875 C197.92189391 740.13359098 132.37598999 768.08270088 65.625 779.4375 C64.90243011 779.5625592 64.17986023 779.68761841 63.43539429 779.81646729 C42.75735221 783.35932496 22.08521338 784.57709921 1.125 784.5 C0.08467621 784.49817719 -0.95564758 784.49635437 -2.02749634 784.49447632 C-19.30016824 784.44381751 -36.19844927 783.67859965 -53.3125 781.1875 C-55.07303711 780.93806641 -55.07303711 780.93806641 -56.86914062 780.68359375 C-146.89392445 767.55193971 -235.45101695 721.42446068 -294.3125 651.1875 C-295.08207031 650.30707031 -295.85164063 649.42664063 -296.64453125 648.51953125 C-357.35970551 578.70960179 -391.0297658 487.35484358 -390.625 361.5 C-386.85070866 314.34439388 -374.74815058 267.86384285 -354.3125 225.1875 C-353.84376465 224.19395508 -353.3750293 223.20041016 -352.89208984 222.17675781 C-342.67508799 200.6225143 -330.52550777 180.34306736 -316.3125 161.1875 C-315.8798584 160.60323242 -315.4472168 160.01896484 -315.00146484 159.41699219 C-306.09472741 147.46150214 -296.39466766 136.16203343 -286.3125 125.1875 C-285.77689453 124.60145996 -285.24128906 124.01541992 -284.68945312 123.41162109 C-272.21350677 109.78113274 -272.21350677 109.78113274 -266.34375 104.90625 C-264.23249774 103.11980578 -262.21762435 101.2456449 -260.20141602 99.35327148 C-253.23908419 92.84229547 -245.90763206 86.94048756 -238.3125 81.1875 C-237.59674805 80.6419043 -236.88099609 80.09630859 -236.14355469 79.53417969 C-168.50346826 28.14396387 -84.95932296 -0.14302093 0 0 Z M-224.3125 129.1875 C-225.02148438 129.79722656 -225.73046875 130.40695312 -226.4609375 131.03515625 C-237.26724244 140.36386439 -247.99016943 149.97240368 -257.2890625 160.828125 C-258.82933186 162.62411475 -260.39048346 164.40221882 -261.9609375 166.171875 C-270.08454555 175.38198503 -277.29314294 185.11803796 -284.3125 195.1875 C-284.75303711 195.81205078 -285.19357422 196.43660156 -285.64746094 197.08007812 C-315.46319172 239.4877764 -334.13547653 289.17618497 -342.3125 340.1875 C-342.47621094 341.16041992 -342.63992188 342.13333984 -342.80859375 343.13574219 C-348.06883963 375.62102098 -347.79316063 411.75803003 -342.3125 444.1875 C-342.14089355 445.2408252 -341.96928711 446.29415039 -341.79248047 447.37939453 C-336.35732577 480.01460851 -326.60803761 511.35463868 -312.3125 541.1875 C-311.91949707 542.01588379 -311.52649414 542.84426758 -311.12158203 543.69775391 C-291.18406539 585.50948268 -260.66569058 627.32218472 -223.98828125 656.06640625 C-221.55472048 657.99549165 -219.22068869 660.00832706 -216.89013672 662.05957031 C-208.26839595 669.58991772 -198.87234898 675.91636804 -189.3125 682.1875 C-188.63316406 682.63480469 -187.95382812 683.08210937 -187.25390625 683.54296875 C-139.49679255 714.77246966 -85.05250375 732.89907039 -28.3125 738.1875 C-27.21953613 738.29336426 -27.21953613 738.29336426 -26.10449219 738.40136719 C56.07669585 746.03391979 140.85074807 720.21233158 206.6875 671.1875 C207.22004395 670.79385254 207.75258789 670.40020508 208.30126953 669.99462891 C212.1572544 667.1333594 215.94322767 664.19335564 219.6875 661.1875 C220.21794922 660.76291504 220.74839844 660.33833008 221.29492188 659.90087891 C230.77621969 652.21510898 239.42061591 643.66263439 248.0625 635.0625 C248.62053314 634.50973389 249.17856628 633.95696777 249.75350952 633.38745117 C256.87002061 626.32290071 263.48282777 619.08296454 269.6875 611.1875 C270.84853499 609.75095983 272.00996591 608.31473952 273.171875 606.87890625 C315.60007402 553.55973945 340.35159656 488.86302642 346.6875 421.1875 C346.79336426 420.08873535 346.79336426 420.08873535 346.90136719 418.96777344 C354.93967563 331.56711819 325.18923251 240.718301 269.5234375 173.30859375 C266.63795497 169.88095665 263.6769537 166.524492 260.6875 163.1875 C259.81996094 162.20910156 258.95242188 161.23070312 258.05859375 160.22265625 C247.86613696 148.90614312 237.30441231 137.66427539 225.3046875 128.24609375 C222.48792107 126.03051776 219.78254877 123.70804996 217.0625 121.375 C157.31474753 71.67468729 78.69062273 45.66654298 1.5 45.8125 C0.40999695 45.81304382 -0.6800061 45.81358765 -1.80303955 45.81414795 C-82.99469927 45.99939185 -163.15439506 75.51994105 -224.3125 129.1875 Z " fill="#414B4D" transform="translate(514.3125,246.8125)"></path>
<path d="M0 0 C6.81123967 4.61925891 10.9047922 10.57725996 13.1484375 18.45703125 C13.54235292 21.39314994 13.56559947 24.28013087 13.54716492 27.23962402 C13.55381174 28.08767121 13.56045857 28.93571839 13.56730682 29.80946398 C13.585857 32.63156393 13.58333693 35.45323693 13.58081055 38.27539062 C13.58983258 40.30610753 13.60016088 42.336819 13.61169434 44.36752319 C13.63923854 49.86688852 13.6485454 55.36615043 13.65454841 60.86557579 C13.66393873 66.61782289 13.6901427 72.36999295 13.71455383 78.12219238 C13.7582043 89.00877901 13.78676024 99.89535068 13.80987722 110.78199816 C13.83693662 123.17860648 13.88084772 135.57513725 13.92616594 147.97169018 C14.01899146 173.46676181 14.09068183 198.96185776 14.1484375 224.45703125 C15.01364014 223.57877686 15.87884277 222.70052246 16.77026367 221.7956543 C17.93132392 220.62403362 19.09254682 219.45257411 20.25390625 218.28125 C20.82105347 217.70467651 21.38820068 217.12810303 21.97253418 216.53405762 C53.48883921 184.8159406 100.16773471 168.51586219 144.25341797 168.21557617 C145.76008698 168.2110312 147.2667621 168.20821888 148.7734375 168.20703125 C149.54544495 168.20635651 150.31745239 168.20568176 151.112854 168.20498657 C202.47629227 168.27592872 249.50571349 185.02428975 286.7734375 220.76953125 C315.23121761 250.11173963 330.49506254 289.34043494 335.1484375 329.45703125 C335.2357013 330.15087449 335.32296511 330.84471773 335.41287327 331.55958652 C336.51960915 341.66623175 336.3286307 351.83300163 336.35717773 361.98608398 C336.36672954 364.16525416 336.37662125 366.34442287 336.38682556 368.52359009 C336.41803656 375.64591712 336.43844742 382.76825525 336.45703125 389.890625 C336.46032857 391.10517656 336.46362589 392.31972811 336.46702313 393.57108426 C336.49777864 405.03587846 336.52446606 416.50067549 336.54144192 427.96549892 C336.56336608 442.59562234 336.60541613 457.22521296 336.67487949 471.85518116 C336.72215607 482.16378334 336.74637971 492.47228682 336.7536388 502.780994 C336.75858605 508.92943941 336.77358207 515.07747076 336.8133831 521.22579765 C336.85033085 527.00853098 336.85863206 532.79061499 336.84537697 538.57344437 C336.84543077 540.68895254 336.85566518 542.80449016 336.8771286 544.91988945 C336.99668507 557.37375438 336.94414479 567.48148841 328.46854305 577.42858028 C322.83390667 583.14112586 314.49341374 585.62081798 306.6484375 585.95703125 C298.05639842 585.57706946 290.11275189 582.71236786 283.99876881 576.54058552 C275.5666719 567.04567429 276.44360587 556.37585618 276.52075195 544.40942383 C276.51556779 542.37632086 276.50816365 540.34322253 276.49871826 538.31013489 C276.48319025 533.94382759 276.48330156 529.57790438 276.49572182 525.21158791 C276.51534624 518.28593467 276.50001105 511.36061909 276.48027039 504.4349823 C276.45313846 493.45893729 276.44962358 482.48303058 276.45604342 471.50695866 C276.46696547 451.90837173 276.44210178 432.30982849 276.40229577 412.71128386 C276.38934119 405.85002854 276.38789696 398.98890059 276.3964287 392.12763941 C276.40009837 387.82504025 276.39570198 383.52247249 276.3895874 379.21987724 C276.38851763 377.25092065 276.39077097 375.28195841 276.3969326 373.31301117 C276.4278927 362.90427406 276.13178941 352.59874727 275.24674988 342.22392273 C275.16763345 341.29450263 275.08851702 340.36508253 275.00700313 339.40749818 C272.56139412 313.19090305 264.03652058 288.8585442 247.1484375 268.45703125 C246.10429687 267.16732422 246.10429687 267.16732422 245.0390625 265.8515625 C225.53221426 242.89185973 192.79347198 228.90677782 163.1484375 226.45703125 C141.24611561 224.80746704 120.4072509 225.7555504 99.1484375 231.45703125 C97.92253906 231.781875 96.69664062 232.10671875 95.43359375 232.44140625 C79.40128338 237.24587711 63.90757527 245.642884 51.1484375 256.45703125 C50.2821875 257.17375 49.4159375 257.89046875 48.5234375 258.62890625 C27.94326078 276.32283867 16.22239318 300.50822753 14.1484375 327.45703125 C14.02417255 330.83128903 14.01870956 334.20000882 14.03059387 337.57626343 C14.02988929 338.5441428 14.02918471 339.51202216 14.02845877 340.50923121 C14.02715908 343.72541077 14.03280536 346.94154035 14.03833008 350.15771484 C14.03857244 352.47466533 14.03829431 354.79161591 14.03753662 357.10856628 C14.03643335 362.08537503 14.03785577 367.06217452 14.04090309 372.03898239 C14.04454537 379.91505595 14.03537715 387.79108175 14.02311707 395.66714478 C14.02107057 397.01192136 14.01902823 398.35669795 14.01699001 399.70147455 C14.01283467 402.42305127 14.00861971 405.1446279 14.00438249 407.8662045 C13.99359877 414.84732507 13.98378223 421.8284465 13.9753418 428.80957031 C13.97449055 429.50954327 13.9736393 430.20951623 13.97276225 430.9307005 C13.95954135 442.27396884 13.9645631 453.6171669 13.97541336 464.96043448 C13.9860625 476.63165217 13.97339672 488.30268376 13.94133109 499.97386229 C13.92419932 506.51686722 13.91785371 513.059483 13.9374485 519.60248947 C13.95571515 525.75707866 13.94600348 531.91099767 13.91519165 538.06553078 C13.90884227 540.31807384 13.91263913 542.57067302 13.92758751 544.82317543 C14.06637655 567.42168396 14.06637655 567.42168396 7.1484375 576.45703125 C0.73139428 582.94284441 -6.7696172 585.5548652 -15.7890625 585.83203125 C-25.03814804 585.54997527 -33.27390465 583.25394436 -39.8515625 576.45703125 C-44.58460134 569.56940011 -46.00002071 563.89162791 -45.98578358 555.58594322 C-45.98813581 554.66332603 -45.99048804 553.74070883 -45.99291155 552.79013354 C-45.99961807 549.66959685 -45.99914283 546.54910165 -45.99873352 543.42855835 C-46.00203112 541.18024177 -46.00575646 538.93192578 -46.009875 536.68361056 C-46.01991498 530.48250394 -46.023615 524.28140701 -46.02626431 518.08029342 C-46.02976162 512.08641828 -46.03790834 506.09254989 -46.04580825 500.09867934 C-46.06666308 484.03524766 -46.07712415 467.97181414 -46.08593785 451.90837208 C-46.09014295 444.31069671 -46.09536513 436.71302213 -46.10062238 429.11534743 C-46.11851363 403.11298905 -46.13351005 377.11063045 -46.14094257 351.10826683 C-46.14141733 349.47549277 -46.14189322 347.84271871 -46.14237024 346.20994464 C-46.14260661 345.40022664 -46.14284299 344.59050864 -46.14308653 343.75625373 C-46.14428774 339.65374597 -46.14550318 335.55123822 -46.14672852 331.44873047 C-46.14696867 330.63457185 -46.14720882 329.82041323 -46.14745624 328.98158314 C-46.15534979 302.58253084 -46.17878221 276.18352346 -46.21128446 249.78449078 C-46.24557641 221.88092897 -46.26529314 193.97739345 -46.26858681 166.07381022 C-46.26900436 163.01103567 -46.26948392 159.94826114 -46.27000999 156.8854866 C-46.27013319 156.13133275 -46.27025638 155.37717889 -46.2703833 154.60017189 C-46.27271615 142.45939978 -46.28838084 130.31867981 -46.30885184 118.17792628 C-46.32910016 105.97570054 -46.33459186 93.77353747 -46.32508121 81.57129805 C-46.3203219 74.95964334 -46.32249537 68.34812222 -46.34184265 61.73648071 C-46.3593977 55.68514951 -46.35853878 49.63411228 -46.34294536 43.58277829 C-46.34055764 41.39227463 -46.34495275 39.20175102 -46.35677401 37.01127796 C-46.37184313 34.03488257 -46.3622544 31.05953549 -46.34654713 28.08316612 C-46.35676933 27.23169418 -46.36699154 26.38022223 -46.37752351 25.50294811 C-46.2809938 17.12832231 -43.20691896 10.14684329 -37.56640625 3.9609375 C-28.09282961 -4.34732448 -11.17156594 -5.39514191 0 0 Z " fill="#286980" transform="translate(2483.8515625,249.54296875)"></path>
<path d="M0 0 C1.31738159 -0.01058945 1.31738159 -0.01058945 2.66137695 -0.02139282 C42.73148868 -0.27037164 79.71400437 4.96073525 115.42578125 24.203125 C116.02197266 24.51862305 116.61816406 24.83412109 117.23242188 25.15917969 C162.60895477 49.29829449 196.8215998 93.02322339 211.8984375 141.8984375 C224.54831127 184.92230195 225.48594844 230.94382966 213.42578125 274.203125 C213.22146484 274.9465918 213.01714844 275.69005859 212.80664062 276.45605469 C206.97280618 297.09671654 196.90171703 316.80834484 184.42578125 334.203125 C184.00586914 334.78980957 183.58595703 335.37649414 183.15332031 335.98095703 C177.15654395 344.25519765 170.47796726 351.82856763 163.42578125 359.203125 C162.55179688 360.12996094 161.6778125 361.05679687 160.77734375 362.01171875 C122.57337501 401.50409112 68.51132242 419.25012547 14.53808594 420.36962891 C-19.66037996 420.71992286 -53.78951384 414.26783383 -84.57421875 399.203125 C-85.29206543 398.85378906 -86.00991211 398.50445313 -86.74951172 398.14453125 C-134.97936556 374.38319563 -170.2713128 331.79066257 -187.57421875 281.203125 C-191.86302314 267.48652917 -194.88747377 253.47391603 -196.57421875 239.203125 C-196.66848145 238.41502441 -196.76274414 237.62692383 -196.85986328 236.81494141 C-202.6136091 182.25213889 -190.84699733 126.94093455 -158.57421875 82.203125 C-158.15269531 81.60661133 -157.73117188 81.01009766 -157.296875 80.39550781 C-145.78267478 64.23700159 -130.89788881 49.46789104 -114.57421875 38.203125 C-114.01524902 37.80512695 -113.4562793 37.40712891 -112.88037109 36.99707031 C-80.35882183 13.85102168 -40.02702783 0.21588432 0 0 Z M-101.57421875 103.265625 C-131.24739199 136.75528355 -141.45707927 180.42506431 -139.57421875 224.203125 C-138.18867922 244.84209567 -132.68653465 264.66427541 -123.57421875 283.203125 C-123.03023437 284.31945312 -122.48625 285.43578125 -121.92578125 286.5859375 C-115.0266514 300.02790411 -106.01334994 311.37735933 -95.57421875 322.203125 C-94.85878906 322.98171875 -94.14335937 323.7603125 -93.40625 324.5625 C-69.78143808 349.5613629 -32.80205608 364.47189707 1.33062744 365.4680481 C4.75867355 365.52910916 8.18481931 365.53369377 11.61328125 365.515625 C12.33500519 365.51380219 13.05672913 365.51197937 13.80032349 365.51010132 C25.23398762 365.46162348 36.26743115 364.83105353 47.42578125 362.203125 C48.1621582 362.03683594 48.89853516 361.87054687 49.65722656 361.69921875 C86.78815546 353.09745916 119.59007155 329.38472697 139.74951172 297.08203125 C148.16907137 283.19486341 154.20556546 268.73853266 158.23828125 253.015625 C158.43333252 252.25717285 158.62838379 251.4987207 158.8293457 250.71728516 C162.02703135 237.38771773 162.80555768 224.15241444 162.73828125 210.515625 C162.7361261 209.72598358 162.73397095 208.93634216 162.73175049 208.12277222 C162.67852651 195.94478647 162.23961941 184.10315753 159.42578125 172.203125 C159.22710449 171.35830566 159.02842773 170.51348633 158.82373047 169.64306641 C149.19537623 130.19926915 125.78658661 95.93212824 90.90136719 74.65087891 C27.57059563 37.61424426 -51.60571495 51.14193015 -101.57421875 103.265625 Z " fill="#286980" transform="translate(3118.57421875,418.796875)"></path>
<path d="M0 0 C5.74934879 5.28201042 9.80635658 11.18363872 11 19 C11.09604321 21.9200779 11.14183795 24.81620236 11.13803101 27.73608398 C11.14085229 28.61575364 11.14367357 29.4954233 11.14658034 30.40174961 C11.15491381 33.34987326 11.15626359 36.29795929 11.15771484 39.24609375 C11.16238439 41.36051539 11.16752819 43.47493604 11.17311096 45.58935547 C11.18439004 50.14606634 11.19282555 54.70277068 11.19923019 59.25949097 C11.20993007 66.48234473 11.23018415 73.70515197 11.25234985 80.92797852 C11.31419463 101.46889085 11.3681472 122.00980123 11.40136719 142.55078125 C11.41979137 153.89333528 11.44883048 165.23581197 11.4893719 176.57830906 C11.51032389 182.57215351 11.52588216 188.56590096 11.52817917 194.55978394 C11.53034815 200.21350724 11.54644334 205.86702918 11.57256889 211.52069092 C11.5796805 213.57916142 11.58190321 215.63765655 11.57846642 217.69613647 C11.5543595 234.90272478 12.68808812 252.24112075 17.6875 268.8125 C18.06660522 270.10003174 18.06660522 270.10003174 18.45336914 271.41357422 C21.03785644 279.77994879 24.66182784 287.41422092 29 295 C29.81404297 296.4540625 29.81404297 296.4540625 30.64453125 297.9375 C46.77783151 324.94409508 74.13796949 341.84817211 104.19604492 349.42944336 C110.42052843 350.930541 116.64407233 352.19616209 123 353 C123.8146875 353.11085938 124.629375 353.22171875 125.46875 353.3359375 C161.74383249 357.47846235 200.40568544 349.96590645 230.1875 328.25 C233.9783192 325.21734464 237.56825081 322.00912157 241.07421875 318.65234375 C243 317 243 317 245 317 C245.25652344 316.41863281 245.51304687 315.83726562 245.77734375 315.23828125 C247.11146811 312.79593858 248.62072773 311.17634553 250.5625 309.1875 C269.90768104 287.70065645 273.46693157 261.19540321 273.38476562 233.38696289 C273.38887853 231.04455299 273.39434364 228.70214513 273.40104675 226.35974121 C273.41270509 221.34698819 273.41528021 216.33434508 273.41069031 211.32158089 C273.40442555 204.0644881 273.41648112 196.80752974 273.43419749 189.55045968 C273.46274157 177.75882445 273.48033275 165.96720319 273.48876953 154.17553711 C273.4895303 153.12051494 273.4895303 153.12051494 273.49030644 152.04417919 C273.4943401 146.33479983 273.49783603 140.62542015 273.50130367 134.91604042 C273.5043629 129.91464851 273.50763485 124.91325679 273.51123047 119.91186523 C273.51173308 119.2072655 273.5122357 118.50266576 273.51275355 117.77671451 C273.52150599 106.01609867 273.54195254 94.25553088 273.57071257 82.49494737 C273.58904745 74.61453136 273.59296935 66.73428082 273.58577728 58.85384858 C273.58425464 53.95427064 273.59504336 49.05477549 273.60915565 44.15522003 C273.6131547 41.88689677 273.61203946 39.61855773 273.60538292 37.35024071 C273.59698262 34.24928824 273.60701323 31.14890713 273.62145996 28.04798889 C273.61111906 26.70877816 273.61111906 26.70877816 273.60056925 25.34251267 C273.6765682 16.94391194 275.70652362 9.65465602 281 3 C288.89587876 -4.54495081 296.32998783 -5.98703522 307 -6 C315.66429408 -5.27246386 322.08030562 -1.3454298 327.875 5 C333.24010671 11.51128859 334.12326261 18.04284437 334.12863445 26.35101795 C334.1318589 27.61491976 334.13508335 28.87882156 334.1384055 30.18102342 C334.1369345 31.57598939 334.13536679 32.97095526 334.13371277 34.36592102 C334.13558158 35.85373864 334.13788257 37.34155576 334.14057809 38.82937211 C334.14669377 42.91441425 334.14656277 46.99943592 334.14538372 51.0844816 C334.14517965 55.49154563 334.15069901 59.89860309 334.15544128 64.30566406 C334.1637471 72.93862668 334.16649609 81.57158247 334.16705366 90.20454875 C334.16752885 97.2218739 334.16958373 104.23919679 334.17275429 111.25652122 C334.18156062 131.15233026 334.18617369 151.04813391 334.18542381 170.94394491 C334.18536388 172.55276762 334.18536388 172.55276762 334.18530273 174.1940918 C334.18526185 175.26794993 334.18522097 176.34180806 334.18517885 177.44820734 C334.18477237 194.85287758 334.19434244 212.25752619 334.2084411 229.66219018 C334.22280359 247.53357124 334.22971136 265.40494176 334.22884732 283.27632874 C334.22851531 293.30959276 334.2312642 303.34283409 334.24202538 313.37609291 C334.25112868 321.91835915 334.25330701 330.46059243 334.24651595 339.00286142 C334.24324992 343.36038953 334.2431971 347.7178544 334.2518692 352.07537651 C334.25973137 356.06700901 334.25830566 360.05852808 334.24958507 364.05015781 C334.24804946 365.49158313 334.24986854 366.9330169 334.25544515 368.37443224 C334.2972305 379.94429578 333.96891533 389.96063336 326 399 C318.36923358 405.60110663 310.71946329 407.49868067 300.796875 407.23828125 C291.48717987 406.44513683 285.17168334 403.05335239 279 396 C274.86756863 389.78993739 273.91960422 383.77047485 273.68359375 376.38671875 C273.64169922 375.13955078 273.59980469 373.89238281 273.55664062 372.60742188 C273.51732422 371.31384766 273.47800781 370.02027344 273.4375 368.6875 C273.39431641 367.37458984 273.35113281 366.06167969 273.30664062 364.70898438 C273.20072773 361.47275712 273.09865115 358.23645542 273 355 C272.57009766 355.50934082 272.14019531 356.01868164 271.69726562 356.54345703 C267.87867008 360.99813815 263.9782268 365.08598291 259.5 368.875 C258.601604 369.63744019 258.601604 369.63744019 257.68505859 370.4152832 C251.15545579 375.85040182 244.2294637 380.55180769 237 385 C236.37399902 385.38784668 235.74799805 385.77569336 235.10302734 386.17529297 C209.64646664 401.74695167 178.99836078 410.94199461 149.1015625 411.23828125 C148.27717682 411.2480751 147.45279114 411.25786896 146.60342407 411.26795959 C119.71605678 411.52129871 94.70212605 409.52721293 69 401 C67.95658447 400.66427979 67.95658447 400.66427979 66.89208984 400.32177734 C49.27545143 394.57824707 32.46962509 385.5636814 18 374 C17.4220166 373.54012695 16.8440332 373.08025391 16.24853516 372.60644531 C-2.50777785 357.50528733 -16.96998047 339.37831887 -28 318 C-28.31952637 317.38157227 -28.63905273 316.76314453 -28.96826172 316.12597656 C-45.44421783 283.72527249 -49.1424778 247.76173324 -49.16113281 211.92480469 C-49.16577073 209.8306164 -49.17079667 207.73642894 -49.17617798 205.64224243 C-49.18920024 199.99382014 -49.19572551 194.34540968 -49.20018864 188.69697475 C-49.20313264 185.16269971 -49.20723961 181.62842781 -49.21169281 178.09415436 C-49.22533369 167.0192818 -49.23502001 155.94441653 -49.2388947 144.86953616 C-49.24338346 132.11353567 -49.26098359 119.35764189 -49.2898953 106.60167384 C-49.31152031 96.71596457 -49.32159923 86.83028533 -49.32293582 76.94455266 C-49.32398217 71.05009796 -49.32985546 65.15574406 -49.34775543 59.26131439 C-49.36425284 53.72244884 -49.36638346 48.18375978 -49.35761642 42.64487839 C-49.35684727 40.6172399 -49.36117272 38.58959184 -49.37107468 36.56197739 C-49.48616132 11.52126997 -49.48616132 11.52126997 -39.4765625 1.13671875 C-28.48783178 -8.34409466 -11.6596 -8.31950369 0 0 Z " fill="#286980" transform="translate(1586,428)"></path>
<path d="M0 0 C0.77200745 -0.00067474 1.54401489 -0.00134949 2.3394165 -0.00204468 C53.70285477 0.06889747 100.73227599 16.8172585 138 52.5625 C166.45778011 81.90470838 181.72162504 121.13340369 186.375 161.25 C186.4622638 161.94384324 186.54952761 162.63768648 186.63943577 163.35255527 C187.74617165 173.4592005 187.5551932 183.62597038 187.58374023 193.77905273 C187.59329204 195.95822291 187.60318375 198.13739162 187.61338806 200.31655884 C187.64459906 207.43888587 187.66500992 214.561224 187.68359375 221.68359375 C187.68689107 222.89814531 187.69018839 224.11269686 187.69358563 225.36405301 C187.72434114 236.82884721 187.75102856 248.29364424 187.76800442 259.75846767 C187.78992858 274.38859109 187.83197863 289.01818171 187.90144199 303.64814991 C187.94871857 313.95675209 187.97294221 324.26525557 187.9802013 334.57396275 C187.98514855 340.72240816 188.00014457 346.87043951 188.0399456 353.0187664 C188.07689335 358.80149973 188.08519456 364.58358374 188.07193947 370.36641312 C188.07199327 372.48192129 188.08222768 374.59745891 188.1036911 376.7128582 C188.22324757 389.16672313 188.17070729 399.27445716 179.69510555 409.22154903 C174.06046917 414.93409461 165.71997624 417.41378673 157.875 417.75 C149.28296092 417.37003821 141.33931439 414.50533661 135.22533131 408.33355427 C126.7932344 398.83864304 127.67016837 388.16882493 127.74731445 376.20239258 C127.74213029 374.16928961 127.73472615 372.13619128 127.72528076 370.10310364 C127.70975275 365.73679634 127.70986406 361.37087313 127.72228432 357.00455666 C127.74190874 350.07890342 127.72657355 343.15358784 127.70683289 336.22795105 C127.67970096 325.25190604 127.67618608 314.27599933 127.68260592 303.29992741 C127.69352797 283.70134048 127.66866428 264.10279724 127.62885827 244.50425261 C127.61590369 237.64299729 127.61445946 230.78186934 127.6229912 223.92060816 C127.62666087 219.618009 127.62226448 215.31544124 127.6161499 211.01284599 C127.61508013 209.0438894 127.61733347 207.07492716 127.6234951 205.10597992 C127.6544552 194.69724281 127.35835191 184.39171602 126.47331238 174.01689148 C126.39419595 173.08747138 126.31507952 172.15805128 126.23356563 171.20046693 C123.78795662 144.9838718 115.26308308 120.65151295 98.375 100.25 C97.33085938 98.96029297 97.33085938 98.96029297 96.265625 97.64453125 C76.75877676 74.68482848 44.02003448 60.69974657 14.375 58.25 C-7.52732189 56.60043579 -28.3661866 57.54851915 -49.625 63.25 C-51.46384766 63.73726563 -51.46384766 63.73726563 -53.33984375 64.234375 C-69.37215412 69.03884586 -84.86586223 77.43585275 -97.625 88.25 C-98.49125 88.96671875 -99.3575 89.6834375 -100.25 90.421875 C-120.83017672 108.11580742 -132.55104432 132.30119628 -134.625 159.25 C-134.74926495 162.62425778 -134.75472794 165.99297757 -134.74284363 169.36923218 C-134.74354821 170.33711155 -134.74425279 171.30499091 -134.74497873 172.30219996 C-134.74627842 175.51837952 -134.74063214 178.7345091 -134.73510742 181.95068359 C-134.73486506 184.26763408 -134.73514319 186.58458466 -134.73590088 188.90153503 C-134.73700415 193.87834378 -134.73558173 198.85514327 -134.73253441 203.83195114 C-134.72889213 211.7080247 -134.73806035 219.5840505 -134.75032043 227.46011353 C-134.75236693 228.80489011 -134.75440927 230.1496667 -134.75644749 231.4944433 C-134.76060283 234.21602002 -134.76481779 236.93759665 -134.76905501 239.65917325 C-134.77983873 246.64029382 -134.78965527 253.62141525 -134.7980957 260.60253906 C-134.79894695 261.30251202 -134.7997982 262.00248498 -134.80067525 262.72366925 C-134.81389615 274.06693759 -134.8088744 285.41013565 -134.79802414 296.75340323 C-134.787375 308.42462092 -134.80004078 320.09565251 -134.83210641 331.76683104 C-134.84923818 338.30983597 -134.85558379 344.85245175 -134.835989 351.39545822 C-134.81772235 357.55004741 -134.82743402 363.70396642 -134.85824585 369.85849953 C-134.86459523 372.11104259 -134.86079837 374.36364177 -134.84584999 376.61614418 C-134.70706095 399.21465271 -134.70706095 399.21465271 -141.625 408.25 C-148.04204322 414.73581316 -155.5430547 417.34783395 -164.5625 417.625 C-173.81158554 417.34294402 -182.04734215 415.04691311 -188.625 408.25 C-192.66288656 402.37397106 -194.74776114 397.28997863 -194.75922108 390.13036251 C-194.76367892 388.84169999 -194.76813676 387.55303747 -194.77272969 386.22532457 C-194.77264039 384.78684866 -194.77245053 383.34837274 -194.77217102 381.90989685 C-194.77546954 380.38825752 -194.77919508 378.86661906 -194.7833125 377.34498173 C-194.79334223 373.15248228 -194.79705086 368.95999715 -194.79970181 364.76748741 C-194.80360204 360.24991806 -194.81318065 355.73236008 -194.82191467 351.21479797 C-194.84168818 340.29859143 -194.85174692 329.38238394 -194.86064246 318.46616396 C-194.86502436 313.32657901 -194.87039146 308.1869951 -194.87563133 303.04741096 C-194.89264533 285.96350919 -194.90713934 268.87960807 -194.91438007 251.79569912 C-194.91629 247.36111386 -194.91821033 242.9265286 -194.92016602 238.49194336 C-194.92064976 237.3897355 -194.9211335 236.28752765 -194.9216319 235.15191955 C-194.92993154 217.29828777 -194.9552666 199.444723 -194.98774669 181.59112047 C-195.02081577 163.26443475 -195.03882874 144.93778308 -195.04202431 126.61106735 C-195.04418967 116.32003473 -195.05294195 106.0290998 -195.07848549 95.73809624 C-195.10019049 86.97324877 -195.10824392 78.20852272 -195.09851871 69.44365143 C-195.09397329 64.97253347 -195.09587424 60.50166604 -195.11528015 56.03058243 C-195.13290759 51.9338164 -195.13191763 47.83748373 -195.11638286 43.74071313 C-195.11400613 42.26216371 -195.1183338 40.78358432 -195.13021151 39.3050807 C-195.2077473 29.01239566 -194.48125817 20.31892938 -187.4375 12.375 C-180.58836935 6.14317297 -172.03422054 3.82427168 -162.88671875 4.05078125 C-154.1301203 4.82208785 -148.38338021 7.60049395 -141.81640625 13.41015625 C-135.167702 22.02621327 -134.98213404 31.39828701 -134.875 41.875 C-134.84677741 43.27477543 -134.81684144 44.67451741 -134.78515625 46.07421875 C-134.71497727 49.46620258 -134.66202048 52.85751958 -134.625 56.25 C-133.83738281 55.42757812 -133.04976562 54.60515625 -132.23828125 53.7578125 C-97.31619683 17.76286963 -49.70502155 0.03917964 0 0 Z " fill="#286980" transform="translate(1234.625,417.75)"></path>
<path d="M0 0 C6.46742935 4.42990293 10.51261405 9.53784214 13 17 C13 81.02 13 145.04 13 211 C158.2 211 303.4 211 453 211 C453 181.63 453 152.26 453 122 C457.51725914 110.70685214 457.51725914 110.70685214 461.4375 107.5 C462.17871094 106.8709375 462.91992188 106.241875 463.68359375 105.59375 C469.29374054 101.73381764 475.6105601 100.53756737 482.3359375 101.24609375 C490.12561743 102.74819927 495.42121256 105.90497155 500.640625 111.828125 C504.86802892 118.5822531 505.43633823 124.78123822 505.38768005 132.54429626 C505.39575836 134.10085767 505.39575836 134.10085767 505.40399987 135.68886477 C505.41826537 139.15329414 505.41117901 142.61734067 505.40405273 146.08178711 C505.409757 148.57079881 505.41672148 151.0598079 505.42485046 153.54881287 C505.44092827 159.6000725 505.44288387 165.65118267 505.43763756 171.70244902 C505.43358998 176.62257703 505.43504639 181.54267442 505.44038582 186.46280098 C505.44113424 187.16406031 505.44188266 187.86531964 505.44265376 188.58782925 C505.4441853 190.0126034 505.44572365 191.43737755 505.44726873 192.86215169 C505.46098439 206.21166872 505.45556258 219.56112707 505.44408352 232.91064275 C505.43415122 245.11291435 505.44709336 257.31503432 505.47101771 269.51728254 C505.49542277 282.05960267 505.50501319 294.60185222 505.49836498 307.14419562 C505.494876 314.180571 505.49708364 321.21682979 505.51461601 328.25318718 C505.53089833 334.86967309 505.5261345 341.48591673 505.50731087 348.10241127 C505.50362377 350.52876098 505.50673689 352.95513213 505.51719666 355.3814621 C505.53039923 358.69754836 505.51886433 362.01267485 505.50120544 365.32872009 C505.51081045 366.28534843 505.52041546 367.24197677 505.53031152 368.22759384 C505.44449191 376.07799651 503.1405563 381.72620802 498.875 388.25 C492.95624327 393.91141948 487.21126521 396.30333999 479 396.625 C470.67973926 396.29038082 464.29845261 393.80210963 458.5625 387.6875 C429.58422254 353.34607865 453 297.93410492 453 253 C307.8 253 162.6 253 13 253 C13 293.92 13 334.84 13 377 C8.74166754 385.51666493 5.2906184 392.12586114 -3.796875 395.5234375 C-12.08836748 397.31698729 -20.40172406 396.98275228 -27.80859375 392.6875 C-33.57537554 388.24676964 -37.00898553 382.94641271 -39 376 C-39.25299966 372.97080922 -39.25299966 372.97080922 -39.25726891 369.69862747 C-39.2637178 368.44579255 -39.27016669 367.19295763 -39.276811 365.90215802 C-39.273869 364.51967151 -39.27073358 363.13718539 -39.26742554 361.75469971 C-39.27116323 360.27996741 -39.27576523 358.80523709 -39.28115618 357.3305099 C-39.29338695 353.28158595 -39.29312562 349.23274463 -39.29076743 345.18380642 C-39.29035928 340.81556869 -39.30139826 336.44735746 -39.31088257 332.07913208 C-39.32749418 323.52203167 -39.3329922 314.96495881 -39.33410732 306.40784362 C-39.33505776 299.4515462 -39.33916785 292.49525786 -39.34550858 285.53896332 C-39.36312176 265.81422906 -39.37234738 246.08951656 -39.37084763 226.36477438 C-39.37076772 225.30144961 -39.3706878 224.23812485 -39.37060547 223.14257812 C-39.37052371 222.07795415 -39.37044195 221.01333018 -39.37035771 219.91644487 C-39.36954488 202.66438533 -39.38868147 185.41241312 -39.4168822 168.16037884 C-39.44561363 150.44379996 -39.45942234 132.72726366 -39.45769465 115.01066089 C-39.45703082 105.06508621 -39.46252013 95.11960306 -39.48405075 85.17404938 C-39.50226597 76.70570873 -39.5066071 68.2375011 -39.4930319 59.76914933 C-39.48650386 55.44990731 -39.48637905 51.13092045 -39.5037384 46.81170273 C-39.51948163 42.85382495 -39.51659299 38.8964044 -39.49917014 34.93853769 C-39.49610296 33.5105519 -39.49972203 32.08253188 -39.51089029 30.65458646 C-39.58478115 20.53269543 -38.68795413 12.041264 -31.9375 4.125 C-23.01644117 -3.97287099 -10.63122482 -5.25067473 0 0 Z " fill="#414B4C" transform="translate(278,445)"></path>
<path d="M0 0 C6.59666523 6.97361753 10.3622568 15.58956938 14.19189453 24.26245117 C15.81811895 27.94421985 17.47174889 31.61370224 19.12109375 35.28515625 C19.45889862 36.03906647 19.79670349 36.79297668 20.14474487 37.56973267 C23.56721869 45.19419102 27.11963243 52.75528472 30.6875 60.3125 C35.75652242 71.06450606 40.72857011 81.85584812 45.625 92.6875 C50.71362724 103.94375658 55.90468781 115.14608395 61.1875 126.3125 C66.47031418 137.47892024 71.6611669 148.68133384 76.75 159.9375 C81.71238306 170.91309494 86.74812179 181.85022549 91.875 192.75 C92.19029663 193.42040314 92.50559326 194.09080627 92.83044434 194.78152466 C93.30060974 195.78117752 93.30060974 195.78117752 93.78027344 196.80102539 C94.40302394 198.12514905 95.02574563 199.44928627 95.6484375 200.7734375 C95.95168945 201.41826584 96.25494141 202.06309418 96.56738281 202.72746277 C100.9221867 211.99477886 105.19704889 221.29900458 109.47802734 230.60058594 C112.53523529 237.24108932 115.60121267 243.87755161 118.66534424 250.51486206 C119.81015302 252.99491562 120.95468343 255.47509744 122.09912109 257.95532227 C125.72178685 265.80610644 129.34573818 273.65628954 132.9743042 281.50434875 C134.62737488 285.07987541 136.27974741 288.6557245 137.93206787 292.2315979 C138.72017085 293.93665436 139.5086166 295.64155242 140.29742432 297.34628296 C141.39576985 299.72003647 142.49292633 302.09433629 143.58984375 304.46875 C143.91092606 305.16184769 144.23200836 305.85494537 144.56282043 306.56904602 C146.51014061 310.78799682 148.3747913 315.03391051 150.1875 319.3125 C154.92642095 310.07124157 159.30339951 300.72924957 163.46633911 291.21694946 C169.72118217 276.93850073 176.17184455 262.75709909 182.75 248.625 C184.36224835 245.16028141 185.97433942 241.69548987 187.5859375 238.23046875 C187.97766647 237.38825272 188.36939545 236.54603668 188.772995 235.67829895 C192.51781088 227.6180048 196.20600011 219.53253663 199.875 211.4375 C200.17576447 210.77400543 200.47652893 210.11051086 200.78640747 209.4269104 C201.99706047 206.75596387 203.20769201 204.08500765 204.41804504 201.41392517 C207.98872347 193.53803867 211.58887773 185.67564627 215.1875 177.8125 C220.68152451 165.805608 226.15816145 153.79098262 231.61575317 141.76748657 C235.10421427 134.08233405 238.60115592 126.40126289 242.12109375 118.73046875 C243.45597794 115.82042653 244.79063369 112.91027972 246.125 110 C246.45644012 109.27718842 246.78788025 108.55437683 247.12936401 107.80966187 C252.59927227 95.87191965 257.94061634 83.88039942 263.24655151 71.86904907 C268.6899462 59.55841225 274.32332665 47.34667612 280.08374023 35.18139648 C283.76912706 27.39166608 287.38738128 19.58004019 290.66796875 11.60888672 C293.28611561 5.46351423 296.66446693 0.67057551 302.6875 -2.5 C303.78578125 -3.09748047 303.78578125 -3.09748047 304.90625 -3.70703125 C312.49133334 -6.96705851 322.25084538 -6.85669053 329.921875 -3.91796875 C336.72620507 -0.22251362 342.97325003 5.41793125 345.62109375 12.82421875 C347.50246853 21.08929279 346.78493667 27.84826021 343.2109375 35.51953125 C342.9014064 36.2046579 342.59187531 36.88978455 342.27296448 37.59567261 C341.25519838 39.83968395 340.222221 42.07626156 339.1875 44.3125 C338.47692339 45.86351799 337.76672383 47.41470878 337.05688477 48.96606445 C334.76311671 53.96440851 332.44495016 58.95126801 330.125 63.9375 C329.28226546 65.75213975 328.43965656 67.56683785 327.59716797 69.3815918 C322.11451375 81.18709868 316.61503868 92.98476725 311.10620117 104.77807617 C301.70835267 124.89716322 292.38336765 145.04940517 283.08474731 165.21447754 C276.92136274 178.57826523 270.71621334 191.92193278 264.484375 205.25390625 C259.55986189 215.79044566 254.66862615 226.34242887 249.77441406 236.89306641 C248.22332112 240.23531375 246.67056006 243.57678037 245.1171875 246.91796875 C239.19597338 259.65670188 233.29660824 272.40522515 227.41448975 285.16204834 C220.47682755 300.20789188 213.50386068 315.23644349 206.48828125 330.24609375 C203.718529 336.17239861 200.956389 342.10219317 198.20092773 348.03515625 C197.11982749 350.36263894 196.03733722 352.68947655 194.95336914 355.015625 C192.2455649 360.83518529 189.57235454 366.66733231 186.953125 372.52734375 C186.42541504 373.69813477 185.89770508 374.86892578 185.35400391 376.07519531 C184.36177971 378.27964907 183.37891017 380.4883497 182.40771484 382.70214844 C177.34057528 393.91385003 171.50228902 402.01796096 159.875 406.625 C149.84703958 408.49461974 140.61395449 407.67330841 132 401.828125 C125.91686223 396.45785494 122.84820502 389.3099677 119.49707031 382.09912109 C117.96460389 378.83820168 116.38752126 375.59993074 114.8046875 372.36328125 C108.18309239 358.80630457 101.69833459 345.19386684 95.37744141 331.49365234 C90.61594087 321.19019479 85.75313221 310.93618308 80.875 300.6875 C74.91210109 288.15766789 68.96430603 275.62123647 63.0625 263.0625 C62.73970062 262.37565125 62.41690125 261.68880249 62.08432007 260.98114014 C61.76154083 260.29433167 61.4387616 259.60752319 61.10620117 258.89990234 C60.45362479 257.51138782 59.80103689 256.12287871 59.1484375 254.734375 C58.82557266 254.04739532 58.50270782 253.36041565 58.1700592 252.65261841 C54.35335654 244.53413886 50.52011385 236.42347664 46.6875 228.3125 C40.84622667 215.94966175 35.01691787 203.58126715 29.19775391 191.20800781 C24.03817553 180.23786434 18.86625365 169.27360332 13.6875 158.3125 C8.15786575 146.60829908 2.63558522 134.90068248 -2.875 123.1875 C-3.20355988 122.48913025 -3.53211975 121.7907605 -3.87063599 121.07122803 C-6.51490502 115.45044279 -9.15852971 109.82935455 -11.80212402 104.20825195 C-13.78712511 99.98758495 -15.77241238 95.76705274 -17.75793457 91.54663086 C-18.74357332 89.45116312 -19.72873978 87.3554738 -20.71386719 85.25976562 C-23.89914953 78.48607041 -27.09243563 71.71632476 -30.30387878 64.95498657 C-31.86731314 61.66333661 -33.42862002 58.37067896 -34.99002075 55.07806396 C-35.73774753 53.50315526 -36.48664082 51.92879978 -37.23678589 50.3550415 C-38.28183914 48.16253258 -39.32291454 45.96817325 -40.36328125 43.7734375 C-40.82158829 42.81621796 -40.82158829 42.81621796 -41.28915405 41.83966064 C-45.65835508 32.59477277 -49.12261841 23.83107982 -45.96875 13.56640625 C-42.01633617 4.79364987 -35.65477867 -0.33547825 -26.890625 -3.9609375 C-17.21782995 -7.34277938 -8.6432415 -5.1859449 0 0 Z " fill="#286980" transform="translate(2017.8125,427.6875)"></path>
<path d="M0 0 C5.61 0 11.22 0 17 0 C23.56723283 11.41010844 30.05711333 22.8592406 36.4375 34.375 C41.38803323 43.30794231 46.35749445 52.22946996 51.375 61.125 C52.20535767 62.60105713 52.20535767 62.60105713 53.05249023 64.10693359 C53.55852783 65.00234863 54.06456543 65.89776367 54.5859375 66.8203125 C55.0298584 67.60680176 55.4737793 68.39329102 55.93115234 69.20361328 C56.87417543 70.95621194 56.87417543 70.95621194 58 72 C58.5261792 71.06039429 58.5261792 71.06039429 59.06298828 70.10180664 C59.56040527 69.21356201 60.05782227 68.32531738 60.5703125 67.41015625 C61.12992676 66.41081055 61.68954102 65.41146484 62.26611328 64.38183594 C63.52217964 62.13893101 64.77836767 59.89609421 66.03466797 57.65332031 C69.23429945 51.94104323 72.43218189 46.2278084 75.625 40.51171875 C81.31921304 30.32120159 87.03227441 20.14203378 92.8125 10 C93.32248535 9.10313477 93.8324707 8.20626953 94.35791016 7.28222656 C94.82374512 6.4672168 95.28958008 5.65220703 95.76953125 4.8125 C96.17792236 4.09707031 96.58631348 3.38164063 97.00708008 2.64453125 C98 1 98 1 99 0 C104.61 0 110.22 0 116 0 C116 38.61 116 77.22 116 117 C110.39 117 104.78 117 99 117 C98.67 89.94 98.34 62.88 98 35 C92.72 44.57 87.44 54.14 82 64 C71.14827124 83.49782159 71.14827124 83.49782159 68 89 C67.34004028 90.19991577 67.34004028 90.19991577 66.66674805 91.42407227 C63.65734849 96.66006612 63.65734849 96.66006612 60.60546875 98.23828125 C57.67081509 98.32835947 55.76086803 98.05092239 53 97 C50.99609375 94.48071289 50.99609375 94.48071289 49.125 91.22265625 C48.78550827 90.64091644 48.44601654 90.05917664 48.09623718 89.45980835 C47.04635424 87.64940034 46.02121389 85.82670451 45 84 C44.39389893 82.93467041 43.78779785 81.86934082 43.16333008 80.77172852 C41.35788091 77.5677727 39.5812508 74.34934573 37.8125 71.125 C30.97076352 58.6939127 23.98325732 46.35499372 17 34 C16.67 61.39 16.34 88.78 16 117 C10.72 117 5.44 117 0 117 C0 78.39 0 39.78 0 0 Z " fill="#414B4C" transform="translate(1201,916)"></path>
<path d="M0 0 C63.91164495 0 63.91164495 0 74.7734375 10.5859375 C82.27547551 18.71972608 85.89634765 27.41388893 86.375 38.5625 C85.93154736 48.798865 82.21154058 58.95390516 74.78515625 66.14453125 C70.89814838 69.32010673 68.04062252 71.28244214 63 72 C67.29264249 80.39333756 72.32679403 88.1159442 77.59423828 95.90869141 C80.1357331 99.68959531 82.63502406 103.49753442 85.125 107.3125 C85.61057373 108.04807129 86.09614746 108.78364258 86.59643555 109.54150391 C90 114.76913249 90 114.76913249 90 117 C83.66387876 118.0045871 77.24357362 118.90324061 71 117 C66.32876854 113.50047777 63.99692098 107.79793035 61.43652344 102.70166016 C58.73290744 97.61698738 55.46813053 92.87443128 52.3125 88.0625 C51.09379042 86.18256396 49.88103735 84.29874575 48.67578125 82.41015625 C48.15927002 81.60715088 47.64275879 80.80414551 47.1105957 79.97680664 C46 78 46 78 46 76 C36.1 76 26.2 76 16 76 C16 89.53 16 103.06 16 117 C10.72 117 5.44 117 0 117 C0 78.39 0 39.78 0 0 Z M16 15 C16 30.18 16 45.36 16 61 C22.27 61.103125 28.54 61.20625 35 61.3125 C36.96324219 61.35802002 38.92648438 61.40354004 40.94921875 61.45043945 C42.52862853 61.46506069 44.10805734 61.47779748 45.6875 61.48828125 C46.88922852 61.526651 46.88922852 61.526651 48.11523438 61.5657959 C54.21300372 61.57045495 58.28638839 59.88432165 63 56 C68.24158642 49.51698522 69.53143993 43.29144315 69.37890625 35.10546875 C68.60183585 28.7366959 65.78577258 23.23144401 60.9375 19 C55.53054645 15.31866992 51.85279838 14.72084034 45.296875 14.8046875 C44.5538916 14.80670166 43.8109082 14.80871582 43.04541016 14.81079102 C40.28021029 14.82122467 37.5150987 14.84914727 34.75 14.875 C25.46875 14.936875 25.46875 14.936875 16 15 Z " fill="#414B4C" transform="translate(3079,916)"></path>
<path d="M0 0 C63.89794046 0 63.89794046 0 74.7734375 10.58203125 C82.6518197 19.13767789 86.72822913 28.69829949 86.28125 40.46875 C85.07294679 51.34347892 81.02438728 61.04725598 72.4375 68.0625 C69.31528263 70.42781619 66.88267738 71.44728143 63 72 C67.29264249 80.39333756 72.32679403 88.1159442 77.59423828 95.90869141 C80.1357331 99.68959531 82.63502406 103.49753442 85.125 107.3125 C85.61057373 108.04807129 86.09614746 108.78364258 86.59643555 109.54150391 C90 114.76913249 90 114.76913249 90 117 C83.57391462 118.57159697 77.25257195 119.71732758 71 117 C64.68540584 110.94928745 60.7634183 102.74945491 56.69042969 95.10791016 C54.51143603 91.10175919 52.0535375 87.33607254 49.5 83.5625 C46 78.24067164 46 78.24067164 46 76 C36.1 76 26.2 76 16 76 C16 89.53 16 103.06 16 117 C10.72 117 5.44 117 0 117 C0 78.39 0 39.78 0 0 Z M16 15 C16 30.18 16 45.36 16 61 C22.27 61.103125 28.54 61.20625 35 61.3125 C36.96324219 61.35802002 38.92648437 61.40354004 40.94921875 61.45043945 C42.52862853 61.46506069 44.10805734 61.47779748 45.6875 61.48828125 C46.88922852 61.526651 46.88922852 61.526651 48.11523438 61.5657959 C54.21300372 61.57045495 58.28638839 59.88432165 63 56 C68.24158642 49.51698522 69.53143993 43.29144315 69.37890625 35.10546875 C68.60183585 28.7366959 65.78577258 23.23144401 60.9375 19 C55.53054645 15.31866992 51.85279838 14.72084034 45.296875 14.8046875 C44.5538916 14.80670166 43.8109082 14.80871582 43.04541016 14.81079102 C40.28021029 14.82122467 37.5150987 14.84914727 34.75 14.875 C25.46875 14.936875 25.46875 14.936875 16 15 Z " fill="#414B4C" transform="translate(1571,916)"></path>
<path d="M0 0 C13.13175582 10.67435123 20.72428705 26.78014225 22.6484375 43.37988281 C24.09974365 61.19213451 18.45780754 77.57864228 7.00390625 91.25390625 C-2.67347121 101.50599386 -15.27682426 107.75478154 -29.41015625 108.64453125 C-45.68633258 108.86903023 -58.81939117 104.4168622 -70.76171875 93.12109375 C-82.98018667 79.60195021 -88.82668262 63.15073268 -88.05859375 44.94140625 C-87.41839581 37.71312487 -85.77787409 31.20601438 -83.18359375 24.44140625 C-82.85746094 23.5803125 -82.53132813 22.71921875 -82.1953125 21.83203125 C-76.57624332 9.00012054 -64.19905042 -2.45671613 -51.18359375 -7.55859375 C-33.15219874 -13.68295969 -15.43490329 -11.01704188 0 0 Z M-62.39453125 19.94921875 C-70.30874847 30.97382701 -72.25252706 43.1599099 -71.18359375 56.44140625 C-68.76760879 68.76842044 -62.98181455 79.46997238 -53.18359375 87.44140625 C-44.42517901 93.06822719 -34.75545478 94.77039071 -24.53515625 92.9765625 C-14.48797142 90.36429444 -7.23079558 83.70289397 -1.18359375 75.44140625 C5.46250774 63.62985374 7.75789472 51.34740994 5.12890625 37.93359375 C1.90642991 26.57436466 -3.69401529 15.84352551 -14.12109375 9.71484375 C-32.20475003 0.3627568 -49.22021411 4.36048493 -62.39453125 19.94921875 Z " fill="#414B4C" transform="translate(2251.18359375,925.55859375)"></path>
<path d="M0 0 C5.28 0 10.56 0 16 0 C16 16.5 16 33 16 50 C36.46 50 56.92 50 78 50 C78 33.5 78 17 78 0 C83.28 0 88.56 0 94 0 C94 38.61 94 77.22 94 117 C88.72 117 83.44 117 78 117 C78 99.84 78 82.68 78 65 C57.54 65 37.08 65 16 65 C16 82.16 16 99.32 16 117 C10.72 117 5.44 117 0 117 C0 78.39 0 39.78 0 0 Z " fill="#414B4C" transform="translate(1991,916)"></path>
<path d="M0 0 C25.74 0 51.48 0 78 0 C78 4.95 78 9.9 78 15 C57.54 15 37.08 15 16 15 C16 26.55 16 38.1 16 50 C33.82 50 51.64 50 70 50 C70 54.62 70 59.24 70 64 C52.18 64 34.36 64 16 64 C16 76.54 16 89.08 16 102 C37.12 102 58.24 102 80 102 C80 106.95 80 111.9 80 117 C53.6 117 27.2 117 0 117 C0 78.39 0 39.78 0 0 Z " fill="#414B4C" transform="translate(2921,916)"></path>
<path d="M0 0 C25.74 0 51.48 0 78 0 C78 4.95 78 9.9 78 15 C57.54 15 37.08 15 16 15 C16 26.55 16 38.1 16 50 C33.82 50 51.64 50 70 50 C70 54.62 70 59.24 70 64 C52.18 64 34.36 64 16 64 C16 76.54 16 89.08 16 102 C37.12 102 58.24 102 80 102 C80 106.95 80 111.9 80 117 C53.6 117 27.2 117 0 117 C0 78.39 0 39.78 0 0 Z " fill="#414B4C" transform="translate(2507,916)"></path>
<path d="M0 0 C0.99 0.99 0.99 0.99 2 2 C1.63650459 5.55761461 -0.21129904 8.25656866 -2.0625 11.25 C-2.61035156 12.14203125 -3.15820312 13.0340625 -3.72265625 13.953125 C-4.14417969 14.62859375 -4.56570312 15.3040625 -5 16 C-7.67040071 14.72336106 -10.06539853 13.30145803 -12.5 11.625 C-23.41983976 4.86031985 -35.31186676 3.26997621 -47.84375 5.5078125 C-53.59525912 7.17575015 -57.31176927 10.02549823 -60.3125 15.3125 C-61.65560985 20.5628385 -61.74712322 24.38123301 -59.5 29.25 C-52.3985578 37.06158642 -40.4215021 38.4549816 -30.56494141 40.921875 C-2.68107336 47.94773151 -2.68107336 47.94773151 4.3125 59.5625 C8.12651668 67.33179324 8.31782294 77.37146707 6.3515625 85.76953125 C3.11329885 93.6714481 -2.74292962 100.15720011 -10.37890625 103.96875 C-27.76967118 110.81101817 -48.05558096 109.45515955 -65.25 102.75 C-80.34653784 95.96987242 -80.34653784 95.96987242 -83.015625 91.17578125 C-82.99108271 87.75826753 -81.33899637 85.61732748 -79.5625 82.75 C-78.90378906 81.67234375 -78.24507812 80.5946875 -77.56640625 79.484375 C-77.04949219 78.66453125 -76.53257812 77.8446875 -76 77 C-75.48953125 77.36351562 -74.9790625 77.72703125 -74.453125 78.1015625 C-59.48438925 88.45228403 -43.52039096 94.66950724 -25.0703125 91.49609375 C-18.89486654 89.89267677 -15.38664982 87.40949975 -11.6875 82.125 C-10.296352 77.825088 -10.63731685 74.13338483 -12 69.875 C-16.57931218 63.29223874 -24.05480271 61.03156674 -31.5 59 C-33.27097486 58.4900746 -35.04180644 57.97965136 -36.8125 57.46875 C-38.5416425 56.97908133 -40.27080813 56.48949431 -42 56 C-70.19684887 47.91626176 -70.19684887 47.91626176 -76 38 C-79.96624653 29.9915252 -80.08086156 21.37334368 -77.875 12.8125 C-74.74195505 3.68768706 -68.54659105 -2.63272514 -60 -7 C-39.31545746 -14.45171086 -18.38049641 -11.77047562 0 0 Z " fill="#414B4C" transform="translate(3319,926)"></path>
<path d="M0 0 C0.99 0.99 0.99 0.99 2 2 C1.63650459 5.55761461 -0.21129904 8.25656866 -2.0625 11.25 C-2.61035156 12.14203125 -3.15820312 13.0340625 -3.72265625 13.953125 C-4.14417969 14.62859375 -4.56570313 15.3040625 -5 16 C-7.67040071 14.72336106 -10.06539853 13.30145803 -12.5 11.625 C-23.41983976 4.86031985 -35.31186676 3.26997621 -47.84375 5.5078125 C-53.59525912 7.17575015 -57.31176927 10.02549823 -60.3125 15.3125 C-61.65560985 20.5628385 -61.74712322 24.38123301 -59.5 29.25 C-52.3985578 37.06158642 -40.4215021 38.4549816 -30.56494141 40.921875 C-2.68107336 47.94773151 -2.68107336 47.94773151 4.3125 59.5625 C8.12651668 67.33179324 8.31782294 77.37146707 6.3515625 85.76953125 C3.11329885 93.6714481 -2.74292962 100.15720011 -10.37890625 103.96875 C-27.76967118 110.81101817 -48.05558096 109.45515955 -65.25 102.75 C-80.34653784 95.96987242 -80.34653784 95.96987242 -83.015625 91.17578125 C-82.99108271 87.75826753 -81.33899637 85.61732748 -79.5625 82.75 C-78.90378906 81.67234375 -78.24507812 80.5946875 -77.56640625 79.484375 C-77.04949219 78.66453125 -76.53257813 77.8446875 -76 77 C-75.48953125 77.36351562 -74.9790625 77.72703125 -74.453125 78.1015625 C-59.48438925 88.45228403 -43.52039096 94.66950724 -25.0703125 91.49609375 C-18.89486654 89.89267677 -15.38664982 87.40949975 -11.6875 82.125 C-10.296352 77.825088 -10.63731685 74.13338483 -12 69.875 C-16.57931218 63.29223874 -24.05480271 61.03156674 -31.5 59 C-33.27097486 58.4900746 -35.04180644 57.97965136 -36.8125 57.46875 C-38.5416425 56.97908133 -40.27080813 56.48949431 -42 56 C-70.19684887 47.91626176 -70.19684887 47.91626176 -76 38 C-79.96624653 29.9915252 -80.08086156 21.37334368 -77.875 12.8125 C-74.74195505 3.68768706 -68.54659105 -2.63272514 -60 -7 C-39.31545746 -14.45171086 -18.38049641 -11.77047562 0 0 Z " fill="#414B4C" transform="translate(1116,926)"></path>
<path d="M0 0 C4.09887603 2.92879408 7.71538432 6.40235299 11.359375 9.8671875 C13.58877421 11.98435845 15.83640575 14.02995068 18.16796875 16.03125 C22.35156732 19.65587089 26.39481485 23.42760067 30.45288086 27.19116211 C33.34411003 29.86776038 36.24936279 32.51686179 39.23046875 35.09375 C42.85716765 38.23328039 46.39129071 41.46790153 49.91796875 44.71875 C50.7387793 45.47381836 50.7387793 45.47381836 51.57617188 46.24414062 C53.13555788 47.68576544 54.68455377 49.13770206 56.23046875 50.59375 C57.14699219 51.45226562 58.06351562 52.31078125 59.0078125 53.1953125 C62.68646834 57.16489895 64.10277542 61.53932559 64.328125 66.9296875 C63.84159114 73.88356166 61.37338846 78.45083029 56.41796875 83.40625 C50.6489171 87.36540309 45.73046256 87.83498497 38.953125 87.37109375 C31.36770792 85.20538644 25.7526282 79.5899129 20.23046875 74.21875 C18.89843578 72.93874957 17.5651036 71.66009976 16.23046875 70.3828125 C15.57240234 69.7527832 14.91433594 69.12275391 14.23632812 68.47363281 C11.59566476 65.99881442 8.87159953 63.62892868 6.13671875 61.25927734 C3.27954257 58.76290748 0.50566644 56.18045016 -2.26953125 53.59375 C-5.77473025 50.34186622 -9.28385429 47.10394687 -12.89453125 43.96875 C-13.49910156 43.44023438 -14.10367187 42.91171875 -14.7265625 42.3671875 C-16.34021484 40.96642619 -17.96501043 39.57850212 -19.59375 38.1953125 C-30.15016924 29.0050181 -30.15016924 29.0050181 -31.06640625 21 C-31.37603168 14.73868584 -30.7112244 9.60845962 -26.76953125 4.59375 C-19.19104299 -2.51884759 -9.54682178 -5.3355491 0 0 Z " fill="#414B4C" transform="translate(359.76953125,545.40625)"></path>
<path d="M0 0 C4.62 0 9.24 0 14 0 C23.13851515 21.80510443 32.15450238 43.65538871 41.00054932 65.58078003 C43.16187422 70.93468198 45.33485513 76.28374764 47.51367188 81.6305542 C49.10290266 85.53086096 50.68951047 89.43223233 52.27593994 93.3336792 C53.0471943 95.22856334 53.81960538 97.1229771 54.59320068 99.01690674 C55.66817319 101.64931512 56.7388587 104.28342855 57.80859375 106.91796875 C58.29490013 108.10423607 58.29490013 108.10423607 58.79103088 109.31446838 C61 114.77215634 61 114.77215634 61 117 C55.39 117 49.78 117 44 117 C40.51464292 110.397007 37.84110324 103.62182276 35.25 96.625 C34.83878906 95.53316406 34.42757813 94.44132813 34.00390625 93.31640625 C31 85.26274398 31 85.26274398 31 83 C15.16 83.33 -0.68 83.66 -17 84 C-20.90525076 94.11164523 -20.90525076 94.11164523 -24.80834961 104.22412109 C-25.29793624 105.49059008 -25.78759595 106.75703083 -26.27734375 108.0234375 C-26.53132935 108.68255127 -26.78531494 109.34166504 -27.04699707 110.02075195 C-28.8859282 114.7718564 -28.8859282 114.7718564 -30 117 C-35.94 117 -41.88 117 -48 117 C-43.78034204 105.52654906 -39.26581125 94.21309768 -34.56787109 82.92797852 C-32.48491981 77.92437654 -30.41034282 72.91730606 -28.3359375 67.91015625 C-27.90416199 66.86832184 -27.47238647 65.82648743 -27.02752686 64.75308228 C-23.79697596 56.94880623 -20.59820566 49.13190871 -17.4140625 41.30859375 C-16.95873138 40.19017593 -16.50340027 39.07175812 -16.03427124 37.91944885 C-14.25067985 33.53673726 -12.46787592 29.15371546 -10.68963623 24.76882935 C-9.46170259 21.74092525 -8.23102573 18.714148 -7 15.6875 C-6.63830719 14.79264389 -6.27661438 13.89778778 -5.90396118 12.97581482 C-5.56440399 12.14203812 -5.2248468 11.30826141 -4.875 10.44921875 C-4.58367187 9.73080811 -4.29234375 9.01239746 -3.9921875 8.2722168 C-2.76696992 5.46633589 -1.36924255 2.73848509 0 0 Z M6 22 C3.43178817 28.51262829 0.86883051 35.02730587 -1.69042969 41.54345703 C-2.56225755 43.76138451 -3.43530127 45.97883444 -4.30957031 48.19580078 C-5.56372527 51.3766904 -6.81354266 54.55925409 -8.0625 57.7421875 C-8.45622803 58.73805878 -8.84995605 59.73393005 -9.25561523 60.75997925 C-9.61598877 61.68078278 -9.9763623 62.6015863 -10.34765625 63.55029297 C-10.82730835 64.76940872 -10.82730835 64.76940872 -11.31665039 66.01315308 C-12.10841256 67.96503116 -12.10841256 67.96503116 -12 70 C0.54 70 13.08 70 26 70 C24.329375 65.606875 22.65875 61.21375 20.9375 56.6875 C16.55568428 45.14997514 12.23043651 33.59399494 8 22 C7.34 22 6.68 22 6 22 Z " fill="#414B4C" transform="translate(1437,916)"></path>
<path d="M0 0 C31.68 0 63.36 0 96 0 C96 4.95 96 9.9 96 15 C82.8 15 69.6 15 56 15 C56 48.66 56 82.32 56 117 C50.72 117 45.44 117 40 117 C40 83.34 40 49.68 40 15 C26.8 15 13.6 15 0 15 C0 10.05 0 5.1 0 0 Z " fill="#414B4C" transform="translate(2337,916)"></path>
<path d="M0 0 C31.68 0 63.36 0 96 0 C96 4.95 96 9.9 96 15 C82.8 15 69.6 15 56 15 C56 48.66 56 82.32 56 117 C50.72 117 45.44 117 40 117 C40 83.34 40 49.68 40 15 C26.8 15 13.6 15 0 15 C0 10.05 0 5.1 0 0 Z " fill="#414B4C" transform="translate(1725,916)"></path>
<path d="M0 0 C5.28 0 10.56 0 16 0 C16 33.66 16 67.32 16 102 C37.12 102 58.24 102 80 102 C80 106.95 80 111.9 80 117 C53.6 117 27.2 117 0 117 C0 78.39 0 39.78 0 0 Z " fill="#414B4C" transform="translate(2665,916)"></path>
<path d="M0 0 C5.28 0 10.56 0 16 0 C16 38.61 16 77.22 16 117 C10.72 117 5.44 117 0 117 C0 78.39 0 39.78 0 0 Z " fill="#414B4C" transform="translate(2819,916)"></path>
</svg>