<?xml version="1.0"?>
<svg version="1.1" xmlns="http://www.w3.org/2000/svg" width="3508" height="1234">
<path d="M0 0 C0.81709442 -0.00067474 1.63418884 -0.00134949 2.4760437 -0.00204468 C87.8991771 0.10839714 173.90683705 28.04926387 241.1875 81.25 C241.79899902 81.73291504 242.41049805 82.21583008 243.04052734 82.71337891 C251.16011635 89.15004895 259.02616714 95.77025144 266.59765625 102.84375 C268.73406893 104.82871261 270.90192515 106.73931489 273.125 108.625 C281.78142198 116.14051281 289.79470556 124.50030025 297.1875 133.25 C298.07417391 134.26289941 298.96233301 135.27449966 299.8515625 136.28515625 C318.57977062 157.66809636 334.46129139 181.38416585 348.1875 206.25 C348.76008545 207.269729 348.76008545 207.269729 349.34423828 208.31005859 C374.76698025 253.68816791 388.64080623 304.76057606 394.1875 356.25 C394.2920752 357.21510498 394.39665039 358.18020996 394.50439453 359.17456055 C395.54726781 370.47732939 395.43131659 381.84670643 395.4375 393.1875 C395.43851212 394.85597992 395.43851212 394.85597992 395.43954468 396.5581665 C395.42247358 414.30923221 394.8207211 431.66779003 392.1875 449.25 C392.01589355 450.40435547 391.84428711 451.55871094 391.66748047 452.74804688 C380.9864224 522.12242581 352.81545732 587.93102508 308.1875 642.25 C307.73810059 642.7970459 307.28870117 643.3440918 306.82568359 643.90771484 C292.05206207 661.79433076 276.10244931 680.01826299 257.7265625 694.26953125 C255.32275808 696.1444987 253.02121643 698.10972433 250.72387695 700.11279297 C236.64377173 712.3288806 221.12210564 722.63018428 205.1875 732.25 C204.38006348 732.73823242 203.57262695 733.22646484 202.74072266 733.72949219 C159.57525702 759.60659607 111.63913726 776.67414424 61.9375 784.5 C60.98222412 784.65114258 60.02694824 784.80228516 59.04272461 784.95800781 C40.12969082 787.7473458 21.28533607 788.62778777 2.1875 788.5625 C1.07398163 788.56067719 -0.03953674 788.55885437 -1.1867981 788.55697632 C-18.90270194 788.50831801 -36.26767396 787.89035335 -53.8125 785.25 C-54.96540527 785.07839355 -56.11831055 784.90678711 -57.30615234 784.72998047 C-93.8979965 779.09698093 -129.21673622 768.78653158 -162.8125 753.25 C-164.44627338 752.51356549 -166.08037895 751.77786742 -167.71484375 751.04296875 C-194.38788573 738.90266504 -220.1060344 722.80654692 -242.8125 704.25 C-243.73160156 703.52039063 -244.65070313 702.79078125 -245.59765625 702.0390625 C-251.64468934 697.19123006 -257.3755666 692.06353515 -263.05078125 686.79296875 C-265.22790629 684.78828926 -267.42962768 682.848748 -269.6875 680.9375 C-278.7095394 673.10705071 -287.1210821 664.38045738 -294.8125 655.25 C-295.69774476 654.2382917 -296.58461968 653.22800865 -297.47265625 652.21875 C-320.24424131 626.2203159 -338.26544368 597.01663091 -353.8125 566.25 C-354.19293457 565.49992676 -354.57336914 564.74985352 -354.96533203 563.97705078 C-397.19705845 479.93055435 -403.7355661 377.90063686 -373.125 269.25 C-357.4451561 222.68131636 -333.36699451 179.88426177 -301.8125 142.25 C-301.33876953 141.68458496 -300.86503906 141.11916992 -300.37695312 140.53662109 C-295.00143328 134.13892228 -289.61818627 127.85732858 -283.60546875 122.04296875 C-281.73186346 120.16936346 -280.02542833 118.2083705 -278.3125 116.1875 C-275.47739531 112.90106698 -272.46596968 110.08178204 -269.15625 107.28125 C-266.82256491 105.25872292 -264.57301452 103.16009035 -262.32666016 101.04150391 C-255.67934275 94.79021375 -248.74291307 89.0777133 -241.49169922 83.54394531 C-239.92772645 82.33879038 -238.38666066 81.10406852 -236.84765625 79.8671875 C-205.9983646 55.30126012 -169.78777505 36.63260721 -132.8125 23.25 C-131.86084961 22.90485352 -130.90919922 22.55970703 -129.92871094 22.20410156 C-98.70524485 11.02662547 -65.89508839 3.87835837 -32.8125 1.25 C-31.75313232 1.16459961 -30.69376465 1.07919922 -29.60229492 0.99121094 C-19.72885192 0.26028143 -9.89772868 0.00747075 0 0 Z M-49.8125 53.25 C-51.4224585 53.50740967 -51.4224585 53.50740967 -53.06494141 53.77001953 C-85.68211516 59.17321974 -116.99602728 68.99283098 -146.8125 83.25 C-147.62493164 83.63236816 -148.43736328 84.01473633 -149.27441406 84.40869141 C-179.31307417 98.60116098 -206.40157784 117.79695044 -230.8125 140.25 C-232.47874255 141.72964441 -234.14541702 143.20880256 -235.8125 144.6875 C-243.65283755 151.75241955 -250.98582628 159.20528906 -257.8125 167.25 C-258.59882813 168.1471875 -259.38515625 169.044375 -260.1953125 169.96875 C-273.25921919 184.97228665 -284.57052519 201.21410621 -294.8125 218.25 C-295.20211914 218.89404785 -295.59173828 219.5380957 -295.99316406 220.20166016 C-324.46010709 267.69254705 -342.74576098 325.22959422 -343.015625 380.875 C-343.02268463 381.85179214 -343.02974426 382.82858429 -343.03701782 383.8349762 C-343.15222048 404.4690407 -343.26317892 424.84732268 -339.8125 445.25 C-339.60850586 446.47879883 -339.40451172 447.70759766 -339.19433594 448.97363281 C-336.22630212 466.40597116 -332.26275769 483.41544003 -326.8125 500.25 C-326.41708008 501.50151855 -326.41708008 501.50151855 -326.01367188 502.77832031 C-314.32733735 539.49215572 -295.57283987 573.97997798 -271.8125 604.25 C-270.87083984 605.46236328 -270.87083984 605.46236328 -269.91015625 606.69921875 C-267.90776421 609.24213379 -265.86708933 611.74908157 -263.8125 614.25 C-263.02230469 615.22710938 -262.23210937 616.20421875 -261.41796875 617.2109375 C-254.94920585 625.06773938 -247.9237148 632.35211193 -240.75 639.5625 C-239.84040527 640.4812793 -238.93081055 641.40005859 -237.99365234 642.34667969 C-231.90561051 648.407362 -225.52103092 653.89199781 -218.8125 659.25 C-217.77324606 660.12513787 -216.73812799 661.00526484 -215.7109375 661.89453125 C-159.81005076 709.92083487 -83.33894205 737.75402234 -9.8125 739.25 C-9.02810547 739.27046387 -8.24371094 739.29092773 -7.43554688 739.31201172 C46.12301232 740.55540881 99.88379507 729.54804866 148.1875 706.25 C149.41194824 705.66847168 149.41194824 705.66847168 150.66113281 705.07519531 C184.38005111 689.0116763 216.17856105 667.18967633 242.1875 640.25 C244.83933732 637.58057172 247.50996959 634.93229116 250.203125 632.3046875 C257.02053439 625.62563882 263.33406251 618.80625567 269.1875 611.25 C270.19400701 609.97265357 271.20051768 608.69531001 272.20703125 607.41796875 C296.500084 576.3555585 315.51244434 541.62402946 328.1875 504.25 C328.50412598 503.31800781 328.82075195 502.38601563 329.14697266 501.42578125 C339.51337798 470.37528469 345.52174005 437.02528603 346.1875 404.25 C346.20796387 403.51475098 346.22842773 402.77950195 346.24951172 402.02197266 C348.56899911 311.14023943 313.03970542 222.74536475 250.84667969 156.98388672 C238.03863213 143.57059138 238.03863213 143.57059138 224.01953125 131.46484375 C221.87097296 129.78452299 219.78000656 128.07724557 217.69921875 126.31640625 C202.11986624 113.21104533 185.07670274 102.32749142 167.31005859 92.43457031 C165.3919478 91.36409946 163.48634944 90.2744173 161.58203125 89.1796875 C129.4883542 71.26525082 92.9601111 60.19253486 56.875 54 C55.55363037 53.77304443 55.55363037 53.77304443 54.20556641 53.54150391 C36.90041236 50.76552759 19.69384997 49.87259647 2.1875 49.9375 C0.64795151 49.94023422 0.64795151 49.94023422 -0.92269897 49.94302368 C-17.3864025 49.99207749 -33.52802731 50.62759866 -49.8125 53.25 Z " fill="#FFFFFF" transform="translate(513.8125,244.75)"></path>
<path d="M0 0 C8.68064714 4.89272839 13.31265091 10.56295273 16.4375 19.9375 C16.54325783 22.67273291 16.59234326 25.38313788 16.59571838 28.11882019 C16.60312535 29.38448278 16.60312535 29.38448278 16.61068195 30.67571431 C16.62608402 33.51321833 16.63442491 36.35069966 16.64282227 39.18823242 C16.65239866 41.21820781 16.6624086 43.24818119 16.67282104 45.27815247 C16.69990203 50.79844712 16.7208943 56.31875036 16.74082303 61.83907485 C16.76266289 67.60467204 16.79006135 73.37024269 16.81687927 79.13581848 C16.86683323 90.05798838 16.91176203 100.98017299 16.95490164 111.9023717 C17.00425092 124.33511222 17.05917761 136.76782612 17.11458123 149.2005409 C17.22844277 174.77950244 17.33527272 200.35848951 17.4375 225.9375 C18.30270264 225.05924561 19.16790527 224.18099121 20.05932617 223.27612305 C21.22038642 222.10450237 22.38160932 220.93304286 23.54296875 219.76171875 C24.11011597 219.18514526 24.67726318 218.60857178 25.26159668 218.01452637 C56.77790171 186.29640935 103.45679721 169.99633094 147.54248047 169.69604492 C149.04914948 169.69149995 150.5558246 169.68868763 152.0625 169.6875 C152.83450745 169.68682526 153.60651489 169.68615051 154.4019165 169.68545532 C205.76535477 169.75639747 252.79477599 186.5047585 290.0625 222.25 C318.52028011 251.59220838 333.78412504 290.82090369 338.4375 330.9375 C338.5247638 331.63134324 338.61202761 332.32518648 338.70193577 333.04005527 C339.80867165 343.1467005 339.6176932 353.31347038 339.64624023 363.46655273 C339.65579204 365.64572291 339.66568375 367.82489162 339.67588806 370.00405884 C339.70709906 377.12638587 339.72750992 384.248724 339.74609375 391.37109375 C339.74939107 392.58564531 339.75268839 393.80019686 339.75608563 395.05155301 C339.78684114 406.51634721 339.81352856 417.98114424 339.83050442 429.44596767 C339.85242858 444.07609109 339.89447863 458.70568171 339.96394199 473.33564991 C340.01121857 483.64425209 340.03544221 493.95275557 340.0427013 504.26146275 C340.04764855 510.40990816 340.06264457 516.55793951 340.1024456 522.7062664 C340.13939335 528.48899973 340.14769456 534.27108374 340.13443947 540.05391312 C340.13449327 542.16942129 340.14472768 544.28495891 340.1661911 546.4003582 C340.28574757 558.85422313 340.23320729 568.96195716 331.75760555 578.90904903 C326.12296917 584.62159461 317.78247624 587.10128673 309.9375 587.4375 C301.34546092 587.05753821 293.40181439 584.19283661 287.28783131 578.02105427 C278.8557344 568.52614304 279.73266837 557.85632493 279.80981445 545.88989258 C279.80463029 543.85678961 279.79722615 541.82369128 279.78778076 539.79060364 C279.77225275 535.42429634 279.77236406 531.05837313 279.78478432 526.69205666 C279.80440874 519.76640342 279.78907355 512.84108784 279.76933289 505.91545105 C279.74220096 494.93940604 279.73868608 483.96349933 279.74510592 472.98742741 C279.75602797 453.38884048 279.73116428 433.79029724 279.69135827 414.19175261 C279.67840369 407.33049729 279.67695946 400.46936934 279.6854912 393.60810816 C279.68916087 389.305509 279.68476448 385.00294124 279.6786499 380.70034599 C279.67758013 378.7313894 279.67983347 376.76242716 279.6859951 374.79347992 C279.7169552 364.38474281 279.42085191 354.07921602 278.53581238 343.70439148 C278.45669595 342.77497138 278.37757952 341.84555128 278.29606563 340.88796693 C275.85045662 314.6713718 267.32558308 290.33901295 250.4375 269.9375 C249.39335937 268.64779297 249.39335937 268.64779297 248.328125 267.33203125 C228.82127676 244.37232848 196.08253448 230.38724657 166.4375 227.9375 C144.53517811 226.28793579 123.6963134 227.23601915 102.4375 232.9375 C101.21160156 233.26234375 99.98570312 233.5871875 98.72265625 233.921875 C82.69034588 238.72634586 67.19663777 247.12335275 54.4375 257.9375 C53.57125 258.65421875 52.705 259.3709375 51.8125 260.109375 C31.23232328 277.80330742 19.51145568 301.98869628 17.4375 328.9375 C17.31323505 332.31175778 17.30777206 335.68047757 17.31965637 339.05673218 C17.31895179 340.02461155 17.31824721 340.99249091 17.31752127 341.98969996 C17.31622158 345.20587952 17.32186786 348.4220091 17.32739258 351.63818359 C17.32763494 353.95513408 17.32735681 356.27208466 17.32659912 358.58903503 C17.32549585 363.56584378 17.32691827 368.54264327 17.32996559 373.51945114 C17.33360787 381.3955247 17.32443965 389.2715505 17.31217957 397.14761353 C17.31013307 398.49239011 17.30809073 399.8371667 17.30605251 401.1819433 C17.30189717 403.90352002 17.29768221 406.62509665 17.29344499 409.34667325 C17.28266127 416.32779382 17.27284473 423.30891525 17.2644043 430.29003906 C17.26355305 430.99001202 17.2627018 431.68998498 17.26182475 432.41116925 C17.24860385 443.75443759 17.2536256 455.09763565 17.26447586 466.44090323 C17.275125 478.11212092 17.26245922 489.78315251 17.23039359 501.45433104 C17.21326182 507.99733597 17.20691621 514.53995175 17.226511 521.08295822 C17.24477765 527.23754741 17.23506598 533.39146642 17.20425415 539.54599953 C17.19790477 541.79854259 17.20170163 544.05114177 17.21665001 546.30364418 C17.35543905 568.90215271 17.35543905 568.90215271 10.4375 577.9375 C4.02045678 584.42331316 -3.4805547 587.03533395 -12.5 587.3125 C-21.74908554 587.03044402 -29.98484215 584.73441311 -36.5625 577.9375 C-41.29553884 571.04986886 -42.71095821 565.37209666 -42.69672108 557.06641197 C-42.69907331 556.14379478 -42.70142554 555.22117758 -42.70384905 554.27060229 C-42.71055557 551.1500656 -42.71008033 548.0295704 -42.70967102 544.9090271 C-42.71296862 542.66071052 -42.71669396 540.41239453 -42.7208125 538.16407931 C-42.73085248 531.96297269 -42.7345525 525.76187576 -42.73720181 519.56076217 C-42.74069912 513.56688703 -42.74884584 507.57301864 -42.75674575 501.57914809 C-42.77760058 485.51571641 -42.78806165 469.45228289 -42.79687535 453.38884083 C-42.80108045 445.79116546 -42.80630263 438.19349088 -42.81155988 430.59581618 C-42.82945113 404.5934578 -42.84444755 378.5910992 -42.85188007 352.58873558 C-42.85235483 350.95596152 -42.85283072 349.32318746 -42.85330774 347.69041339 C-42.85354411 346.88069539 -42.85378049 346.07097739 -42.85402403 345.23672248 C-42.85522524 341.13421472 -42.85644068 337.03170697 -42.85766602 332.92919922 C-42.85790617 332.1150406 -42.85814632 331.30088198 -42.85839374 330.46205189 C-42.86628729 304.06299959 -42.88971971 277.66399221 -42.92222196 251.26495953 C-42.95651391 223.36139772 -42.97623064 195.4578622 -42.97952431 167.55427897 C-42.97994186 164.49150442 -42.98042142 161.42872989 -42.98094749 158.36595535 C-42.98107069 157.6118015 -42.98119388 156.85764764 -42.9813208 156.08064064 C-42.98365365 143.93986853 -42.99931834 131.79914856 -43.01978934 119.65839503 C-43.04003766 107.45616929 -43.04552936 95.25400622 -43.03601871 83.0517668 C-43.0312594 76.44011209 -43.03343287 69.82859097 -43.05278015 63.21694946 C-43.0703352 57.16561826 -43.06947628 51.11458103 -43.05388286 45.06324704 C-43.05149514 42.87274338 -43.05589025 40.68221977 -43.06771151 38.49174671 C-43.08278063 35.51535132 -43.0731919 32.54000424 -43.05748463 29.56363487 C-43.06770683 28.71216293 -43.07792904 27.86069098 -43.08846101 26.98341686 C-42.9919313 18.60879106 -39.91785646 11.62731204 -34.27734375 5.44140625 C-25.62398801 -2.1475276 -10.7761914 -3.52714698 0 0 Z " fill="#FFFFFF" transform="translate(2480.5625,248.0625)"></path>
<path d="M0 0 C1.31738159 -0.01058945 1.31738159 -0.01058945 2.66137695 -0.02139282 C42.73148868 -0.27037164 79.71400437 4.96073525 115.42578125 24.203125 C116.02197266 24.51862305 116.61816406 24.83412109 117.23242188 25.15917969 C162.60895477 49.29829449 196.8215998 93.02322339 211.8984375 141.8984375 C229.1056551 200.42242053 224.53425666 263.24136051 195.30859375 317.07421875 C191.99742977 323.03539247 188.48344488 328.71287402 184.42578125 334.203125 C183.65878906 335.25242187 182.89179688 336.30171875 182.1015625 337.3828125 C176.35492367 345.11345072 170.07880068 352.24598101 163.42578125 359.203125 C162.55179688 360.12996094 161.6778125 361.05679687 160.77734375 362.01171875 C122.57337501 401.50409112 68.51132242 419.25012547 14.53808594 420.36962891 C-19.66037996 420.71992286 -53.78951384 414.26783383 -84.57421875 399.203125 C-85.29206543 398.85378906 -86.00991211 398.50445313 -86.74951172 398.14453125 C-134.97936556 374.38319563 -170.2713128 331.79066257 -187.57421875 281.203125 C-191.86302314 267.48652917 -194.88747377 253.47391603 -196.57421875 239.203125 C-196.66848145 238.41502441 -196.76274414 237.62692383 -196.85986328 236.81494141 C-202.6136091 182.25213889 -190.84699733 126.94093455 -158.57421875 82.203125 C-158.15269531 81.60661133 -157.73117188 81.01009766 -157.296875 80.39550781 C-145.78267478 64.23700159 -130.89788881 49.46789104 -114.57421875 38.203125 C-114.01524902 37.80512695 -113.4562793 37.40712891 -112.88037109 36.99707031 C-80.35882183 13.85102168 -40.02702783 0.21588432 0 0 Z M-101.57421875 103.265625 C-131.24739199 136.75528355 -141.45707927 180.42506431 -139.57421875 224.203125 C-138.18867922 244.84209567 -132.68653465 264.66427541 -123.57421875 283.203125 C-123.03023437 284.31945312 -122.48625 285.43578125 -121.92578125 286.5859375 C-115.0266514 300.02790411 -106.01334994 311.37735933 -95.57421875 322.203125 C-94.85878906 322.98171875 -94.14335937 323.7603125 -93.40625 324.5625 C-69.78143808 349.5613629 -32.80205608 364.47189707 1.33062744 365.4680481 C4.75867355 365.52910916 8.18481931 365.53369377 11.61328125 365.515625 C12.33500519 365.51380219 13.05672913 365.51197937 13.80032349 365.51010132 C25.23398762 365.46162348 36.26743115 364.83105353 47.42578125 362.203125 C48.1621582 362.03683594 48.89853516 361.87054687 49.65722656 361.69921875 C86.78815546 353.09745916 119.59007155 329.38472697 139.74951172 297.08203125 C148.16907137 283.19486341 154.20556546 268.73853266 158.23828125 253.015625 C158.43333252 252.25717285 158.62838379 251.4987207 158.8293457 250.71728516 C162.02703135 237.38771773 162.80555768 224.15241444 162.73828125 210.515625 C162.7361261 209.72598358 162.73397095 208.93634216 162.73175049 208.12277222 C162.67852651 195.94478647 162.23961941 184.10315753 159.42578125 172.203125 C159.22710449 171.35830566 159.02842773 170.51348633 158.82373047 169.64306641 C149.19537623 130.19926915 125.78658661 95.93212824 90.90136719 74.65087891 C27.57059563 37.61424426 -51.60571495 51.14193015 -101.57421875 103.265625 Z " fill="#FFFFFF" transform="translate(3118.57421875,418.796875)"></path>
<path d="M0 0 C5.74934879 5.28201042 9.80635658 11.18363872 11 19 C11.09604321 21.9200779 11.14183795 24.81620236 11.13803101 27.73608398 C11.14085229 28.61575364 11.14367357 29.4954233 11.14658034 30.40174961 C11.15491381 33.34987326 11.15626359 36.29795929 11.15771484 39.24609375 C11.16238439 41.36051539 11.16752819 43.47493604 11.17311096 45.58935547 C11.18439004 50.14606634 11.19282555 54.70277068 11.19923019 59.25949097 C11.20993007 66.48234473 11.23018415 73.70515197 11.25234985 80.92797852 C11.31419463 101.46889085 11.3681472 122.00980123 11.40136719 142.55078125 C11.41979137 153.89333528 11.44883048 165.23581197 11.4893719 176.57830906 C11.51032389 182.57215351 11.52588216 188.56590096 11.52817917 194.55978394 C11.53034815 200.21350724 11.54644334 205.86702918 11.57256889 211.52069092 C11.5796805 213.57916142 11.58190321 215.63765655 11.57846642 217.69613647 C11.5543595 234.90272478 12.68808812 252.24112075 17.6875 268.8125 C18.06660522 270.10003174 18.06660522 270.10003174 18.45336914 271.41357422 C21.03785644 279.77994879 24.66182784 287.41422092 29 295 C29.81404297 296.4540625 29.81404297 296.4540625 30.64453125 297.9375 C46.77783151 324.94409508 74.13796949 341.84817211 104.19604492 349.42944336 C110.42052843 350.930541 116.64407233 352.19616209 123 353 C123.8146875 353.11085938 124.629375 353.22171875 125.46875 353.3359375 C161.74383249 357.47846235 200.40568544 349.96590645 230.1875 328.25 C233.9783192 325.21734464 237.56825081 322.00912157 241.07421875 318.65234375 C243 317 243 317 245 317 C245.25652344 316.41863281 245.51304687 315.83726562 245.77734375 315.23828125 C247.11146811 312.79593858 248.62072773 311.17634553 250.5625 309.1875 C269.90768104 287.70065645 273.46693157 261.19540321 273.38476562 233.38696289 C273.38887853 231.04455299 273.39434364 228.70214513 273.40104675 226.35974121 C273.41270509 221.34698819 273.41528021 216.33434508 273.41069031 211.32158089 C273.40442555 204.0644881 273.41648112 196.80752974 273.43419749 189.55045968 C273.46274157 177.75882445 273.48033275 165.96720319 273.48876953 154.17553711 C273.4895303 153.12051494 273.4895303 153.12051494 273.49030644 152.04417919 C273.4943401 146.33479983 273.49783603 140.62542015 273.50130367 134.91604042 C273.5043629 129.91464851 273.50763485 124.91325679 273.51123047 119.91186523 C273.51173308 119.2072655 273.5122357 118.50266576 273.51275355 117.77671451 C273.52150599 106.01609867 273.54195254 94.25553088 273.57071257 82.49494737 C273.58904745 74.61453136 273.59296935 66.73428082 273.58577728 58.85384858 C273.58425464 53.95427064 273.59504336 49.05477549 273.60915565 44.15522003 C273.6131547 41.88689677 273.61203946 39.61855773 273.60538292 37.35024071 C273.59698262 34.24928824 273.60701323 31.14890713 273.62145996 28.04798889 C273.61111906 26.70877816 273.61111906 26.70877816 273.60056925 25.34251267 C273.6765682 16.94391194 275.70652362 9.65465602 281 3 C288.89587876 -4.54495081 296.32998783 -5.98703522 307 -6 C315.66429408 -5.27246386 322.08030562 -1.3454298 327.875 5 C333.24010671 11.51128859 334.12326261 18.04284437 334.12863445 26.35101795 C334.1318589 27.61491976 334.13508335 28.87882156 334.1384055 30.18102342 C334.1369345 31.57598939 334.13536679 32.97095526 334.13371277 34.36592102 C334.13558158 35.85373864 334.13788257 37.34155576 334.14057809 38.82937211 C334.14669377 42.91441425 334.14656277 46.99943592 334.14538372 51.0844816 C334.14517965 55.49154563 334.15069901 59.89860309 334.15544128 64.30566406 C334.1637471 72.93862668 334.16649609 81.57158247 334.16705366 90.20454875 C334.16752885 97.2218739 334.16958373 104.23919679 334.17275429 111.25652122 C334.18156062 131.15233026 334.18617369 151.04813391 334.18542381 170.94394491 C334.18536388 172.55276762 334.18536388 172.55276762 334.18530273 174.1940918 C334.18526185 175.26794993 334.18522097 176.34180806 334.18517885 177.44820734 C334.18477237 194.85287758 334.19434244 212.25752619 334.2084411 229.66219018 C334.22280359 247.53357124 334.22971136 265.40494176 334.22884732 283.27632874 C334.22851531 293.30959276 334.2312642 303.34283409 334.24202538 313.37609291 C334.25112868 321.91835915 334.25330701 330.46059243 334.24651595 339.00286142 C334.24324992 343.36038953 334.2431971 347.7178544 334.2518692 352.07537651 C334.25973137 356.06700901 334.25830566 360.05852808 334.24958507 364.05015781 C334.24804946 365.49158313 334.24986854 366.9330169 334.25544515 368.37443224 C334.2972305 379.94429578 333.96891533 389.96063336 326 399 C318.36923358 405.60110663 310.71946329 407.49868067 300.796875 407.23828125 C291.48717987 406.44513683 285.17168334 403.05335239 279 396 C274.86756863 389.78993739 273.91960422 383.77047485 273.68359375 376.38671875 C273.64169922 375.13955078 273.59980469 373.89238281 273.55664062 372.60742188 C273.51732422 371.31384766 273.47800781 370.02027344 273.4375 368.6875 C273.39431641 367.37458984 273.35113281 366.06167969 273.30664062 364.70898438 C273.20072773 361.47275712 273.09865115 358.23645542 273 355 C272.57009766 355.50934082 272.14019531 356.01868164 271.69726562 356.54345703 C267.87867008 360.99813815 263.9782268 365.08598291 259.5 368.875 C258.601604 369.63744019 258.601604 369.63744019 257.68505859 370.4152832 C251.15545579 375.85040182 244.2294637 380.55180769 237 385 C236.37399902 385.38784668 235.74799805 385.77569336 235.10302734 386.17529297 C209.64646664 401.74695167 178.99836078 410.94199461 149.1015625 411.23828125 C148.27717682 411.2480751 147.45279114 411.25786896 146.60342407 411.26795959 C119.71605678 411.52129871 94.70212605 409.52721293 69 401 C67.95658447 400.66427979 67.95658447 400.66427979 66.89208984 400.32177734 C49.27545143 394.57824707 32.46962509 385.5636814 18 374 C17.4220166 373.54012695 16.8440332 373.08025391 16.24853516 372.60644531 C-2.50777785 357.50528733 -16.96998047 339.37831887 -28 318 C-28.31952637 317.38157227 -28.63905273 316.76314453 -28.96826172 316.12597656 C-45.44421783 283.72527249 -49.1424778 247.76173324 -49.16113281 211.92480469 C-49.16577073 209.8306164 -49.17079667 207.73642894 -49.17617798 205.64224243 C-49.18920024 199.99382014 -49.19572551 194.34540968 -49.20018864 188.69697475 C-49.20313264 185.16269971 -49.20723961 181.62842781 -49.21169281 178.09415436 C-49.22533369 167.0192818 -49.23502001 155.94441653 -49.2388947 144.86953616 C-49.24338346 132.11353567 -49.26098359 119.35764189 -49.2898953 106.60167384 C-49.31152031 96.71596457 -49.32159923 86.83028533 -49.32293582 76.94455266 C-49.32398217 71.05009796 -49.32985546 65.15574406 -49.34775543 59.26131439 C-49.36425284 53.72244884 -49.36638346 48.18375978 -49.35761642 42.64487839 C-49.35684727 40.6172399 -49.36117272 38.58959184 -49.37107468 36.56197739 C-49.48616132 11.52126997 -49.48616132 11.52126997 -39.4765625 1.13671875 C-28.48783178 -8.34409466 -11.6596 -8.31950369 0 0 Z " fill="#FFFFFF" transform="translate(1586,428)"></path>
<path d="M0 0 C0.77200745 -0.00067474 1.54401489 -0.00134949 2.3394165 -0.00204468 C53.70285477 0.06889747 100.73227599 16.8172585 138 52.5625 C166.45778011 81.90470838 181.72162504 121.13340369 186.375 161.25 C186.4622638 161.94384324 186.54952761 162.63768648 186.63943577 163.35255527 C187.74617165 173.4592005 187.5551932 183.62597038 187.58374023 193.77905273 C187.59329204 195.95822291 187.60318375 198.13739162 187.61338806 200.31655884 C187.64459906 207.43888587 187.66500992 214.561224 187.68359375 221.68359375 C187.68689107 222.89814531 187.69018839 224.11269686 187.69358563 225.36405301 C187.72434114 236.82884721 187.75102856 248.29364424 187.76800442 259.75846767 C187.78992858 274.38859109 187.83197863 289.01818171 187.90144199 303.64814991 C187.94871857 313.95675209 187.97294221 324.26525557 187.9802013 334.57396275 C187.98514855 340.72240816 188.00014457 346.87043951 188.0399456 353.0187664 C188.07689335 358.80149973 188.08519456 364.58358374 188.07193947 370.36641312 C188.07199327 372.48192129 188.08222768 374.59745891 188.1036911 376.7128582 C188.22324757 389.16672313 188.17070729 399.27445716 179.69510555 409.22154903 C174.06046917 414.93409461 165.71997624 417.41378673 157.875 417.75 C149.28296092 417.37003821 141.33931439 414.50533661 135.22533131 408.33355427 C126.7932344 398.83864304 127.67016837 388.16882493 127.74731445 376.20239258 C127.74213029 374.16928961 127.73472615 372.13619128 127.72528076 370.10310364 C127.70975275 365.73679634 127.70986406 361.37087313 127.72228432 357.00455666 C127.74190874 350.07890342 127.72657355 343.15358784 127.70683289 336.22795105 C127.67970096 325.25190604 127.67618608 314.27599933 127.68260592 303.29992741 C127.69352797 283.70134048 127.66866428 264.10279724 127.62885827 244.50425261 C127.61590369 237.64299729 127.61445946 230.78186934 127.6229912 223.92060816 C127.62666087 219.618009 127.62226448 215.31544124 127.6161499 211.01284599 C127.61508013 209.0438894 127.61733347 207.07492716 127.6234951 205.10597992 C127.6544552 194.69724281 127.35835191 184.39171602 126.47331238 174.01689148 C126.39419595 173.08747138 126.31507952 172.15805128 126.23356563 171.20046693 C123.78795662 144.9838718 115.26308308 120.65151295 98.375 100.25 C97.33085938 98.96029297 97.33085938 98.96029297 96.265625 97.64453125 C76.75877676 74.68482848 44.02003448 60.69974657 14.375 58.25 C-7.52732189 56.60043579 -28.3661866 57.54851915 -49.625 63.25 C-51.46384766 63.73726563 -51.46384766 63.73726563 -53.33984375 64.234375 C-69.37215412 69.03884586 -84.86586223 77.43585275 -97.625 88.25 C-98.49125 88.96671875 -99.3575 89.6834375 -100.25 90.421875 C-120.83017672 108.11580742 -132.55104432 132.30119628 -134.625 159.25 C-134.74926495 162.62425778 -134.75472794 165.99297757 -134.74284363 169.36923218 C-134.74354821 170.33711155 -134.74425279 171.30499091 -134.74497873 172.30219996 C-134.74627842 175.51837952 -134.74063214 178.7345091 -134.73510742 181.95068359 C-134.73486506 184.26763408 -134.73514319 186.58458466 -134.73590088 188.90153503 C-134.73700415 193.87834378 -134.73558173 198.85514327 -134.73253441 203.83195114 C-134.72889213 211.7080247 -134.73806035 219.5840505 -134.75032043 227.46011353 C-134.75236693 228.80489011 -134.75440927 230.1496667 -134.75644749 231.4944433 C-134.76060283 234.21602002 -134.76481779 236.93759665 -134.76905501 239.65917325 C-134.77983873 246.64029382 -134.78965527 253.62141525 -134.7980957 260.60253906 C-134.79894695 261.30251202 -134.7997982 262.00248498 -134.80067525 262.72366925 C-134.81389615 274.06693759 -134.8088744 285.41013565 -134.79802414 296.75340323 C-134.787375 308.42462092 -134.80004078 320.09565251 -134.83210641 331.76683104 C-134.84923818 338.30983597 -134.85558379 344.85245175 -134.835989 351.39545822 C-134.81772235 357.55004741 -134.82743402 363.70396642 -134.85824585 369.85849953 C-134.86459523 372.11104259 -134.86079837 374.36364177 -134.84584999 376.61614418 C-134.70706095 399.21465271 -134.70706095 399.21465271 -141.625 408.25 C-148.04204322 414.73581316 -155.5430547 417.34783395 -164.5625 417.625 C-173.81158554 417.34294402 -182.04734215 415.04691311 -188.625 408.25 C-192.66288656 402.37397106 -194.74776114 397.28997863 -194.75922108 390.13036251 C-194.76367892 388.84169999 -194.76813676 387.55303747 -194.77272969 386.22532457 C-194.77264039 384.78684866 -194.77245053 383.34837274 -194.77217102 381.90989685 C-194.77546954 380.38825752 -194.77919508 378.86661906 -194.7833125 377.34498173 C-194.79334223 373.15248228 -194.79705086 368.95999715 -194.79970181 364.76748741 C-194.80360204 360.24991806 -194.81318065 355.73236008 -194.82191467 351.21479797 C-194.84168818 340.29859143 -194.85174692 329.38238394 -194.86064246 318.46616396 C-194.86502436 313.32657901 -194.87039146 308.1869951 -194.87563133 303.04741096 C-194.89264533 285.96350919 -194.90713934 268.87960807 -194.91438007 251.79569912 C-194.91629 247.36111386 -194.91821033 242.9265286 -194.92016602 238.49194336 C-194.92064976 237.3897355 -194.9211335 236.28752765 -194.9216319 235.15191955 C-194.92993154 217.29828777 -194.9552666 199.444723 -194.98774669 181.59112047 C-195.02081577 163.26443475 -195.03882874 144.93778308 -195.04202431 126.61106735 C-195.04418967 116.32003473 -195.05294195 106.0290998 -195.07848549 95.73809624 C-195.10019049 86.97324877 -195.10824392 78.20852272 -195.09851871 69.44365143 C-195.09397329 64.97253347 -195.09587424 60.50166604 -195.11528015 56.03058243 C-195.13290759 51.9338164 -195.13191763 47.83748373 -195.11638286 43.74071313 C-195.11400613 42.26216371 -195.1183338 40.78358432 -195.13021151 39.3050807 C-195.2077473 29.01239566 -194.48125817 20.31892938 -187.4375 12.375 C-180.58836935 6.14317297 -172.03422054 3.82427168 -162.88671875 4.05078125 C-154.1301203 4.82208785 -148.38338021 7.60049395 -141.81640625 13.41015625 C-135.167702 22.02621327 -134.98213404 31.39828701 -134.875 41.875 C-134.84677741 43.27477543 -134.81684144 44.67451741 -134.78515625 46.07421875 C-134.71497727 49.46620258 -134.66202048 52.85751958 -134.625 56.25 C-133.83738281 55.42757812 -133.04976562 54.60515625 -132.23828125 53.7578125 C-97.31619683 17.76286963 -49.70502155 0.03917964 0 0 Z " fill="#FFFFFF" transform="translate(1234.625,417.75)"></path>
<path d="M0 0 C6.46742935 4.42990293 10.51261405 9.53784214 13 17 C13 81.02 13 145.04 13 211 C158.2 211 303.4 211 453 211 C453 181.63 453 152.26 453 122 C457.51725914 110.70685214 457.51725914 110.70685214 461.4375 107.5 C462.17871094 106.8709375 462.91992188 106.241875 463.68359375 105.59375 C469.29374054 101.73381764 475.6105601 100.53756737 482.3359375 101.24609375 C490.12561743 102.74819927 495.42121256 105.90497155 500.640625 111.828125 C504.87069895 118.58651901 505.43512535 124.78334734 505.38095093 132.55102539 C505.38797089 134.10864515 505.38797089 134.10864515 505.39513266 135.69773197 C505.40706351 139.16450473 505.39763263 142.63088081 505.38818359 146.09765625 C505.39225013 148.58828969 505.39759247 151.07892133 505.40411377 153.56954956 C505.41636467 159.62449021 505.4145834 165.67927616 505.40587585 171.73421073 C505.39909088 176.65672962 505.39818609 181.57921727 505.4014473 186.5017395 C505.401907 187.20328755 505.40236669 187.90483561 505.40284032 188.62764269 C505.40379953 190.05298258 505.40477217 191.47832246 505.4057581 192.90366232 C505.41430544 206.25792197 505.40448817 219.61211977 505.388357 232.96636927 C505.3749544 244.41608704 505.37728268 255.86571356 505.39111328 267.31542969 C505.4071807 280.6230631 505.41348153 293.93064235 505.40427649 307.23828411 C505.40332088 308.65827623 505.40237777 310.07826836 505.4014473 311.4982605 C505.40098447 312.19685891 505.40052164 312.89545732 505.40004479 313.61522537 C505.39745838 318.52980259 505.40181835 323.44434535 505.40888596 328.35891724 C505.41819565 334.97783542 505.41153372 341.59660818 505.39420319 348.21551895 C505.3902383 350.64389892 505.39137241 353.07229339 505.39799118 355.50066757 C505.40619633 358.81696526 505.39589682 362.13271196 505.38095093 365.44897461 C505.38764309 366.40851579 505.39433526 367.36805696 505.40123022 368.35667515 C505.33012398 376.4984847 503.53657891 383.31782174 497.83984375 389.390625 C491.09338636 395.29198476 484.26528705 396.83675611 475.40625 396.48046875 C467.78345096 395.40523448 462.17930019 391.97367814 457.25390625 386.13671875 C434.78121053 347.84212511 453 297.40155352 453 253 C307.8 253 162.6 253 13 253 C13 293.92 13 334.84 13 377 C8.74166754 385.51666493 5.2906184 392.12586114 -3.796875 395.5234375 C-12.08836748 397.31698729 -20.40172406 396.98275228 -27.80859375 392.6875 C-33.57537554 388.24676964 -37.00898553 382.94641271 -39 376 C-39.25299966 372.97080922 -39.25299966 372.97080922 -39.25726891 369.69862747 C-39.2637178 368.44579255 -39.27016669 367.19295763 -39.276811 365.90215802 C-39.273869 364.51967151 -39.27073358 363.13718539 -39.26742554 361.75469971 C-39.27116323 360.27996741 -39.27576523 358.80523709 -39.28115618 357.3305099 C-39.29338695 353.28158595 -39.29312562 349.23274463 -39.29076743 345.18380642 C-39.29035928 340.81556869 -39.30139826 336.44735746 -39.31088257 332.07913208 C-39.32749418 323.52203167 -39.3329922 314.96495881 -39.33410732 306.40784362 C-39.33505776 299.4515462 -39.33916785 292.49525786 -39.34550858 285.53896332 C-39.36312176 265.81422906 -39.37234738 246.08951656 -39.37084763 226.36477438 C-39.37076772 225.30144961 -39.3706878 224.23812485 -39.37060547 223.14257812 C-39.37052371 222.07795415 -39.37044195 221.01333018 -39.37035771 219.91644487 C-39.36954488 202.66438533 -39.38868147 185.41241312 -39.4168822 168.16037884 C-39.44561363 150.44379996 -39.45942234 132.72726366 -39.45769465 115.01066089 C-39.45703082 105.06508621 -39.46252013 95.11960306 -39.48405075 85.17404938 C-39.50226597 76.70570873 -39.5066071 68.2375011 -39.4930319 59.76914933 C-39.48650386 55.44990731 -39.48637905 51.13092045 -39.5037384 46.81170273 C-39.51948163 42.85382495 -39.51659299 38.8964044 -39.49917014 34.93853769 C-39.49610296 33.5105519 -39.49972203 32.08253188 -39.51089029 30.65458646 C-39.58478115 20.53269543 -38.68795413 12.041264 -31.9375 4.125 C-23.01644117 -3.97287099 -10.63122482 -5.25067473 0 0 Z " fill="#FFFFFF" transform="translate(278,445)"></path>
<path d="M0 0 C6.59666523 6.97361753 10.3622568 15.58956938 14.19189453 24.26245117 C15.81811895 27.94421985 17.47174889 31.61370224 19.12109375 35.28515625 C19.45889862 36.03906647 19.79670349 36.79297668 20.14474487 37.56973267 C23.56721869 45.19419102 27.11963243 52.75528472 30.6875 60.3125 C35.75652242 71.06450606 40.72857011 81.85584812 45.625 92.6875 C50.71362724 103.94375658 55.90468781 115.14608395 61.1875 126.3125 C66.47031418 137.47892024 71.6611669 148.68133384 76.75 159.9375 C81.71238306 170.91309494 86.74812179 181.85022549 91.875 192.75 C92.19029663 193.42040314 92.50559326 194.09080627 92.83044434 194.78152466 C93.30060974 195.78117752 93.30060974 195.78117752 93.78027344 196.80102539 C94.40302394 198.12514905 95.02574563 199.44928627 95.6484375 200.7734375 C95.95168945 201.41826584 96.25494141 202.06309418 96.56738281 202.72746277 C100.9221867 211.99477886 105.19704889 221.29900458 109.47802734 230.60058594 C112.53523529 237.24108932 115.60121267 243.87755161 118.66534424 250.51486206 C119.81015302 252.99491562 120.95468343 255.47509744 122.09912109 257.95532227 C125.72178685 265.80610644 129.34573818 273.65628954 132.9743042 281.50434875 C134.62737488 285.07987541 136.27974741 288.6557245 137.93206787 292.2315979 C138.72017085 293.93665436 139.5086166 295.64155242 140.29742432 297.34628296 C141.39576985 299.72003647 142.49292633 302.09433629 143.58984375 304.46875 C143.91092606 305.16184769 144.23200836 305.85494537 144.56282043 306.56904602 C146.51014061 310.78799682 148.3747913 315.03391051 150.1875 319.3125 C154.92642095 310.07124157 159.30339951 300.72924957 163.46633911 291.21694946 C169.72118217 276.93850073 176.17184455 262.75709909 182.75 248.625 C184.36224835 245.16028141 185.97433942 241.69548987 187.5859375 238.23046875 C187.97766647 237.38825272 188.36939545 236.54603668 188.772995 235.67829895 C192.51781088 227.6180048 196.20600011 219.53253663 199.875 211.4375 C200.17576447 210.77400543 200.47652893 210.11051086 200.78640747 209.4269104 C201.99706047 206.75596387 203.20769201 204.08500765 204.41804504 201.41392517 C207.98872347 193.53803867 211.58887773 185.67564627 215.1875 177.8125 C220.68152451 165.805608 226.15816145 153.79098262 231.61575317 141.76748657 C235.10421427 134.08233405 238.60115592 126.40126289 242.12109375 118.73046875 C243.45597794 115.82042653 244.79063369 112.91027972 246.125 110 C246.45644012 109.27718842 246.78788025 108.55437683 247.12936401 107.80966187 C252.59927227 95.87191965 257.94061634 83.88039942 263.24655151 71.86904907 C268.6899462 59.55841225 274.32332665 47.34667612 280.08374023 35.18139648 C283.76912706 27.39166608 287.38738128 19.58004019 290.66796875 11.60888672 C293.28611561 5.46351423 296.66446693 0.67057551 302.6875 -2.5 C303.78578125 -3.09748047 303.78578125 -3.09748047 304.90625 -3.70703125 C312.49133334 -6.96705851 322.25084538 -6.85669053 329.921875 -3.91796875 C336.72620507 -0.22251362 342.97325003 5.41793125 345.62109375 12.82421875 C347.50246853 21.08929279 346.78493667 27.84826021 343.2109375 35.51953125 C342.9014064 36.2046579 342.59187531 36.88978455 342.27296448 37.59567261 C341.25519838 39.83968395 340.222221 42.07626156 339.1875 44.3125 C338.47692339 45.86351799 337.76672383 47.41470878 337.05688477 48.96606445 C334.76311671 53.96440851 332.44495016 58.95126801 330.125 63.9375 C329.28226546 65.75213975 328.43965656 67.56683785 327.59716797 69.3815918 C322.11451375 81.18709868 316.61503868 92.98476725 311.10620117 104.77807617 C301.70835267 124.89716322 292.38336765 145.04940517 283.08474731 165.21447754 C276.92136274 178.57826523 270.71621334 191.92193278 264.484375 205.25390625 C259.55986189 215.79044566 254.66862615 226.34242887 249.77441406 236.89306641 C248.22332112 240.23531375 246.67056006 243.57678037 245.1171875 246.91796875 C239.19597338 259.65670188 233.29660824 272.40522515 227.41448975 285.16204834 C220.47682755 300.20789188 213.50386068 315.23644349 206.48828125 330.24609375 C203.718529 336.17239861 200.956389 342.10219317 198.20092773 348.03515625 C197.11982749 350.36263894 196.03733722 352.68947655 194.95336914 355.015625 C192.2455649 360.83518529 189.57235454 366.66733231 186.953125 372.52734375 C186.42541504 373.69813477 185.89770508 374.86892578 185.35400391 376.07519531 C184.36177971 378.27964907 183.37891017 380.4883497 182.40771484 382.70214844 C177.34057528 393.91385003 171.50228902 402.01796096 159.875 406.625 C149.84703958 408.49461974 140.61395449 407.67330841 132 401.828125 C125.91686223 396.45785494 122.84820502 389.3099677 119.49707031 382.09912109 C117.96460389 378.83820168 116.38752126 375.59993074 114.8046875 372.36328125 C108.18309239 358.80630457 101.69833459 345.19386684 95.37744141 331.49365234 C90.61594087 321.19019479 85.75313221 310.93618308 80.875 300.6875 C74.91210109 288.15766789 68.96430603 275.62123647 63.0625 263.0625 C62.73970062 262.37565125 62.41690125 261.68880249 62.08432007 260.98114014 C61.76154083 260.29433167 61.4387616 259.60752319 61.10620117 258.89990234 C60.45362479 257.51138782 59.80103689 256.12287871 59.1484375 254.734375 C58.82557266 254.04739532 58.50270782 253.36041565 58.1700592 252.65261841 C54.35335654 244.53413886 50.52011385 236.42347664 46.6875 228.3125 C40.84622667 215.94966175 35.01691787 203.58126715 29.19775391 191.20800781 C24.03817553 180.23786434 18.86625365 169.27360332 13.6875 158.3125 C8.15786575 146.60829908 2.63558522 134.90068248 -2.875 123.1875 C-3.20355988 122.48913025 -3.53211975 121.7907605 -3.87063599 121.07122803 C-6.51490502 115.45044279 -9.15852971 109.82935455 -11.80212402 104.20825195 C-13.78712511 99.98758495 -15.77241238 95.76705274 -17.75793457 91.54663086 C-18.74357332 89.45116312 -19.72873978 87.3554738 -20.71386719 85.25976562 C-23.89914953 78.48607041 -27.09243563 71.71632476 -30.30387878 64.95498657 C-31.86731314 61.66333661 -33.42862002 58.37067896 -34.99002075 55.07806396 C-35.73774753 53.50315526 -36.48664082 51.92879978 -37.23678589 50.3550415 C-38.28183914 48.16253258 -39.32291454 45.96817325 -40.36328125 43.7734375 C-40.82158829 42.81621796 -40.82158829 42.81621796 -41.28915405 41.83966064 C-45.65835508 32.59477277 -49.12261841 23.83107982 -45.96875 13.56640625 C-42.01633617 4.79364987 -35.65477867 -0.33547825 -26.890625 -3.9609375 C-17.21782995 -7.34277938 -8.6432415 -5.1859449 0 0 Z " fill="#FFFFFF" transform="translate(2017.8125,427.6875)"></path>
<path d="M0 0 C5.61 0 11.22 0 17 0 C23.56723283 11.41010844 30.05711333 22.8592406 36.4375 34.375 C41.38803323 43.30794231 46.35749445 52.22946996 51.375 61.125 C52.20535767 62.60105713 52.20535767 62.60105713 53.05249023 64.10693359 C53.55852783 65.00234863 54.06456543 65.89776367 54.5859375 66.8203125 C55.0298584 67.60680176 55.4737793 68.39329102 55.93115234 69.20361328 C56.87417543 70.95621194 56.87417543 70.95621194 58 72 C58.5261792 71.06039429 58.5261792 71.06039429 59.06298828 70.10180664 C59.56040527 69.21356201 60.05782227 68.32531738 60.5703125 67.41015625 C61.12992676 66.41081055 61.68954102 65.41146484 62.26611328 64.38183594 C63.52217964 62.13893101 64.77836767 59.89609421 66.03466797 57.65332031 C69.23429945 51.94104323 72.43218189 46.2278084 75.625 40.51171875 C81.31921304 30.32120159 87.03227441 20.14203378 92.8125 10 C93.32248535 9.10313477 93.8324707 8.20626953 94.35791016 7.28222656 C94.82374512 6.4672168 95.28958008 5.65220703 95.76953125 4.8125 C96.17792236 4.09707031 96.58631348 3.38164063 97.00708008 2.64453125 C98 1 98 1 99 0 C104.61 0 110.22 0 116 0 C116 38.61 116 77.22 116 117 C110.39 117 104.78 117 99 117 C98.67 89.94 98.34 62.88 98 35 C92.72 44.57 87.44 54.14 82 64 C71.14827124 83.49782159 71.14827124 83.49782159 68 89 C67.34004028 90.19991577 67.34004028 90.19991577 66.66674805 91.42407227 C63.65734849 96.66006612 63.65734849 96.66006612 60.60546875 98.23828125 C57.67081509 98.32835947 55.76086803 98.05092239 53 97 C50.99609375 94.48071289 50.99609375 94.48071289 49.125 91.22265625 C48.78550827 90.64091644 48.44601654 90.05917664 48.09623718 89.45980835 C47.04635424 87.64940034 46.02121389 85.82670451 45 84 C44.39389893 82.93467041 43.78779785 81.86934082 43.16333008 80.77172852 C41.35788091 77.5677727 39.5812508 74.34934573 37.8125 71.125 C30.97076352 58.6939127 23.98325732 46.35499372 17 34 C16.67 61.39 16.34 88.78 16 117 C10.72 117 5.44 117 0 117 C0 78.39 0 39.78 0 0 Z " fill="#FFFFFF" transform="translate(1201,916)"></path>
<path d="M0 0 C63.89794046 0 63.89794046 0 74.7734375 10.58203125 C82.6518197 19.13767789 86.72822913 28.69829949 86.28125 40.46875 C85.07294679 51.34347892 81.02438728 61.04725598 72.4375 68.0625 C69.31528263 70.42781619 66.88267738 71.44728143 63 72 C67.29264249 80.39333756 72.32679403 88.1159442 77.59423828 95.90869141 C80.1357331 99.68959531 82.63502406 103.49753442 85.125 107.3125 C85.61057373 108.04807129 86.09614746 108.78364258 86.59643555 109.54150391 C90 114.76913249 90 114.76913249 90 117 C83.57391462 118.57159697 77.25257195 119.71732758 71 117 C64.68540584 110.94928745 60.7634183 102.74945491 56.69042969 95.10791016 C54.51143603 91.10175919 52.0535375 87.33607254 49.5 83.5625 C46 78.24067164 46 78.24067164 46 76 C36.1 76 26.2 76 16 76 C16 89.53 16 103.06 16 117 C10.72 117 5.44 117 0 117 C0 78.39 0 39.78 0 0 Z M16 15 C16 30.18 16 45.36 16 61 C22.27 61.103125 28.54 61.20625 35 61.3125 C36.96324219 61.35802002 38.92648438 61.40354004 40.94921875 61.45043945 C42.52862853 61.46506069 44.10805734 61.47779748 45.6875 61.48828125 C46.88922852 61.526651 46.88922852 61.526651 48.11523438 61.5657959 C54.21300372 61.57045495 58.28638839 59.88432165 63 56 C68.24158642 49.51698522 69.53143993 43.29144315 69.37890625 35.10546875 C68.60183585 28.7366959 65.78577258 23.23144401 60.9375 19 C55.53054645 15.31866992 51.85279838 14.72084034 45.296875 14.8046875 C44.5538916 14.80670166 43.8109082 14.80871582 43.04541016 14.81079102 C40.28021029 14.82122467 37.5150987 14.84914727 34.75 14.875 C25.46875 14.936875 25.46875 14.936875 16 15 Z " fill="#FFFFFF" transform="translate(3079,916)"></path>
<path d="M0 0 C63.89794046 0 63.89794046 0 74.7734375 10.58203125 C82.6518197 19.13767789 86.72822913 28.69829949 86.28125 40.46875 C85.07294679 51.34347892 81.02438728 61.04725598 72.4375 68.0625 C69.31528263 70.42781619 66.88267738 71.44728143 63 72 C67.29264249 80.39333756 72.32679403 88.1159442 77.59423828 95.90869141 C80.1357331 99.68959531 82.63502406 103.49753442 85.125 107.3125 C85.61057373 108.04807129 86.09614746 108.78364258 86.59643555 109.54150391 C90 114.76913249 90 114.76913249 90 117 C83.57391462 118.57159697 77.25257195 119.71732758 71 117 C64.68540584 110.94928745 60.7634183 102.74945491 56.69042969 95.10791016 C54.51143603 91.10175919 52.0535375 87.33607254 49.5 83.5625 C46 78.24067164 46 78.24067164 46 76 C36.1 76 26.2 76 16 76 C16 89.53 16 103.06 16 117 C10.72 117 5.44 117 0 117 C0 78.39 0 39.78 0 0 Z M16 15 C16 30.18 16 45.36 16 61 C22.27 61.103125 28.54 61.20625 35 61.3125 C36.96324219 61.35802002 38.92648437 61.40354004 40.94921875 61.45043945 C42.52862853 61.46506069 44.10805734 61.47779748 45.6875 61.48828125 C46.88922852 61.526651 46.88922852 61.526651 48.11523438 61.5657959 C54.21300372 61.57045495 58.28638839 59.88432165 63 56 C68.24158642 49.51698522 69.53143993 43.29144315 69.37890625 35.10546875 C68.60183585 28.7366959 65.78577258 23.23144401 60.9375 19 C55.53054645 15.31866992 51.85279838 14.72084034 45.296875 14.8046875 C44.5538916 14.80670166 43.8109082 14.80871582 43.04541016 14.81079102 C40.28021029 14.82122467 37.5150987 14.84914727 34.75 14.875 C25.46875 14.936875 25.46875 14.936875 16 15 Z " fill="#FFFFFF" transform="translate(1571,916)"></path>
<path d="M0 0 C13.13175582 10.67435123 20.72428705 26.78014225 22.6484375 43.37988281 C24.09974365 61.19213451 18.45780754 77.57864228 7.00390625 91.25390625 C-2.67347121 101.50599386 -15.27682426 107.75478154 -29.41015625 108.64453125 C-45.68633258 108.86903023 -58.81939117 104.4168622 -70.76171875 93.12109375 C-83.0333555 79.54312147 -88.95377857 62.86780254 -88.12109375 44.56640625 C-86.93963612 27.53457852 -79.31311525 13.64817178 -67.0859375 1.890625 C-47.56771138 -14.58034105 -20.45938242 -14.60338745 0 0 Z M-62.39453125 19.94921875 C-70.30874847 30.97382701 -72.25252706 43.1599099 -71.18359375 56.44140625 C-68.76760879 68.76842044 -62.98181455 79.46997238 -53.18359375 87.44140625 C-44.42517901 93.06822719 -34.75545478 94.77039071 -24.53515625 92.9765625 C-14.48797142 90.36429444 -7.23079558 83.70289397 -1.18359375 75.44140625 C5.46250774 63.62985374 7.75789472 51.34740994 5.12890625 37.93359375 C1.90642991 26.57436466 -3.69401529 15.84352551 -14.12109375 9.71484375 C-32.20475003 0.3627568 -49.22021411 4.36048493 -62.39453125 19.94921875 Z " fill="#FFFFFF" transform="translate(2251.18359375,925.55859375)"></path>
<path d="M0 0 C5.28 0 10.56 0 16 0 C16 16.5 16 33 16 50 C36.46 50 56.92 50 78 50 C78 33.5 78 17 78 0 C83.28 0 88.56 0 94 0 C94 38.61 94 77.22 94 117 C88.72 117 83.44 117 78 117 C78 99.84 78 82.68 78 65 C57.54 65 37.08 65 16 65 C16 82.16 16 99.32 16 117 C10.72 117 5.44 117 0 117 C0 78.39 0 39.78 0 0 Z " fill="#FFFFFF" transform="translate(1991,916)"></path>
<path d="M0 0 C25.74 0 51.48 0 78 0 C78 4.95 78 9.9 78 15 C57.54 15 37.08 15 16 15 C16 26.55 16 38.1 16 50 C33.82 50 51.64 50 70 50 C70 54.62 70 59.24 70 64 C52.18 64 34.36 64 16 64 C16 76.54 16 89.08 16 102 C37.12 102 58.24 102 80 102 C80 106.95 80 111.9 80 117 C53.6 117 27.2 117 0 117 C0 78.39 0 39.78 0 0 Z " fill="#FFFFFF" transform="translate(2921,916)"></path>
<path d="M0 0 C25.74 0 51.48 0 78 0 C78 4.95 78 9.9 78 15 C57.54 15 37.08 15 16 15 C16 26.55 16 38.1 16 50 C33.82 50 51.64 50 70 50 C70 54.62 70 59.24 70 64 C52.18 64 34.36 64 16 64 C16 76.54 16 89.08 16 102 C37.12 102 58.24 102 80 102 C80 106.95 80 111.9 80 117 C53.6 117 27.2 117 0 117 C0 78.39 0 39.78 0 0 Z " fill="#FFFFFF" transform="translate(2507,916)"></path>
<path d="M0 0 C0.99 0.99 0.99 0.99 2 2 C1.63650459 5.55761461 -0.21129904 8.25656866 -2.0625 11.25 C-2.61035156 12.14203125 -3.15820312 13.0340625 -3.72265625 13.953125 C-4.14417969 14.62859375 -4.56570312 15.3040625 -5 16 C-7.67040071 14.72336106 -10.06539853 13.30145803 -12.5 11.625 C-23.41983976 4.86031985 -35.31186676 3.26997621 -47.84375 5.5078125 C-53.59525912 7.17575015 -57.31176927 10.02549823 -60.3125 15.3125 C-61.65560985 20.5628385 -61.74712322 24.38123301 -59.5 29.25 C-52.3985578 37.06158642 -40.4215021 38.4549816 -30.56494141 40.921875 C-2.68107336 47.94773151 -2.68107336 47.94773151 4.3125 59.5625 C8.12651668 67.33179324 8.31782294 77.37146707 6.3515625 85.76953125 C3.11329885 93.6714481 -2.74292962 100.15720011 -10.37890625 103.96875 C-27.76967118 110.81101817 -48.05558096 109.45515955 -65.25 102.75 C-80.34653784 95.96987242 -80.34653784 95.96987242 -83.015625 91.17578125 C-82.99108271 87.75826753 -81.33899637 85.61732748 -79.5625 82.75 C-78.90378906 81.67234375 -78.24507812 80.5946875 -77.56640625 79.484375 C-77.04949219 78.66453125 -76.53257812 77.8446875 -76 77 C-75.48953125 77.36351562 -74.9790625 77.72703125 -74.453125 78.1015625 C-59.48438925 88.45228403 -43.52039096 94.66950724 -25.0703125 91.49609375 C-18.89486654 89.89267677 -15.38664982 87.40949975 -11.6875 82.125 C-10.296352 77.825088 -10.63731685 74.13338483 -12 69.875 C-16.57931218 63.29223874 -24.05480271 61.03156674 -31.5 59 C-33.27097486 58.4900746 -35.04180644 57.97965136 -36.8125 57.46875 C-38.5416425 56.97908133 -40.27080813 56.48949431 -42 56 C-70.19684887 47.91626176 -70.19684887 47.91626176 -76 38 C-79.96624653 29.9915252 -80.08086156 21.37334368 -77.875 12.8125 C-74.74195505 3.68768706 -68.54659105 -2.63272514 -60 -7 C-39.31545746 -14.45171086 -18.38049641 -11.77047562 0 0 Z " fill="#FFFFFF" transform="translate(3319,926)"></path>
<path d="M0 0 C0.99 0.99 0.99 0.99 2 2 C1.63650459 5.55761461 -0.21129904 8.25656866 -2.0625 11.25 C-2.61035156 12.14203125 -3.15820312 13.0340625 -3.72265625 13.953125 C-4.14417969 14.62859375 -4.56570313 15.3040625 -5 16 C-7.67040071 14.72336106 -10.06539853 13.30145803 -12.5 11.625 C-23.41983976 4.86031985 -35.31186676 3.26997621 -47.84375 5.5078125 C-53.59525912 7.17575015 -57.31176927 10.02549823 -60.3125 15.3125 C-61.65560985 20.5628385 -61.74712322 24.38123301 -59.5 29.25 C-52.3985578 37.06158642 -40.4215021 38.4549816 -30.56494141 40.921875 C-2.68107336 47.94773151 -2.68107336 47.94773151 4.3125 59.5625 C8.12651668 67.33179324 8.31782294 77.37146707 6.3515625 85.76953125 C3.11329885 93.6714481 -2.74292962 100.15720011 -10.37890625 103.96875 C-27.76967118 110.81101817 -48.05558096 109.45515955 -65.25 102.75 C-80.34653784 95.96987242 -80.34653784 95.96987242 -83.015625 91.17578125 C-82.99108271 87.75826753 -81.33899637 85.61732748 -79.5625 82.75 C-78.90378906 81.67234375 -78.24507812 80.5946875 -77.56640625 79.484375 C-77.04949219 78.66453125 -76.53257813 77.8446875 -76 77 C-75.48953125 77.36351562 -74.9790625 77.72703125 -74.453125 78.1015625 C-59.48438925 88.45228403 -43.52039096 94.66950724 -25.0703125 91.49609375 C-18.89486654 89.89267677 -15.38664982 87.40949975 -11.6875 82.125 C-10.296352 77.825088 -10.63731685 74.13338483 -12 69.875 C-16.57931218 63.29223874 -24.05480271 61.03156674 -31.5 59 C-33.27097486 58.4900746 -35.04180644 57.97965136 -36.8125 57.46875 C-38.5416425 56.97908133 -40.27080813 56.48949431 -42 56 C-70.19684887 47.91626176 -70.19684887 47.91626176 -76 38 C-79.96624653 29.9915252 -80.08086156 21.37334368 -77.875 12.8125 C-74.74195505 3.68768706 -68.54659105 -2.63272514 -60 -7 C-39.31545746 -14.45171086 -18.38049641 -11.77047562 0 0 Z " fill="#FFFFFF" transform="translate(1116,926)"></path>
<path d="M0 0 C4.09887603 2.92879408 7.71538432 6.40235299 11.359375 9.8671875 C13.58877421 11.98435845 15.83640575 14.02995068 18.16796875 16.03125 C22.35078886 19.65519644 26.39318682 23.42630746 30.45068359 27.18896484 C33.95915563 30.43672024 37.51460242 33.61626043 41.12890625 36.74609375 C43.92337273 39.20293882 46.67267316 41.70720316 49.41796875 44.21875 C49.91756104 44.67451416 50.41715332 45.13027832 50.93188477 45.59985352 C63.60479365 57.22635608 63.60479365 57.22635608 64.2890625 67.0390625 C64.14183151 73.45833365 61.25489747 78.46608966 56.96484375 83.1171875 C53.06404218 86.43814018 48.83967735 87.38514888 43.85546875 88.03125 C35.43309235 87.0147563 29.85025911 83.83934951 24.14453125 77.65625 C22.34409917 75.71619258 20.48957734 74.00098081 18.48046875 72.28125 C15.04537921 69.3243788 11.68985721 66.28817837 8.35546875 63.21875 C3.01434888 58.30555616 -2.36748913 53.43995499 -7.76953125 48.59375 C-10.26363457 46.34983886 -12.7568831 44.10521926 -15.2421875 41.8515625 C-16.97816149 40.30072329 -18.73755049 38.77582194 -20.515625 37.2734375 C-26.21666987 32.39155583 -30.16849415 28.78452498 -31.0703125 20.99609375 C-31.37171893 14.73545155 -30.71111916 9.60832573 -26.76953125 4.59375 C-19.19104299 -2.51884759 -9.54682178 -5.3355491 0 0 Z " fill="#FFFFFF" transform="translate(359.76953125,545.40625)"></path>
<path d="M0 0 C4.62 0 9.24 0 14 0 C23.13851515 21.80510443 32.15450238 43.65538871 41.00054932 65.58078003 C43.16187422 70.93468198 45.33485513 76.28374764 47.51367188 81.6305542 C49.10290266 85.53086096 50.68951047 89.43223233 52.27593994 93.3336792 C53.0471943 95.22856334 53.81960538 97.1229771 54.59320068 99.01690674 C55.66817319 101.64931512 56.7388587 104.28342855 57.80859375 106.91796875 C58.29490013 108.10423607 58.29490013 108.10423607 58.79103088 109.31446838 C61 114.77215634 61 114.77215634 61 117 C55.39 117 49.78 117 44 117 C40.51464292 110.397007 37.84110324 103.62182276 35.25 96.625 C34.83878906 95.53316406 34.42757813 94.44132813 34.00390625 93.31640625 C31 85.26274398 31 85.26274398 31 83 C15.16 83.33 -0.68 83.66 -17 84 C-20.90525076 94.11164523 -20.90525076 94.11164523 -24.80834961 104.22412109 C-25.29793624 105.49059008 -25.78759595 106.75703083 -26.27734375 108.0234375 C-26.53132935 108.68255127 -26.78531494 109.34166504 -27.04699707 110.02075195 C-28.8859282 114.7718564 -28.8859282 114.7718564 -30 117 C-35.94 117 -41.88 117 -48 117 C-43.78034204 105.52654906 -39.26581125 94.21309768 -34.56787109 82.92797852 C-32.48491981 77.92437654 -30.41034282 72.91730606 -28.3359375 67.91015625 C-27.90416199 66.86832184 -27.47238647 65.82648743 -27.02752686 64.75308228 C-23.79697596 56.94880623 -20.59820566 49.13190871 -17.4140625 41.30859375 C-16.95873138 40.19017593 -16.50340027 39.07175812 -16.03427124 37.91944885 C-14.25067985 33.53673726 -12.46787592 29.15371546 -10.68963623 24.76882935 C-9.46170259 21.74092525 -8.23102573 18.714148 -7 15.6875 C-6.63830719 14.79264389 -6.27661438 13.89778778 -5.90396118 12.97581482 C-5.56440399 12.14203812 -5.2248468 11.30826141 -4.875 10.44921875 C-4.58367187 9.73080811 -4.29234375 9.01239746 -3.9921875 8.2722168 C-2.76696992 5.46633589 -1.36924255 2.73848509 0 0 Z M6 22 C3.43178817 28.51262829 0.86883051 35.02730587 -1.69042969 41.54345703 C-2.56225755 43.76138451 -3.43530127 45.97883444 -4.30957031 48.19580078 C-5.56372527 51.3766904 -6.81354266 54.55925409 -8.0625 57.7421875 C-8.45622803 58.73805878 -8.84995605 59.73393005 -9.25561523 60.75997925 C-9.61598877 61.68078278 -9.9763623 62.6015863 -10.34765625 63.55029297 C-10.82730835 64.76940872 -10.82730835 64.76940872 -11.31665039 66.01315308 C-12.10841256 67.96503116 -12.10841256 67.96503116 -12 70 C0.54 70 13.08 70 26 70 C24.329375 65.606875 22.65875 61.21375 20.9375 56.6875 C16.55568428 45.14997514 12.23043651 33.59399494 8 22 C7.34 22 6.68 22 6 22 Z " fill="#FFFFFF" transform="translate(1437,916)"></path>
<path d="M0 0 C31.68 0 63.36 0 96 0 C96 4.95 96 9.9 96 15 C82.8 15 69.6 15 56 15 C56 48.66 56 82.32 56 117 C50.72 117 45.44 117 40 117 C40 83.34 40 49.68 40 15 C26.8 15 13.6 15 0 15 C0 10.05 0 5.1 0 0 Z " fill="#FFFFFF" transform="translate(2337,916)"></path>
<path d="M0 0 C31.68 0 63.36 0 96 0 C96 4.95 96 9.9 96 15 C82.8 15 69.6 15 56 15 C56 48.66 56 82.32 56 117 C50.72 117 45.44 117 40 117 C40 83.34 40 49.68 40 15 C26.8 15 13.6 15 0 15 C0 10.05 0 5.1 0 0 Z " fill="#FFFFFF" transform="translate(1725,916)"></path>
<path d="M0 0 C5.28 0 10.56 0 16 0 C16 33.66 16 67.32 16 102 C37.12 102 58.24 102 80 102 C80 106.95 80 111.9 80 117 C53.6 117 27.2 117 0 117 C0 78.39 0 39.78 0 0 Z " fill="#FFFFFF" transform="translate(2665,916)"></path>
<path d="M0 0 C5.28 0 10.56 0 16 0 C16 38.61 16 77.22 16 117 C10.72 117 5.44 117 0 117 C0 78.39 0 39.78 0 0 Z " fill="#FFFFFF" transform="translate(2819,916)"></path>
</svg>